<?xml version="1.0" encoding="UTF-8"?>
<svg version="1.1" xmlns="http://www.w3.org/2000/svg" width="581" height="167">
<path d="M0 0 C1.11435928 -0.00686325 2.22871857 -0.0137265 3.37684631 -0.02079773 C7.05930329 -0.03909487 10.74133546 -0.03522424 14.42382812 -0.02954102 C16.98303364 -0.03410106 19.54223793 -0.03940609 22.10144043 -0.04542542 C27.46465608 -0.05436203 32.82771688 -0.05216039 38.19091797 -0.04199219 C44.38553208 -0.03050704 50.57971344 -0.04459525 56.77427053 -0.07138866 C62.74102512 -0.09622781 68.70764532 -0.09872214 74.67445374 -0.0922718 C77.21021749 -0.09211828 79.74598946 -0.09818841 82.28172302 -0.11056328 C85.82486299 -0.12541917 89.36704648 -0.11483506 92.91015625 -0.09765625 C93.95965958 -0.10732422 95.0091629 -0.11699219 96.09046936 -0.12695312 C103.20247886 -0.05464643 103.20247886 -0.05464643 107.08288574 2.31040955 C109.83138847 5.38401676 110.0835732 7.06010461 110.1157074 11.09065247 C110.13077583 12.57324303 110.13077583 12.57324303 110.14614868 14.08578491 C110.15197968 15.17412628 110.15781067 16.26246765 110.16381836 17.38378906 C110.17360214 18.52697098 110.18338593 19.67015289 110.19346619 20.84797668 C110.22346524 24.6440005 110.24481658 28.43998903 110.26367188 32.23608398 C110.2702437 33.52985144 110.27681553 34.82361889 110.2835865 36.15659142 C110.30948108 41.59275923 110.33297087 47.02891394 110.34808254 52.46512318 C110.36999276 60.25564417 110.41197078 68.04547625 110.48152012 75.83572179 C110.53445909 81.97385657 110.55456412 88.11171867 110.56328011 94.25006676 C110.57185981 96.86123694 110.59073906 99.47239402 110.62002373 102.08341408 C110.65877692 105.73487036 110.65999289 109.38452102 110.65209961 113.03613281 C110.68210052 114.65953583 110.68210052 114.65953583 110.71270752 116.31573486 C110.6657984 121.13991708 110.5349442 123.61670508 107.62039185 127.57411194 C103.0794946 130.5140149 97.83735405 130.10069254 92.61303711 130.05102539 C91.47902466 130.05978699 90.34501221 130.06854858 89.17663574 130.07757568 C85.43442338 130.09955252 81.6933959 130.08502239 77.95117188 130.06811523 C75.34855421 130.07148358 72.74593808 130.07633636 70.14332581 130.08261108 C64.69185581 130.0916947 59.24072507 130.07975272 53.78930664 130.0559082 C47.49288 130.02868511 41.19726261 130.0375238 34.90085548 130.06504023 C28.83416618 130.09048806 22.76787188 130.08776514 16.70112801 130.07313156 C14.12350412 130.0697947 11.5458596 130.07389439 8.96825981 130.08552933 C5.36752324 130.09821683 1.76834499 130.07888752 -1.83227539 130.05102539 C-2.89890915 130.06114655 -3.96554291 130.0712677 -5.0644989 130.08169556 C-9.82291617 130.01342208 -12.25890205 129.97771792 -16.18321228 127.11361694 C-18.79696095 123.30952211 -19.16858966 120.30049548 -19.18536377 115.74942017 C-19.19107391 114.81862137 -19.19678406 113.88782257 -19.20266724 112.92881775 C-19.2037851 111.91469315 -19.20490295 110.90056854 -19.20605469 109.85571289 C-19.21350204 108.24532387 -19.21350204 108.24532387 -19.22109985 106.60240173 C-19.23571026 103.04929973 -19.24252117 99.49624235 -19.24804688 95.94311523 C-19.25379866 93.4745585 -19.25955639 91.00600178 -19.26531982 88.53744507 C-19.27582621 83.36081738 -19.28167145 78.18420521 -19.28515625 73.00756836 C-19.29064426 66.37408946 -19.3146806 59.74081548 -19.3431282 53.10740089 C-19.36174885 48.00818277 -19.36695986 42.90901411 -19.36849213 37.80976486 C-19.37151979 35.36413832 -19.37955209 32.91851266 -19.39267731 30.47291946 C-19.40972751 27.05218125 -19.40785993 23.63194508 -19.40136719 20.21118164 C-19.41058197 19.2011055 -19.41979675 18.19102936 -19.42929077 17.15034485 C-19.39786465 11.86612421 -19.21945569 7.85858464 -16.04492188 3.40405273 C-11.52984926 -0.77768798 -5.79724523 -0.0248662 0 0 Z M1.95507812 25.40405273 C0.82026403 29.37590208 0.51783989 31.4202667 2.20507812 35.21655273 C4.67654105 38.30588139 6.33112876 39.32164433 10.26757812 39.84155273 C15.05181364 39.27393157 16.83640682 38.05518012 19.95507812 34.40405273 C20.77202441 29.72517858 20.68055317 26.83878291 17.95507812 22.90405273 C14.61502154 20.12067225 13.11258589 19.53710029 8.88867188 19.88842773 C5.42708113 20.8115186 3.97286038 22.53024165 1.95507812 25.40405273 Z M53.70507812 55.09155273 C53.12757813 55.85467773 52.55007813 56.61780273 51.95507812 57.40405273 C51.29507813 57.40405273 50.63507813 57.40405273 49.95507812 57.40405273 C49.62507813 55.09405273 49.29507813 52.78405273 48.95507812 50.40405273 C43.67507813 50.40405273 38.39507812 50.40405273 32.95507812 50.40405273 C32.95507812 69.54405273 32.95507812 88.68405273 32.95507812 108.40405273 C38.23507812 108.40405273 43.51507813 108.40405273 48.95507812 108.40405273 C50.14386135 104.83770305 50.12796479 101.56275965 50.16601562 97.84936523 C50.19408447 96.33242736 50.22274894 94.81550042 50.25195312 93.29858398 C50.29318817 90.91333323 50.33008659 88.52828644 50.35644531 86.14282227 C50.38412615 83.83624464 50.42999299 81.5305862 50.47851562 79.22436523 C50.48176849 78.51587433 50.48502136 77.80738342 50.4883728 77.0774231 C50.59680874 72.68771217 51.30716391 69.91981821 53.95507812 66.40405273 C56.33997175 64.29973483 57.98116017 63.44691884 61.17382812 63.30639648 C67.21299984 63.70835434 67.21299984 63.70835434 69.95507812 66.27905273 C72.07476246 70.78338195 72.16865565 74.90639139 72.27148438 79.79077148 C72.29226547 80.6077803 72.31304657 81.42478912 72.3344574 82.26655579 C72.39980892 84.87480307 72.45877086 87.48315049 72.51757812 90.09155273 C72.56077704 91.86044327 72.60439178 93.62932371 72.6484375 95.39819336 C72.75625769 99.7333787 72.85543785 104.06864075 72.95507812 108.40405273 C78.23507812 108.40405273 83.51507813 108.40405273 88.95507812 108.40405273 C90.05309763 104.01197473 90.03469244 100.02571483 89.93945312 95.54467773 C89.92295715 94.68146912 89.90646118 93.8182605 89.88946533 92.92889404 C89.85201219 91.10316649 89.81147173 89.27750003 89.76806641 87.4519043 C89.70562201 84.6782112 89.66397273 81.90469801 89.62304688 79.13061523 C89.5839679 77.35194069 89.54364297 75.573293 89.50195312 73.79467773 C89.49242615 72.97356506 89.48289917 72.15245239 89.4730835 71.30645752 C89.27436188 64.51045647 88.02089233 58.90477519 83.58007812 53.52905273 C78.9060372 49.74530532 74.97342196 49.11095288 69.01757812 49.09155273 C67.83292969 49.07479492 66.64828125 49.05803711 65.42773438 49.04077148 C60.26659471 49.58068823 57.0349445 51.11421234 53.70507812 55.09155273 Z M2.95507812 50.40405273 C2.80146501 57.81854737 2.65328336 65.2331293 2.51211452 72.64787197 C2.44639804 76.09050392 2.37878192 79.53307708 2.30688477 82.97558594 C2.22438883 86.92950496 2.15004667 90.88355658 2.07617188 94.83764648 C2.04913681 96.07929062 2.02210175 97.32093475 1.99424744 98.60020447 C1.97415115 99.7413118 1.95405487 100.88241913 1.93334961 102.05810547 C1.91336411 103.06848373 1.8933786 104.078862 1.87278748 105.11985779 C1.69419446 107.3702326 1.69419446 107.3702326 2.95507812 108.40405273 C5.46643917 108.50380306 7.94411227 108.54287456 10.45507812 108.52905273 C11.15761719 108.53291992 11.86015625 108.53678711 12.58398438 108.54077148 C16.05936621 108.84796204 16.05936621 108.84796204 18.95507812 107.40405273 C19.05395605 105.66022738 19.08306844 103.9123973 19.08447266 102.16577148 C19.08762482 101.0479126 19.09077698 99.93005371 19.09402466 98.77832031 C19.09200043 97.56168701 19.0899762 96.34505371 19.08789062 95.09155273 C19.08884735 93.85236084 19.08980408 92.61316895 19.09078979 91.33642578 C19.09147186 88.71016993 19.0901135 86.0840064 19.08544922 83.45776367 C19.07975193 80.0847656 19.08303115 76.71184708 19.08902168 73.33885193 C19.09349583 70.13141597 19.09036695 66.92398973 19.08789062 63.71655273 C19.08991486 62.49991943 19.09193909 61.28328613 19.09402466 60.02978516 C19.0908725 58.91192627 19.08772034 57.79406738 19.08447266 56.64233398 C19.08367706 55.65273682 19.08288147 54.66313965 19.08206177 53.64355469 C19.2060866 51.43308024 19.2060866 51.43308024 17.95507812 50.40405273 C15.4245841 50.33091707 12.92202976 50.31157746 10.39257812 50.34155273 C9.68166016 50.34606445 8.97074219 50.35057617 8.23828125 50.35522461 C6.47717799 50.36704409 4.71611777 50.3849801 2.95507812 50.40405273 Z " fill="#FAFDFC" transform="translate(428.044921875,18.595947265625)"/>
<path d="M0 0 C6.6 0 13.2 0 20 0 C21.61454805 3.2290961 21.12915781 6.75858658 21.11352539 10.30517578 C21.11367142 11.16378204 21.11381744 12.02238831 21.1139679 12.90701294 C21.11326963 15.75313824 21.10548125 18.59919859 21.09765625 21.4453125 C21.09579176 23.41543543 21.09436801 25.38555882 21.09336853 27.35568237 C21.08954576 32.54739659 21.07971751 37.73908294 21.06866455 42.93078613 C21.05844528 48.225989 21.0538698 53.52119637 21.04882812 58.81640625 C21.03809504 69.21094976 21.02102148 79.60547256 21 90 C17.23958308 91.59361779 14.47718713 92.24965435 10.375 92.1875 C9.43398438 92.18105469 8.49296875 92.17460937 7.5234375 92.16796875 C5 92 5 92 2 91 C0.8125 88.9375 0.8125 88.9375 0 87 C-0.60328125 87.34933594 -1.2065625 87.69867188 -1.828125 88.05859375 C-2.62734375 88.51363281 -3.4265625 88.96867187 -4.25 89.4375 C-5.03890625 89.88996094 -5.8278125 90.34242188 -6.640625 90.80859375 C-13.40168743 94.2227064 -20.49824007 93.73338448 -27.5625 91.4375 C-36.69316221 87.78523512 -41.99520292 81.86899268 -46 73 C-47.40365551 68.78903348 -47.26447125 64.78724127 -47.3125 60.375 C-47.34150391 59.51003906 -47.37050781 58.64507812 -47.40039062 57.75390625 C-47.49133679 48.42143094 -44.23244223 41.57947001 -37.93359375 34.79296875 C-30.82288562 28.19940302 -24.55810936 26.71148895 -15.05078125 26.76953125 C-10.84986247 27.08688619 -7.82376503 28.26192498 -4 30 C-3.01 30.33 -2.02 30.66 -1 31 C-1.00523682 30.23856689 -1.01047363 29.47713379 -1.01586914 28.69262695 C-1.03669525 25.23259308 -1.04967813 21.77257241 -1.0625 18.3125 C-1.07087891 17.11431641 -1.07925781 15.91613281 -1.08789062 14.68164062 C-1.09111328 13.52470703 -1.09433594 12.36777344 -1.09765625 11.17578125 C-1.10289307 10.11270752 -1.10812988 9.04963379 -1.11352539 7.9543457 C-1 5 -1 5 0 0 Z M-24.375 50.5 C-27.12122012 54.72495403 -27.40734235 58.03042332 -27 63 C-25.59673777 67.37015951 -23.98978475 70.28015654 -20.25 73 C-14.93594849 74.63509277 -10.91188373 74.72146556 -5.6875 72.75 C-1.9227141 70.29851151 -0.4110434 68.23313019 1 64 C1.56128245 58.33320603 1.32838683 53.82042231 -2 49 C-9.11921671 43.10122044 -18.12054611 43.91636433 -24.375 50.5 Z " fill="#F3F9FA" transform="translate(372,38)"/>
<path d="M0 0 C1.87939453 -0.34057617 1.87939453 -0.34057617 4.1328125 -0.29296875 C4.93847656 -0.28330078 5.74414062 -0.27363281 6.57421875 -0.26367188 C7.41597656 -0.23853516 8.25773438 -0.21339844 9.125 -0.1875 C9.97449219 -0.17396484 10.82398438 -0.16042969 11.69921875 -0.14648438 C13.79974837 -0.11108219 15.89995293 -0.05727401 18 0 C20.28779041 5.47011479 20.25979967 10.39180437 20.1953125 16.2109375 C20.1924826 17.17907379 20.18965271 18.14721008 20.18673706 19.14468384 C20.17558696 22.22158428 20.1504918 25.29818828 20.125 28.375 C20.11496352 30.4674437 20.10583884 32.55989198 20.09765625 34.65234375 C20.07566453 39.76834251 20.04117025 44.88412108 20 50 C21.74950689 48.09839489 23.49806239 46.19592946 25.24609375 44.29296875 C25.73670288 43.75990112 26.22731201 43.2268335 26.73278809 42.6776123 C30.11821645 38.99019075 33.42496839 35.24630873 36.66015625 31.42578125 C39.89718834 27.98112611 44.4479961 28.5723007 48.875 28.3125 C49.69097656 28.25255859 50.50695312 28.19261719 51.34765625 28.13085938 C52.13785156 28.08380859 52.92804688 28.03675781 53.7421875 27.98828125 C54.4626123 27.94227783 55.18303711 27.89627441 55.92529297 27.84887695 C58.35323139 28.02572961 59.90685772 28.7936875 62 30 C60.54337511 34.75830798 57.69317755 37.80944265 54.3125 41.3125 C53.23146845 42.46456008 52.15073838 43.61690313 51.0703125 44.76953125 C49.26526352 46.67609343 47.44811179 48.5672687 45.6171875 50.44921875 C44.66199219 51.46435547 44.66199219 51.46435547 43.6875 52.5 C43.13449219 53.0671875 42.58148438 53.634375 42.01171875 54.21875 C40.81873232 55.98298149 40.81873232 55.98298149 40.98046875 58.23828125 C42.47405818 62.2841346 44.97533872 65.3176662 47.625 68.6875 C48.71706225 70.11257945 49.80821028 71.53835996 50.8984375 72.96484375 C51.69459473 73.99907471 51.69459473 73.99907471 52.50683594 75.05419922 C54.45644562 77.59481223 56.37145855 80.15637589 58.25 82.75 C58.79140625 83.48734375 59.3328125 84.2246875 59.890625 84.984375 C61 87 61 87 61 91 C56.60370952 91.83898673 52.41174091 92.16315701 47.9375 92.1875 C46.75027344 92.20167969 45.56304687 92.21585937 44.33984375 92.23046875 C40.97496009 91.9982721 38.98999412 91.5060384 36 90 C34.37841797 88.09228516 34.37841797 88.09228516 32.9921875 85.7890625 C32.48042969 84.95632812 31.96867187 84.12359375 31.44140625 83.265625 C30.92449219 82.39421875 30.40757812 81.5228125 29.875 80.625 C28.83202636 78.9080655 27.78779768 77.19189262 26.7421875 75.4765625 C26.2869873 74.71424316 25.83178711 73.95192383 25.36279297 73.16650391 C24.01945078 70.95234748 24.01945078 70.95234748 22.32861328 68.84521484 C21 67 21 67 21 65 C20.34 65 19.68 65 19 65 C19 73.25 19 81.5 19 90 C13.55766615 91.81411128 11.15609625 92.18887362 5.6875 91.75 C4.45386719 91.66234375 3.22023437 91.5746875 1.94921875 91.484375 C0.97597656 91.32453125 0.00273437 91.1646875 -1 91 C-2.58595391 87.82809218 -2.14725615 84.40927632 -2.14526367 80.92602539 C-2.14862228 80.09174515 -2.1519809 79.2574649 -2.15544128 78.39790344 C-2.16496543 75.63113937 -2.1668951 72.86443571 -2.16796875 70.09765625 C-2.1711802 68.17956009 -2.17454419 66.26146417 -2.17805481 64.34336853 C-2.18404966 60.31915723 -2.18589433 56.29496741 -2.18530273 52.27075195 C-2.18520107 47.10770886 -2.19885656 41.94480315 -2.21607494 36.78179264 C-2.22717913 32.81932438 -2.22922243 28.8568895 -2.22869301 24.89440727 C-2.22987539 22.9905697 -2.23431154 21.08673133 -2.24202538 19.18290901 C-2.25179385 16.52296375 -2.24895976 13.86331897 -2.24291992 11.20336914 C-2.24853943 10.41313354 -2.25415894 9.62289795 -2.25994873 8.80871582 C-2.23790839 4.99991753 -2.16527221 3.24790832 0 0 Z " fill="#E9F5FA" transform="translate(199,38)"/>
<path d="M0 0 C7.69889478 7.92533286 10.29018192 15.75388912 10.3125 26.8125 C10.26491672 28.93788634 10.20764614 31.06318814 10.125 33.1875 C6.68895235 34.90552382 2.74061104 34.3071618 -1.0390625 34.28515625 C-1.94627045 34.2837413 -2.85347839 34.28232635 -3.78817749 34.28086853 C-6.69215155 34.27526096 -9.59604915 34.26270718 -12.5 34.25 C-14.46614472 34.24498598 -16.43229065 34.2404229 -18.3984375 34.23632812 C-23.2239879 34.22528906 -28.04948097 34.20801935 -32.875 34.1875 C-32.09241183 35.33233469 -31.30312006 36.47258906 -30.51098633 37.61083984 C-30.07216629 38.2462973 -29.63334625 38.88175476 -29.18122864 39.53646851 C-26.92394925 42.38959793 -24.65942956 42.64219207 -21.22265625 43.17578125 C-17.38055568 43.19495979 -14.16980691 42.13307602 -10.875 40.1875 C-10.38773437 39.63449219 -9.90046875 39.08148438 -9.3984375 38.51171875 C-7.875 37.1875 -7.875 37.1875 -6.015625 37.27734375 C-3.26843245 38.4454019 -1.04228317 40.00065034 1.375 41.75 C2.26703125 42.39066406 3.1590625 43.03132813 4.078125 43.69140625 C4.75359375 44.18511719 5.4290625 44.67882812 6.125 45.1875 C5.49676572 49.46377652 4.51729313 51.30456164 1.00390625 53.98828125 C-8.03310347 59.75618558 -17.57889917 61.65556392 -28.09765625 59.5390625 C-38.1917659 56.77646407 -45.59309506 52.35193792 -50.90234375 43.1796875 C-51.22332031 42.52226563 -51.54429687 41.86484375 -51.875 41.1875 C-52.23980469 40.45144531 -52.60460937 39.71539062 -52.98046875 38.95703125 C-55.66702796 30.63925622 -55.0201276 19.17233459 -51.19140625 11.328125 C-45.74791858 2.47640024 -38.86764218 -2.17444546 -28.9375 -5.125 C-18.50175988 -7.28339605 -9.04008767 -5.6991857 0 0 Z M-31.875 14.1875 C-32.205 15.8375 -32.535 17.4875 -32.875 19.1875 C-25.945 19.1875 -19.015 19.1875 -11.875 19.1875 C-11.545 18.1975 -11.215 17.2075 -10.875 16.1875 C-13.34551729 12.6006585 -13.34551729 12.6006585 -16.875 10.1875 C-22.87315759 9.5399113 -27.73125396 9.2417386 -31.875 14.1875 Z " fill="#F5FBFA" transform="translate(310.875,70.8125)"/>
<path d="M0 0 C5.37599486 4.70240685 7.30568974 10.87272486 7.83163452 17.81027222 C7.89843768 20.4083542 7.9036507 22.9988097 7.8828125 25.59765625 C7.88235428 26.53839493 7.88189606 27.47913361 7.88142395 28.44837952 C7.87842088 30.42075882 7.87059351 32.39313616 7.8581543 34.36547852 C7.83975138 37.39803355 7.83764588 40.43028525 7.83789062 43.46289062 C7.83298023 45.38281516 7.82715401 47.30273762 7.8203125 49.22265625 C7.81919968 50.13297104 7.81808685 51.04328583 7.81694031 51.98118591 C7.76843762 58.32921863 7.76843762 58.32921863 6.65234375 59.4453125 C-8.4161494 61.91106592 -8.4161494 61.91106592 -13.34765625 59.4453125 C-13.37738525 57.81118408 -13.37738525 57.81118408 -13.40771484 56.14404297 C-13.48404683 52.08473417 -13.57272086 48.02577097 -13.66503906 43.96679688 C-13.70321513 42.21328579 -13.73808749 40.45969942 -13.76953125 38.70605469 C-13.81542984 36.17876364 -13.87338195 33.65198572 -13.93359375 31.125 C-13.94514496 30.34663788 -13.95669617 29.56827576 -13.96859741 28.7663269 C-14.08776147 24.3264542 -14.54342134 20.58198791 -16.34765625 16.4453125 C-19.54257384 14.84785371 -22.87975014 14.93714408 -26.34765625 15.4453125 C-29.31623782 17.65271931 -30.17631416 18.93128623 -31.34765625 22.4453125 C-31.50158255 25.24691752 -31.6050367 28.02829675 -31.6640625 30.83203125 C-31.6848436 31.64904007 -31.70562469 32.46604889 -31.72703552 33.30781555 C-31.79238704 35.91606284 -31.85134898 38.52441025 -31.91015625 41.1328125 C-31.95335517 42.90170304 -31.9969699 44.67058347 -32.04101562 46.43945312 C-32.14805368 50.77463713 -32.24936169 55.10992179 -32.34765625 59.4453125 C-33.77961756 59.61655498 -35.21199227 59.78434282 -36.64453125 59.95068359 C-37.44213867 60.0444931 -38.23974609 60.13830261 -39.06152344 60.23495483 C-41.87828049 60.49413769 -44.5370549 60.36574503 -47.34765625 60.0703125 C-48.27578125 59.98007813 -49.20390625 59.88984375 -50.16015625 59.796875 C-52.34765625 59.4453125 -52.34765625 59.4453125 -53.34765625 58.4453125 C-53.44676185 56.57895462 -53.47564886 54.70883056 -53.47705078 52.83984375 C-53.48020294 51.64190186 -53.4833551 50.44395996 -53.48660278 49.2097168 C-53.48457855 47.90558838 -53.48255432 46.60145996 -53.48046875 45.2578125 C-53.48114185 43.91642235 -53.48211193 42.57503231 -53.48336792 41.23364258 C-53.48484461 38.41909629 -53.48269129 35.60458168 -53.47802734 32.79003906 C-53.47233006 29.17490619 -53.47560922 25.55984755 -53.48159981 21.94471741 C-53.48520622 19.17386308 -53.48406647 16.40302648 -53.48147202 13.63217163 C-53.48047658 11.64841667 -53.48352366 9.66466103 -53.48660278 7.6809082 C-53.48345062 6.48296631 -53.48029846 5.28502441 -53.47705078 4.05078125 C-53.47625519 2.99012451 -53.47545959 1.92946777 -53.47463989 0.83666992 C-53.34765625 -1.5546875 -53.34765625 -1.5546875 -52.34765625 -2.5546875 C-51.00498212 -2.64100624 -49.65791303 -2.66175223 -48.3125 -2.65234375 C-47.50361328 -2.64912109 -46.69472656 -2.64589844 -45.86132812 -2.64257812 C-45.01119141 -2.63419922 -44.16105469 -2.62582031 -43.28515625 -2.6171875 C-42.43115234 -2.61267578 -41.57714844 -2.60816406 -40.69726562 -2.60351562 C-38.58069962 -2.59169123 -36.4641694 -2.57375519 -34.34765625 -2.5546875 C-33.68765625 -1.2346875 -33.02765625 0.0853125 -32.34765625 1.4453125 C-31.54328125 0.8265625 -30.73890625 0.2078125 -29.91015625 -0.4296875 C-21.0062704 -6.27546302 -8.65499675 -6.19478295 0 0 Z " fill="#F9FDFB" transform="translate(182.34765625,69.5546875)"/>
<path d="M0 0 C0.88494141 -0.01224609 1.76988281 -0.02449219 2.68164062 -0.03710938 C3.52791016 -0.03904297 4.37417969 -0.04097656 5.24609375 -0.04296875 C6.02525146 -0.04707764 6.80440918 -0.05118652 7.60717773 -0.05541992 C9.5625 0.1875 9.5625 0.1875 11.5625 2.1875 C11.80300903 5.04751587 11.80300903 5.04751587 11.78955078 8.74853516 C11.78984283 9.42182358 11.79013489 10.095112 11.79043579 10.7888031 C11.78904047 13.01818654 11.77347016 15.24723732 11.7578125 17.4765625 C11.75408308 19.02069923 11.75123577 20.56483833 11.74923706 22.10897827 C11.74159499 26.17625443 11.72194168 30.24338811 11.6998291 34.31060791 C11.67578914 39.18893489 11.66659241 44.06730947 11.65492249 48.94567871 C11.63551751 56.35971828 11.59719916 63.77344513 11.5625 71.1875 C23.1125 71.1875 34.6625 71.1875 46.5625 71.1875 C48.40526473 76.71579419 48.71012006 79.02272741 48.1875 84.5625 C48.07664063 85.80773437 47.96578125 87.05296875 47.8515625 88.3359375 C47.75617188 89.27695313 47.66078125 90.21796875 47.5625 91.1875 C42.53956711 92.19851208 37.74560996 92.33310843 32.6484375 92.3203125 C31.79754547 92.32126923 30.94665344 92.32222595 30.06997681 92.32321167 C28.27305019 92.32389004 26.47612108 92.32205972 24.67919922 92.31787109 C21.96706439 92.31255792 19.2550982 92.3178071 16.54296875 92.32421875 C14.78645798 92.32355713 13.0299473 92.32227425 11.2734375 92.3203125 C10.08214737 92.32334885 10.08214737 92.32334885 8.86679077 92.32644653 C2.39798867 92.30032328 -3.99889528 91.79110037 -10.4375 91.1875 C-10.46062215 79.47023212 -10.47841443 67.75296963 -10.48931217 56.03568363 C-10.49454128 50.59547688 -10.50163943 45.15528569 -10.51293945 39.71508789 C-10.52376735 34.46964298 -10.52977662 29.22421308 -10.53237724 23.97875786 C-10.53423167 21.97279054 -10.53785262 19.96682408 -10.54323006 17.96086311 C-10.55043919 15.16147176 -10.551491 12.36214321 -10.55102539 9.56274414 C-10.55462067 8.72477295 -10.55821594 7.88680176 -10.56192017 7.0234375 C-10.546387 -1.54899456 -7.57630631 0.00549406 0 0 Z " fill="#FBFDFD" transform="translate(45.4375,37.8125)"/>
<path d="M0 0 C1.12535156 0.00580078 1.12535156 0.00580078 2.2734375 0.01171875 C3.02367187 0.00785156 3.77390625 0.00398438 4.546875 0 C10.14682697 0.01010822 10.14682697 0.01010822 11.2734375 1.13671875 C11.36684184 2.76346653 11.39088921 4.39425926 11.38696289 6.02368164 C11.38688736 7.06468521 11.38681183 8.10568878 11.38673401 9.17823792 C11.38157272 10.31051315 11.37641144 11.44278839 11.37109375 12.609375 C11.3696788 13.76215439 11.36826385 14.91493378 11.36680603 16.10264587 C11.36118755 19.80152939 11.34863192 23.50035339 11.3359375 27.19921875 C11.33092488 29.69986892 11.32636156 32.20052004 11.32226562 34.70117188 C11.31121212 40.84637463 11.29445602 46.99154244 11.2734375 53.13671875 C12.5934375 53.13671875 13.9134375 53.13671875 15.2734375 53.13671875 C14.9434375 55.11671875 14.6134375 57.09671875 14.2734375 59.13671875 C12.9534375 59.13671875 11.6334375 59.13671875 10.2734375 59.13671875 C10.51791626 59.93867676 10.51791626 59.93867676 10.76733398 60.75683594 C11.3784482 63.63051725 11.385498 66.27637629 11.37109375 69.21484375 C11.36787109 70.375 11.36464844 71.53515625 11.36132812 72.73046875 C11.35294922 73.93703125 11.34457031 75.14359375 11.3359375 76.38671875 C11.33142578 77.60875 11.32691406 78.83078125 11.32226562 80.08984375 C11.31048576 83.10548967 11.29255051 86.1211104 11.2734375 89.13671875 C5.3334375 89.13671875 -0.6065625 89.13671875 -6.7265625 89.13671875 C-6.74911262 77.68021508 -6.76747706 66.22372604 -6.77837467 54.76720524 C-6.78360372 49.44806662 -6.79070177 44.12894391 -6.80200195 38.80981445 C-6.81283005 33.6810789 -6.81883917 28.55235869 -6.82143974 23.42361259 C-6.82329413 21.46230261 -6.82691501 19.50099351 -6.83229256 17.53969002 C-6.83950196 14.80256428 -6.84055349 12.06550278 -6.84008789 9.32836914 C-6.84368317 8.50909943 -6.84727844 7.68982971 -6.85098267 6.84573364 C-6.83871367 0.22492376 -6.65221275 0.0120076 0 0 Z " fill="#F9FDFD" transform="translate(205.7265625,38.86328125)"/>
<path d="M0 0 C1.73805903 1.73805903 1.14555278 4.11604345 1.16113281 6.48193359 C1.17074036 7.65339935 1.1803479 8.82486511 1.19024658 10.03182983 C1.19449646 11.30781036 1.19874634 12.58379089 1.203125 13.8984375 C1.20882507 15.19947418 1.21452515 16.50051086 1.22039795 17.8409729 C1.23091672 20.60004061 1.23675346 23.35907911 1.24023438 26.11816406 C1.24571765 29.65477267 1.26973779 33.19099597 1.29820633 36.72748375 C1.32130553 40.09696137 1.32328081 43.46638475 1.328125 46.8359375 C1.3404718 48.10786957 1.3528186 49.37980164 1.36553955 50.6902771 C1.36253845 51.86804718 1.35953735 53.04581726 1.35644531 54.25927734 C1.36009094 55.29772797 1.36373657 56.33617859 1.36749268 57.40609741 C1 60 1 60 -0.27374268 61.85195923 C-3.37477512 63.91428889 -7.06757768 63.06112769 -10.625 62.75 C-11.41390625 62.69714844 -12.2028125 62.64429688 -13.015625 62.58984375 C-18.84051774 62.15948226 -18.84051774 62.15948226 -20 61 C-20.09391296 59.09756238 -20.11743658 57.19161541 -20.11352539 55.28686523 C-20.11344986 54.0656749 -20.11337433 52.84448456 -20.11329651 51.58628845 C-20.10818911 50.24372314 -20.10297311 48.90115825 -20.09765625 47.55859375 C-20.09579199 46.19238842 -20.09436813 44.82618243 -20.09336853 43.4599762 C-20.08954394 39.85798305 -20.07971417 36.25603 -20.06866455 32.65405273 C-20.05844916 28.98096255 -20.05387064 25.30786591 -20.04882812 21.63476562 C-20.03809184 14.42315877 -20.02101614 7.211585 -20 0 C-17.60458732 -0.19585135 -15.20907226 -0.38192107 -12.8125 -0.5625 C-11.80219727 -0.64661133 -11.80219727 -0.64661133 -10.77148438 -0.73242188 C-6.99205217 -1.00896569 -3.65929 -1.04058906 0 0 Z " fill="#EEF7FC" transform="translate(120,67)"/>
<path d="M0 0 C5.28 0 10.56 0 16 0 C16.89694794 3.58779175 17.08304117 6.34618837 17 10 C17.99 10 18.98 10 20 10 C20.99 11.98 21.98 13.96 23 16 C21.02 16.99 21.02 16.99 19 18 C18.67 31.86 18.34 45.72 18 60 C12.06 60 6.12 60 0 60 C0 40.2 0 20.4 0 0 Z " fill="#F9FDFD" transform="translate(131,68)"/>
<path d="M0 0 C0.88494141 -0.01224609 1.76988281 -0.02449219 2.68164062 -0.03710938 C3.52791016 -0.03904297 4.37417969 -0.04097656 5.24609375 -0.04296875 C6.02525146 -0.04707764 6.80440918 -0.05118652 7.60717773 -0.05541992 C9.5625 0.1875 9.5625 0.1875 11.5625 2.1875 C11.80300903 5.04751587 11.80300903 5.04751587 11.78955078 8.74853516 C11.78984283 9.42182358 11.79013489 10.095112 11.79043579 10.7888031 C11.78904047 13.01818654 11.77347016 15.24723732 11.7578125 17.4765625 C11.75408308 19.02069923 11.75123577 20.56483833 11.74923706 22.10897827 C11.74159499 26.17625443 11.72194168 30.24338811 11.6998291 34.31060791 C11.67938296 38.4596565 11.67023799 42.60872807 11.66015625 46.7578125 C11.63869625 54.90110711 11.60455349 63.04428584 11.5625 71.1875 C12.61751709 71.18226318 13.67253418 71.17702637 14.75952148 71.17163086 C18.6600663 71.15358099 22.5606074 71.14206805 26.46118164 71.13256836 C28.15194316 71.1275281 29.84270029 71.12069595 31.53344727 71.11206055 C33.95850707 71.09998143 36.38350944 71.09426877 38.80859375 71.08984375 C39.94922523 71.08210182 39.94922523 71.08210182 41.11289978 71.07420349 C42.9298257 71.07400762 44.74663127 71.12552723 46.5625 71.1875 C47.5625 72.1875 47.5625 72.1875 47.625 75.25 C47.604375 76.219375 47.58375 77.18875 47.5625 78.1875 C47.2325 78.1875 46.9025 78.1875 46.5625 78.1875 C46.2325 76.5375 45.9025 74.8875 45.5625 73.1875 C33.6825 72.8575 21.8025 72.5275 9.5625 72.1875 C9.5625 49.0875 9.5625 25.9875 9.5625 2.1875 C1.6425 2.6825 1.6425 2.6825 -6.4375 3.1875 C-8.01679807 6.34609615 -7.6174634 9.74698074 -7.64282227 13.21728516 C-7.65272186 14.04663071 -7.66262146 14.87597626 -7.67282104 15.73045349 C-7.70447664 18.47912719 -7.72920949 21.22781818 -7.75390625 23.9765625 C-7.77447227 25.87942969 -7.79546865 27.78229227 -7.81687927 29.68515015 C-7.87213627 34.69926225 -7.92152953 39.71341582 -7.96972656 44.7276001 C-8.02873555 50.74068754 -8.09498345 56.75369901 -8.16002655 62.76672363 C-8.2580817 71.90693611 -8.34690653 81.04719679 -8.4375 90.1875 C9.7125 90.1875 27.8625 90.1875 46.5625 90.1875 C46.5625 86.5575 46.5625 82.9275 46.5625 79.1875 C46.8925 79.1875 47.2225 79.1875 47.5625 79.1875 C47.5625 83.1475 47.5625 87.1075 47.5625 91.1875 C42.53956711 92.19851208 37.74560996 92.33310843 32.6484375 92.3203125 C31.79754547 92.32126923 30.94665344 92.32222595 30.06997681 92.32321167 C28.27305019 92.32389004 26.47612108 92.32205972 24.67919922 92.31787109 C21.96706439 92.31255792 19.2550982 92.3178071 16.54296875 92.32421875 C14.78645798 92.32355713 13.0299473 92.32227425 11.2734375 92.3203125 C10.08214737 92.32334885 10.08214737 92.32334885 8.86679077 92.32644653 C2.39798867 92.30032328 -3.99889528 91.79110037 -10.4375 91.1875 C-10.46062215 79.47023212 -10.47841443 67.75296963 -10.48931217 56.03568363 C-10.49454128 50.59547688 -10.50163943 45.15528569 -10.51293945 39.71508789 C-10.52376735 34.46964298 -10.52977662 29.22421308 -10.53237724 23.97875786 C-10.53423167 21.97279054 -10.53785262 19.96682408 -10.54323006 17.96086311 C-10.55043919 15.16147176 -10.551491 12.36214321 -10.55102539 9.56274414 C-10.55462067 8.72477295 -10.55821594 7.88680176 -10.56192017 7.0234375 C-10.546387 -1.54899456 -7.57630631 0.00549406 0 0 Z " fill="#C5E4FC" transform="translate(45.4375,37.8125)"/>
<path d="M0 0 C5.37599486 4.70240685 7.30568974 10.87272486 7.83163452 17.81027222 C7.89843768 20.4083542 7.9036507 22.9988097 7.8828125 25.59765625 C7.88235428 26.53839493 7.88189606 27.47913361 7.88142395 28.44837952 C7.87842088 30.42075882 7.87059351 32.39313616 7.8581543 34.36547852 C7.83975138 37.39803355 7.83764588 40.43028525 7.83789062 43.46289062 C7.83298023 45.38281516 7.82715401 47.30273762 7.8203125 49.22265625 C7.81919968 50.13297104 7.81808685 51.04328583 7.81694031 51.98118591 C7.76843762 58.32921863 7.76843762 58.32921863 6.65234375 59.4453125 C-8.4161494 61.91106592 -8.4161494 61.91106592 -13.34765625 59.4453125 C-13.37738525 57.81118408 -13.37738525 57.81118408 -13.40771484 56.14404297 C-13.48404683 52.08473417 -13.57272086 48.02577097 -13.66503906 43.96679688 C-13.70321513 42.21328579 -13.73808749 40.45969942 -13.76953125 38.70605469 C-13.81542984 36.17876364 -13.87338195 33.65198572 -13.93359375 31.125 C-13.94514496 30.34663788 -13.95669617 29.56827576 -13.96859741 28.7663269 C-14.08776147 24.3264542 -14.54342134 20.58198791 -16.34765625 16.4453125 C-19.54257384 14.84785371 -22.87975014 14.93714408 -26.34765625 15.4453125 C-29.31623782 17.65271931 -30.17631416 18.93128623 -31.34765625 22.4453125 C-31.50158255 25.24691752 -31.6050367 28.02829675 -31.6640625 30.83203125 C-31.6848436 31.64904007 -31.70562469 32.46604889 -31.72703552 33.30781555 C-31.79238704 35.91606284 -31.85134898 38.52441025 -31.91015625 41.1328125 C-31.95335517 42.90170304 -31.9969699 44.67058347 -32.04101562 46.43945312 C-32.14805368 50.77463713 -32.24936169 55.10992179 -32.34765625 59.4453125 C-33.77961756 59.61655498 -35.21199227 59.78434282 -36.64453125 59.95068359 C-37.44213867 60.0444931 -38.23974609 60.13830261 -39.06152344 60.23495483 C-41.87828049 60.49413769 -44.5370549 60.36574503 -47.34765625 60.0703125 C-48.27578125 59.98007813 -49.20390625 59.88984375 -50.16015625 59.796875 C-52.34765625 59.4453125 -52.34765625 59.4453125 -53.34765625 58.4453125 C-53.44676185 56.57895462 -53.47564886 54.70883056 -53.47705078 52.83984375 C-53.48020294 51.64190186 -53.4833551 50.44395996 -53.48660278 49.2097168 C-53.48457855 47.90558838 -53.48255432 46.60145996 -53.48046875 45.2578125 C-53.48114185 43.91642235 -53.48211193 42.57503231 -53.48336792 41.23364258 C-53.48484461 38.41909629 -53.48269129 35.60458168 -53.47802734 32.79003906 C-53.47233006 29.17490619 -53.47560922 25.55984755 -53.48159981 21.94471741 C-53.48520622 19.17386308 -53.48406647 16.40302648 -53.48147202 13.63217163 C-53.48047658 11.64841667 -53.48352366 9.66466103 -53.48660278 7.6809082 C-53.48345062 6.48296631 -53.48029846 5.28502441 -53.47705078 4.05078125 C-53.47625519 2.99012451 -53.47545959 1.92946777 -53.47463989 0.83666992 C-53.34765625 -1.5546875 -53.34765625 -1.5546875 -52.34765625 -2.5546875 C-51.00498212 -2.64100624 -49.65791303 -2.66175223 -48.3125 -2.65234375 C-47.50361328 -2.64912109 -46.69472656 -2.64589844 -45.86132812 -2.64257812 C-45.01119141 -2.63419922 -44.16105469 -2.62582031 -43.28515625 -2.6171875 C-42.43115234 -2.61267578 -41.57714844 -2.60816406 -40.69726562 -2.60351562 C-38.58069962 -2.59169123 -36.4641694 -2.57375519 -34.34765625 -2.5546875 C-33.68765625 -1.2346875 -33.02765625 0.0853125 -32.34765625 1.4453125 C-31.54328125 0.8265625 -30.73890625 0.2078125 -29.91015625 -0.4296875 C-21.0062704 -6.27546302 -8.65499675 -6.19478295 0 0 Z M-33.34765625 5.4453125 C-34.00765625 3.1353125 -34.66765625 0.8253125 -35.34765625 -1.5546875 C-40.62765625 -1.5546875 -45.90765625 -1.5546875 -51.34765625 -1.5546875 C-51.34765625 18.2453125 -51.34765625 38.0453125 -51.34765625 58.4453125 C-45.40765625 58.4453125 -39.46765625 58.4453125 -33.34765625 58.4453125 C-33.01765625 44.5853125 -32.68765625 30.7253125 -32.34765625 16.4453125 C-28.10673431 14.74894372 -26.42644214 14.18681531 -22.16015625 14.2578125 C-21.30035156 14.26425781 -20.44054687 14.27070312 -19.5546875 14.27734375 C-17.34765625 14.4453125 -17.34765625 14.4453125 -15.34765625 15.4453125 C-12.91440267 19.90051225 -13.00450804 24.30166158 -12.93359375 29.24609375 C-12.9142276 30.08246872 -12.89486145 30.91884369 -12.87490845 31.78056335 C-12.81535433 34.4395442 -12.76882451 37.0985689 -12.72265625 39.7578125 C-12.68445419 41.56577359 -12.64540116 43.37371692 -12.60546875 45.18164062 C-12.50807811 49.60276966 -12.428319 54.02372025 -12.34765625 58.4453125 C-6.40765625 58.4453125 -0.46765625 58.4453125 5.65234375 58.4453125 C5.72673773 52.30723698 5.78106144 46.16942642 5.81713867 40.03100586 C5.83218534 37.9446963 5.85262757 35.85841817 5.87866211 33.7722168 C5.9152267 30.76603419 5.93211165 27.76027138 5.9453125 24.75390625 C5.96079636 23.82758896 5.97628021 22.90127167 5.99223328 21.94688416 C5.99367985 16.32650755 5.24830829 12.44860748 2.65234375 7.4453125 C1.99234375 7.4453125 1.33234375 7.4453125 0.65234375 7.4453125 C0.83796875 6.3315625 0.83796875 6.3315625 1.02734375 5.1953125 C0.92570179 2.17541469 0.92570179 2.17541469 -1.97265625 0.1953125 C-12.65764438 -5.34505172 -25.46246622 -3.67193847 -33.34765625 5.4453125 Z " fill="#BBDBF6" transform="translate(182.34765625,69.5546875)"/>
<path d="M0 0 C0.33 0 0.66 0 1 0 C1.00054477 0.6002213 1.00108953 1.2004426 1.00165081 1.81885242 C1.01661059 16.41580853 1.05902465 31.01250559 1.13209057 45.60928059 C1.16676096 52.66818518 1.19209873 59.72689409 1.19555664 66.78588867 C1.19891783 73.59417007 1.22816663 80.40194341 1.27343178 87.21007347 C1.28645361 89.8116488 1.29069803 92.41328291 1.28615379 95.01488686 C1.28128138 98.65019987 1.30719366 102.28405524 1.34057617 105.91918945 C1.33195053 107.00244003 1.32332489 108.08569061 1.31443787 109.20176697 C1.26959743 114.63689242 1.26959743 114.63689242 3.84020996 119.17126465 C8.64742102 120.43207809 13.26573856 120.39063045 18.21606445 120.34057617 C19.91428093 120.34123329 19.91428093 120.34123329 21.64680481 120.34190369 C25.38580621 120.33981507 29.12435825 120.31647973 32.86328125 120.29296875 C35.45688126 120.28737308 38.05048443 120.28310284 40.64408875 120.28010559 C46.77096956 120.2698248 52.89766516 120.24618493 59.02447623 120.21605712 C66.00146205 120.18249529 72.97845567 120.16602265 79.95550215 120.15097082 C94.30375451 120.11963472 108.65187153 120.06688538 123 120 C123.33 119.34 123.66 118.68 124 118 C125.485 118.495 125.485 118.495 127 119 C123.88977571 122.40156369 121.45037265 123.29704366 116.99060059 123.5146637 C114.91772566 123.54146596 112.84449388 123.5461117 110.77148438 123.53344727 C109.07068474 123.54637062 109.07068474 123.54637062 107.33552551 123.55955505 C103.58803473 123.58225532 99.84128921 123.57546853 96.09375 123.56640625 C93.48970314 123.57163976 90.88565817 123.57791523 88.28161621 123.58518982 C82.82422508 123.59703215 77.36704633 123.59135012 71.90966797 123.57641602 C65.60589805 123.5594886 59.3028203 123.57533959 52.99912596 123.6076389 C46.92766179 123.63756671 40.85651412 123.63951743 34.7849884 123.6301403 C32.20456543 123.62931932 29.62412818 123.63621063 27.04374695 123.65091133 C23.43815437 123.66830398 19.83404801 123.65385635 16.22851562 123.63110352 C15.16031082 123.64279572 14.09210602 123.65448792 12.99153137 123.66653442 C5.78692393 123.57389496 5.78692393 123.57389496 1.86071777 120.71055603 C-0.75833942 116.89530722 -1.12486207 113.88859952 -1.12698364 109.32518005 C-1.12980347 108.39004578 -1.13262329 107.4549115 -1.13552856 106.49143982 C-1.13350433 105.47260208 -1.1314801 104.45376434 -1.12939453 103.40405273 C-1.13114685 102.32564117 -1.13289917 101.24722961 -1.13470459 100.13613892 C-1.13910881 96.56860753 -1.13619031 93.00112565 -1.1328125 89.43359375 C-1.1334859 86.95785004 -1.13445623 84.4821064 -1.13571167 82.00636292 C-1.13718666 76.81714244 -1.13504024 71.62793918 -1.13037109 66.4387207 C-1.12467096 59.77811312 -1.12795587 53.11756258 -1.13394356 46.456954 C-1.13755196 41.34499303 -1.13640934 36.23304165 -1.13381577 31.1210804 C-1.13314743 28.6646124 -1.13397168 26.20814355 -1.13629532 23.75167656 C-1.13882671 20.32327837 -1.13497442 16.89494601 -1.12939453 13.46655273 C-1.13141876 12.44569077 -1.13344299 11.4248288 -1.13552856 10.37303162 C-1.13270874 9.44071716 -1.12988892 8.50840271 -1.12698364 7.5478363 C-1.12660662 6.73724479 -1.12622959 5.92665327 -1.12584114 5.09149837 C-1 3 -1 3 0 0 Z " fill="#C3E1FB" transform="translate(410,25)"/>
<path d="M0 0 C4.16636339 1.75913121 6.24086879 3.83363661 8 8 C8.53466869 12.81201824 8.47722168 15.00884729 6.375 19.375 C2.93562658 23.17641272 -0.02930062 23.66456181 -4.9375 24.5 C-9.48824174 23.75702176 -12.25503691 21.68501894 -15 18 C-16.46259028 13.76813979 -16.53715194 10.34287985 -14.875 6.1875 C-10.31808501 0.87109918 -6.97103438 -1.15948239 0 0 Z " fill="#F9FBFA" transform="translate(114,37)"/>
<path d="M0 0 C1.44885086 -0.01279495 1.44885086 -0.01279495 2.92697144 -0.02584839 C3.98007004 -0.02494202 5.03316864 -0.02403564 6.11817932 -0.02310181 C7.23239258 -0.02981903 8.34660583 -0.03653625 9.49458313 -0.04345703 C13.18239281 -0.06247461 16.87002091 -0.06636299 20.55787659 -0.06851196 C23.1185107 -0.07493667 25.67914406 -0.08166478 28.23977661 -0.08868408 C33.60893249 -0.10066585 38.97802053 -0.1044495 44.34718323 -0.10317993 C50.54914297 -0.10197814 56.75075492 -0.12308909 62.95262665 -0.15466726 C68.92416758 -0.18398686 74.89560238 -0.19115566 80.86721992 -0.18996048 C83.4057819 -0.19232329 85.94434635 -0.2011848 88.48286247 -0.21662521 C92.03086733 -0.23618687 95.57797296 -0.23048523 99.12599182 -0.21841431 C100.17706619 -0.22965332 101.22814056 -0.24089233 102.31106567 -0.25247192 C109.43435495 -0.19078528 109.43435495 -0.19078528 113.31558228 2.17279053 C116.05944987 5.24429513 116.31138328 6.88741239 116.30703735 10.91174316 C116.30909935 12.37992996 116.30909935 12.37992996 116.311203 13.8777771 C116.30581009 15.49401978 116.30581009 15.49401978 116.30030823 17.14291382 C116.30045425 18.27462006 116.30060028 19.40632629 116.30075073 20.57232666 C116.30005191 24.32748303 116.2922609 28.0825903 116.28443909 31.83773804 C116.2825748 34.43562798 116.28115095 37.03351827 116.28015137 39.63140869 C116.2767183 45.77956337 116.26883014 51.92769766 116.25880188 58.07584465 C116.24763351 65.07454621 116.24212846 72.07324862 116.23710644 79.07195687 C116.22664734 93.47045596 116.2090524 107.86894012 116.18678284 122.26742554 C115.85678284 122.26742554 115.52678284 122.26742554 115.18678284 122.26742554 C114.85678284 83.65742554 114.52678284 45.04742554 114.18678284 5.26742554 C112.53678284 4.93742554 110.88678284 4.60742554 109.18678284 4.26742554 C108.19678284 3.77242554 108.19678284 3.77242554 107.18678284 3.26742554 C104.20912308 3.1791367 101.25515998 3.15224551 98.27760315 3.16976929 C96.8917527 3.17195969 96.8917527 3.17195969 95.47790527 3.17419434 C93.46500874 3.17800784 91.4521156 3.18413223 89.43923187 3.19226074 C86.24275036 3.20501394 83.04631036 3.21153883 79.84980774 3.21640015 C71.89885841 3.22978395 63.94794775 3.25381768 55.99702454 3.27780151 C49.29763249 3.29764236 42.59825587 3.31324688 35.89884186 3.32336426 C32.76947272 3.32978787 29.64016718 3.34230353 26.51081848 3.35507202 C17.236931 3.37704161 8.11406533 3.30756114 -1.11503601 2.29476929 C-5.33931683 2.25195983 -7.54618749 3.70047365 -10.81321716 6.26742554 C-9.86074132 3.88623594 -9.23849475 2.53448901 -7.03591824 1.15132713 C-4.52790248 0.15396444 -2.69422455 0.01077759 0 0 Z " fill="#D3EFFE" transform="translate(421.81321716308594,18.732574462890625)"/>
<path d="M0 0 C6.6 0 13.2 0 20 0 C21.61454805 3.2290961 21.12915781 6.75858658 21.11352539 10.30517578 C21.11367142 11.16378204 21.11381744 12.02238831 21.1139679 12.90701294 C21.11326963 15.75313824 21.10548125 18.59919859 21.09765625 21.4453125 C21.09579176 23.41543543 21.09436801 25.38555882 21.09336853 27.35568237 C21.08954576 32.54739659 21.07971751 37.73908294 21.06866455 42.93078613 C21.05844528 48.225989 21.0538698 53.52119637 21.04882812 58.81640625 C21.03809504 69.21094976 21.02102148 79.60547256 21 90 C17.23958308 91.59361779 14.47718713 92.24965435 10.375 92.1875 C9.43398438 92.18105469 8.49296875 92.17460937 7.5234375 92.16796875 C5 92 5 92 2 91 C1.30062468 89.68352881 0.63270867 88.34977849 0 87 C-0.66 86.67 -1.32 86.34 -2 86 C-0.625 84.5 -0.625 84.5 1 83 C1.66 83 2.32 83 3 83 C3 84.65 3 86.3 3 88 C8.28 88.66 13.56 89.32 19 90 C19 60.96 19 31.92 19 2 C13.06 2 7.12 2 1 2 C1 12.89 1 23.78 1 35 C-1.31 34.67 -3.62 34.34 -6 34 C-6.33 32.68 -6.66 31.36 -7 30 C-8.65 29.67 -10.3 29.34 -12 29 C-10.4375 28.3125 -10.4375 28.3125 -8 28 C-5.64734065 28.95364481 -3.3116021 29.95074304 -1 31 C-1.00523682 30.23856689 -1.01047363 29.47713379 -1.01586914 28.69262695 C-1.03669525 25.23259308 -1.04967813 21.77257241 -1.0625 18.3125 C-1.07087891 17.11431641 -1.07925781 15.91613281 -1.08789062 14.68164062 C-1.09111328 13.52470703 -1.09433594 12.36777344 -1.09765625 11.17578125 C-1.10289307 10.11270752 -1.10812988 9.04963379 -1.11352539 7.9543457 C-1 5 -1 5 0 0 Z " fill="#C0E1FC" transform="translate(372,38)"/>
<path d="M0 0 C0.69480469 0.48726563 1.38960938 0.97453125 2.10546875 1.4765625 C1.44546875 1.8065625 0.78546875 2.1365625 0.10546875 2.4765625 C-0.88453125 2.1465625 -1.87453125 1.8165625 -2.89453125 1.4765625 C-5.16216699 1.33008168 -7.43485491 1.2555999 -9.70703125 1.2265625 C-10.90972656 1.20078125 -12.11242187 1.175 -13.3515625 1.1484375 C-18.59890778 1.63440994 -21.79169945 3.22862125 -25.26953125 7.1640625 C-25.80578125 7.9271875 -26.34203125 8.6903125 -26.89453125 9.4765625 C-27.88453125 9.1465625 -28.87453125 8.8165625 -29.89453125 8.4765625 C-29.89453125 6.1665625 -29.89453125 3.8565625 -29.89453125 1.4765625 C-35.17453125 1.4765625 -40.45453125 1.4765625 -45.89453125 1.4765625 C-45.72703369 2.8898584 -45.55953613 4.3031543 -45.38696289 5.75927734 C-44.81409936 11.51724163 -44.85915148 17.17500008 -45.015625 22.953125 C-45.03923599 24.00438568 -45.06284698 25.05564636 -45.08717346 26.13876343 C-45.16306667 29.45985999 -45.24740584 32.78067815 -45.33203125 36.1015625 C-45.38532657 38.36847646 -45.4380663 40.63540356 -45.49023438 42.90234375 C-45.61857977 48.42725589 -45.75449442 53.95193483 -45.89453125 59.4765625 C-40.61453125 59.4765625 -35.33453125 59.4765625 -29.89453125 59.4765625 C-29.89453125 58.8165625 -29.89453125 58.1565625 -29.89453125 57.4765625 C-29.23453125 57.4765625 -28.57453125 57.4765625 -27.89453125 57.4765625 C-27.89453125 58.4665625 -27.89453125 59.4565625 -27.89453125 60.4765625 C-34.49453125 60.4765625 -41.09453125 60.4765625 -47.89453125 60.4765625 C-47.91708622 52.67080663 -47.93544863 44.86506843 -47.94634342 37.05928898 C-47.95157127 33.4351029 -47.95866712 29.8109402 -47.9699707 26.18676758 C-47.98080309 22.69196275 -47.98680883 19.19718046 -47.98940849 15.70236015 C-47.99216676 13.71416861 -47.99997813 11.72598619 -48.00782776 9.73780823 C-48.00790329 8.53663864 -48.00797882 7.33546906 -48.00805664 6.09790039 C-48.01027725 5.03422745 -48.01249786 3.9705545 -48.01478577 2.87464905 C-47.89453125 0.4765625 -47.89453125 0.4765625 -46.89453125 -0.5234375 C-45.55185712 -0.60975624 -44.20478803 -0.63050223 -42.859375 -0.62109375 C-42.05048828 -0.61787109 -41.24160156 -0.61464844 -40.40820312 -0.61132812 C-39.55806641 -0.60294922 -38.70792969 -0.59457031 -37.83203125 -0.5859375 C-36.97802734 -0.58142578 -36.12402344 -0.57691406 -35.24414062 -0.57226562 C-33.12757462 -0.56044123 -31.0110444 -0.54250519 -28.89453125 -0.5234375 C-28.56453125 1.1265625 -28.23453125 2.7765625 -27.89453125 4.4765625 C-26.57453125 4.1465625 -25.25453125 3.8165625 -23.89453125 3.4765625 C-23.89453125 2.8165625 -23.89453125 2.1565625 -23.89453125 1.4765625 C-16.6278398 -1.943057 -7.41887707 -3.90467214 0 0 Z " fill="#BED5EF" transform="translate(506.89453125,67.5234375)"/>
<path d="M0 0 C6.27 0 12.54 0 19 0 C19 20.13 19 40.26 19 61 C13.06 61 7.12 61 1 61 C1.33 60.34 1.66 59.68 2 59 C6.95 59 11.9 59 17 59 C17 40.52 17 22.04 17 3 C12.05 2.67 7.1 2.34 2 2 C2 19.16 2 36.32 2 54 C1.01 54.495 1.01 54.495 0 55 C0 36.85 0 18.7 0 0 Z " fill="#B3D4F6" transform="translate(429,67)"/>
<path d="M0 0 C3 1 3 1 4.15917969 2.6887207 C8.48231377 13.03902076 7.43170235 24.19365083 7.25 35.1875 C7.22990589 37.30532167 7.21166027 39.42316173 7.1953125 41.54101562 C7.15496944 46.69484099 7.07663821 51.84608025 7 57 C0.4 57 -6.2 57 -13 57 C-13.04898437 54.26589844 -13.09796875 51.53179687 -13.1484375 48.71484375 C-13.20253381 46.05048412 -13.25980723 43.38621028 -13.31738281 40.72192383 C-13.35553358 38.87823954 -13.3904101 37.03448434 -13.421875 35.19067383 C-13.46782895 32.53180699 -13.5257716 29.87342247 -13.5859375 27.21484375 C-13.59748871 26.39789536 -13.60903992 25.58094696 -13.62094116 24.73924255 C-13.74628712 19.81692024 -14.44218907 15.67616578 -16 11 C-13.47411298 13.36292656 -12.11179163 14.66462511 -11 18 C-10.91481133 20.80426452 -10.8841148 23.5829635 -10.90234375 26.38671875 C-10.9037587 27.20372757 -10.90517365 28.02073639 -10.90663147 28.86250305 C-10.91222706 31.47087268 -10.92477871 34.07915634 -10.9375 36.6875 C-10.94251557 38.45637897 -10.94707838 40.22525928 -10.95117188 41.99414062 C-10.96134397 46.32948682 -10.98092021 50.66464722 -11 55 C-5.72 55 -0.44 55 5 55 C5.03168858 45.20189035 4.94942755 35.42010188 4.6875 25.625 C4.66494141 24.32433594 4.64238281 23.02367187 4.61914062 21.68359375 C4.42518224 14.764569 3.92172992 9.29411226 1 3 C0.67 2.01 0.34 1.02 0 0 Z " fill="#B8D8F5" transform="translate(512,72)"/>
<path d="M0 0 C3.17133432 1.44626785 5.1753222 3.0120901 7 6 C8.05444546 11.63469295 7.59339786 16.85716017 5 22 C2 24 2 24 -1 24 C-0.34 24.61875 0.32 25.2375 1 25.875 C3 28 3 28 3 30 C-2.94 30 -8.88 30 -15 30 C-13 28 -13 28 -10.375 27.875 C-9.59125 27.91625 -8.8075 27.9575 -8 28 C-8 26.68 -8 25.36 -8 24 C-8.804375 23.690625 -9.60875 23.38125 -10.4375 23.0625 C-13 22 -13 22 -14 21 C-14.42579972 18.6817571 -14.7397104 16.34260643 -15 14 C-15.09023438 13.3296875 -15.18046875 12.659375 -15.2734375 11.96875 C-15.50547035 9.09596229 -15.39276636 6.70607998 -13.9765625 4.16015625 C-10.06487379 -0.43229596 -5.8031212 -1.4558003 0 0 Z M-13 7 C-14.1348141 10.97184934 -14.43723824 13.01621397 -12.75 16.8125 C-10.27853707 19.90182866 -8.62394937 20.91759159 -4.6875 21.4375 C0.09673552 20.86987884 1.88132869 19.65112739 5 16 C5.81694628 11.32112585 5.72547504 8.43473018 3 4.5 C-0.34005659 1.71661951 -1.84249223 1.13304756 -6.06640625 1.484375 C-9.52799699 2.40746586 -10.98221775 4.12618892 -13 7 Z " fill="#DFF3F9" transform="translate(443,37)"/>
<path d="M0 0 C5.14288099 4.1699035 6.92693668 8.50200547 8 15 C8.22354302 19.67982457 8.1820948 24.31948923 8 29 C4.56395235 30.71802382 0.61561104 30.1196618 -3.1640625 30.09765625 C-4.07127045 30.0962413 -4.97847839 30.09482635 -5.91317749 30.09336853 C-8.81715155 30.08776096 -11.72104915 30.07520718 -14.625 30.0625 C-16.59114472 30.05748598 -18.55729065 30.0529229 -20.5234375 30.04882812 C-25.3489879 30.03778906 -30.17448097 30.02051935 -35 30 C-34.22135639 31.14842979 -33.43475216 32.29146525 -32.64477539 33.43212891 C-32.20758682 34.06921783 -31.77039825 34.70630676 -31.31996155 35.36270142 C-29.56100626 37.54453391 -28.19138255 38.02058729 -25.4375 38.375 C-24.69371094 38.48585937 -23.94992187 38.59671875 -23.18359375 38.7109375 C-22.10271484 38.85402344 -22.10271484 38.85402344 -21 39 C-19.66258846 39.31657426 -18.32766262 39.64475241 -17 40 C-20.01490557 41.00496852 -22.04181692 41.10335303 -25.1875 41.0625 C-26.08855469 41.05347656 -26.98960937 41.04445312 -27.91796875 41.03515625 C-28.60503906 41.02355469 -29.29210937 41.01195312 -30 41 C-30.33 40.34 -30.66 39.68 -31 39 C-33.01669827 37.86649466 -33.01669827 37.86649466 -35 37 C-35 36.34 -35 35.68 -35 35 C-36.98 35 -38.96 35 -41 35 C-40.75 32.625 -40.75 32.625 -40 30 C-36.28724596 27.15452021 -31.74533277 27.74803579 -27.296875 27.8046875 C-26.45908508 27.8075174 -25.62129517 27.81034729 -24.75811768 27.81326294 C-22.08859837 27.82443651 -19.4194175 27.84953579 -16.75 27.875 C-14.93750485 27.88503346 -13.12500444 27.89415867 -11.3125 27.90234375 C-6.87487007 27.9243666 -2.43749237 27.95887696 2 28 C2.495 26.515 2.495 26.515 3 25 C3.99 25 4.98 25 6 25 C5.86257648 17.0294359 5.08050842 10.88722562 1.05859375 3.92578125 C0 2 0 2 0 0 Z " fill="#CCE5F9" transform="translate(313,75)"/>
<path d="M0 0 C3.32868118 3.32868118 5.761042 5.82078368 8.3125 9.5625 C8.89902344 10.4184375 9.48554688 11.274375 10.08984375 12.15625 C12.87539372 16.30324464 15.6469721 20.45921447 18.3984375 24.62890625 C19.79472133 26.85811199 19.79472133 26.85811199 21 28 C22.55948542 28.15686249 24.12542668 28.25076639 25.69140625 28.31640625 C26.63564453 28.35830078 27.57988281 28.40019531 28.55273438 28.44335938 C30.04256836 28.50233398 30.04256836 28.50233398 31.5625 28.5625 C32.55958984 28.60568359 33.55667969 28.64886719 34.58398438 28.69335938 C37.0558415 28.79980298 39.5278031 28.90181928 42 29 C42.495 27.515 42.495 27.515 43 26 C43 27.32 43 28.64 43 30 C38.60370952 30.83898673 34.41174091 31.16315701 29.9375 31.1875 C28.75027344 31.20167969 27.56304687 31.21585938 26.33984375 31.23046875 C22.97496009 30.9982721 20.98999412 30.5060384 18 29 C16.37841797 27.09228516 16.37841797 27.09228516 14.9921875 24.7890625 C14.48042969 23.95632812 13.96867188 23.12359375 13.44140625 22.265625 C12.66603516 20.95851563 12.66603516 20.95851563 11.875 19.625 C10.83202636 17.9080655 9.78779768 16.19189262 8.7421875 14.4765625 C8.2869873 13.71424316 7.83178711 12.95192383 7.36279297 12.16650391 C6.01945078 9.95234748 6.01945078 9.95234748 4.32861328 7.84521484 C3 6 3 6 3 4 C2.34 4 1.68 4 1 4 C1 12.25 1 20.5 1 29 C0.67 29 0.34 29 0 29 C0 19.43 0 9.86 0 0 Z " fill="#BBD8EE" transform="translate(217,99)"/>
<path d="M0 0 C1.77007714 -0.08114106 3.54122098 -0.13925505 5.3125 -0.1875 C6.29863281 -0.22230469 7.28476563 -0.25710937 8.30078125 -0.29296875 C11 0 11 0 12.73046875 1.13671875 C16.44048523 6.58188139 16.40561564 12.64870859 16.625 19 C16.66367188 19.92466064 16.70234375 20.84932129 16.7421875 21.80200195 C16.99761179 28.36720441 17.06218846 34.91094567 16.9375 41.48046875 C16.82138934 43.9968583 16.82138934 43.9968583 18 46 C16.68 46 15.36 46 14 46 C13.98018066 44.87505127 13.96036133 43.75010254 13.93994141 42.59106445 C13.86371845 38.40692219 13.77502694 34.22312013 13.68261719 30.03930664 C13.64439633 28.23045582 13.6095315 26.42153079 13.578125 24.61254883 C13.53232443 22.00835698 13.47435526 19.404673 13.4140625 16.80078125 C13.40251129 15.99538406 13.39096008 15.18998688 13.37905884 14.36018372 C13.27005895 10.18876951 13.04772776 6.74931585 11 3 C8.70370006 1.85185003 6.92301914 1.69230191 4.375 1.4375 C3.55773437 1.35371094 2.74046875 1.26992187 1.8984375 1.18359375 C1.27195313 1.12300781 0.64546875 1.06242187 0 1 C0 0.67 0 0.34 0 0 Z " fill="#DFF4FD" transform="translate(156,82)"/>
<path d="M0 0 C0 0.33 0 0.66 0 1 C-2.31 1 -4.62 1 -7 1 C-7.2475 1.5775 -7.495 2.155 -7.75 2.75 C-9 5 -9 5 -11.125 6.6875 C-13.96613451 10.1915659 -13.33434502 13.65351474 -13 18 C-12.01 18.33 -11.02 18.66 -10 19 C-10 19.66 -10 20.32 -10 21 C-8.25034642 21.05429959 -6.50020213 21.09292823 -4.75 21.125 C-3.77546875 21.14820312 -2.8009375 21.17140625 -1.796875 21.1953125 C1.06627213 20.99537206 2.65155238 20.62667702 5 19 C5.33 18.01 5.66 17.02 6 16 C6.33 16.66 6.66 17.32 7 18 C4.06541011 21.81496686 1.93575795 23.39548497 -2.875 24.1875 C-6.70566716 24.37645668 -8.96592614 23.91710313 -12.0625 21.625 C-15.20215169 18.44081424 -16.05488051 15.52706091 -16.203125 11.109375 C-15.78997281 6.81894843 -13.67218257 4.710593 -10.8125 1.6875 C-6.94557514 -0.63265491 -4.45658589 -0.30214142 0 0 Z " fill="#C4E6FB" transform="translate(114,37)"/>
<path d="M0 0 C0.33 0 0.66 0 1 0 C1.00808685 0.89900528 1.01617371 1.79801056 1.02450562 2.72425842 C1.10257807 11.21341439 1.18990676 19.70241449 1.28752708 28.19136906 C1.33738612 32.55520028 1.38371678 36.91900852 1.421875 41.28295898 C1.45885948 45.49761925 1.50525451 49.71208216 1.55806351 53.9265728 C1.57653772 55.53120892 1.59167119 57.13588723 1.60334396 58.74058723 C1.6203265 60.99531207 1.6493888 63.24959178 1.68115234 65.50415039 C1.69447601 66.78544327 1.70779968 68.06673615 1.7215271 69.38685608 C2.01861686 73.24155096 2.81571503 76.3368294 4 80 C3.01 80 2.02 80 1 80 C-0.7082941 78.2917059 -0.11971926 76.13995623 -0.12442017 73.86213684 C-0.12082489 73.12702377 -0.11722961 72.39191071 -0.11352539 71.63452148 C-0.11367142 70.86384338 -0.11381744 70.09316528 -0.1139679 69.2991333 C-0.1132686 66.73975861 -0.10547545 64.1804558 -0.09765625 61.62109375 C-0.09579213 59.85132385 -0.0943682 58.08155344 -0.09336853 56.31178284 C-0.08954288 51.64448634 -0.0797122 46.97722077 -0.06866455 42.30993652 C-0.05845144 37.55102965 -0.05387113 32.79211779 -0.04882812 28.03320312 C-0.03808997 18.68878847 -0.02101299 9.3443968 0 0 Z " fill="#EBF9FC" transform="translate(411,63)"/>
<path d="M0 0 C0.69480469 0.48726563 1.38960938 0.97453125 2.10546875 1.4765625 C1.44546875 1.8065625 0.78546875 2.1365625 0.10546875 2.4765625 C-0.88453125 2.1465625 -1.87453125 1.8165625 -2.89453125 1.4765625 C-5.16216699 1.33008168 -7.43485491 1.2555999 -9.70703125 1.2265625 C-10.90972656 1.20078125 -12.11242187 1.175 -13.3515625 1.1484375 C-18.59890778 1.63440994 -21.79169945 3.22862125 -25.26953125 7.1640625 C-25.80578125 7.9271875 -26.34203125 8.6903125 -26.89453125 9.4765625 C-27.88453125 9.1465625 -28.87453125 8.8165625 -29.89453125 8.4765625 C-29.89453125 6.1665625 -29.89453125 3.8565625 -29.89453125 1.4765625 C-34.18453125 1.4765625 -38.47453125 1.4765625 -42.89453125 1.4765625 C-42.89453125 1.1465625 -42.89453125 0.8165625 -42.89453125 0.4765625 C-38.27453125 0.4765625 -33.65453125 0.4765625 -28.89453125 0.4765625 C-28.56453125 1.7965625 -28.23453125 3.1165625 -27.89453125 4.4765625 C-26.57453125 4.1465625 -25.25453125 3.8165625 -23.89453125 3.4765625 C-23.89453125 2.8165625 -23.89453125 2.1565625 -23.89453125 1.4765625 C-16.6278398 -1.943057 -7.41887707 -3.90467214 0 0 Z " fill="#B5D8F9" transform="translate(506.89453125,67.5234375)"/>
<path d="M0 0 C0.33 0 0.66 0 1 0 C1.01030746 0.65954681 1.02061493 1.31909363 1.03123474 1.99862671 C1.13915379 8.8439149 1.25376339 15.68906754 1.37231445 22.53417969 C1.41571022 25.09111707 1.4573818 27.64808431 1.49731445 30.20507812 C1.55490469 33.87378959 1.61863138 37.54235011 1.68359375 41.2109375 C1.70030624 42.35992523 1.71701874 43.50891296 1.73423767 44.69271851 C1.75418289 45.7536673 1.77412811 46.81461609 1.79467773 47.90771484 C1.81799416 49.31336197 1.81799416 49.31336197 1.84178162 50.74740601 C1.85779985 53.03513791 1.85779985 53.03513791 3 55 C2.505 57.475 2.505 57.475 2 60 C7.94 60 13.88 60 20 60 C20 60.33 20 60.66 20 61 C13.73 61 7.46 61 1 61 C1 59.68 1 58.36 1 57 C0.01 56.67 -0.98 56.34 -2 56 C-1.83923477 55.44781799 -1.67846954 54.89563599 -1.51283264 54.32672119 C-0.94578397 51.75402193 -0.83943286 49.40662003 -0.79467773 46.77246094 C-0.77473251 45.73168396 -0.75478729 44.69090698 -0.73423767 43.61859131 C-0.70916893 41.94340424 -0.70916893 41.94340424 -0.68359375 40.234375 C-0.66281265 39.08584045 -0.64203156 37.93730591 -0.62062073 36.75396729 C-0.55525007 33.08603889 -0.49629806 29.41803907 -0.4375 25.75 C-0.39430293 23.26301346 -0.35068825 20.77603413 -0.30664062 18.2890625 C-0.19958142 12.19278378 -0.09779175 6.09643405 0 0 Z " fill="#E0F0FA" transform="translate(428,68)"/>
<path d="M0 0 C6.27 0 12.54 0 19 0 C19 0.33 19 0.66 19 1 C13.06 1 7.12 1 1 1 C1 12.22 1 23.44 1 35 C-1.31 34.67 -3.62 34.34 -6 34 C-6.33 32.68 -6.66 31.36 -7 30 C-8.65 29.67 -10.3 29.34 -12 29 C-10.4375 28.3125 -10.4375 28.3125 -8 28 C-5.64734065 28.95364481 -3.3116021 29.95074304 -1 31 C-1.00523682 30.23856689 -1.01047363 29.47713379 -1.01586914 28.69262695 C-1.03669525 25.23259308 -1.04967813 21.77257241 -1.0625 18.3125 C-1.07087891 17.11431641 -1.07925781 15.91613281 -1.08789062 14.68164062 C-1.09111328 13.52470703 -1.09433594 12.36777344 -1.09765625 11.17578125 C-1.10289307 10.11270752 -1.10812988 9.04963379 -1.11352539 7.9543457 C-1 5 -1 5 0 0 Z " fill="#B7D5F1" transform="translate(372,38)"/>
<path d="M0 0 C0.33 0.66 0.66 1.32 1 2 C0.525625 3.175625 0.05125 4.35125 -0.4375 5.5625 C-2.13814776 10.35095984 -2.34156147 14.84701216 -2.375 19.875 C-2.39518188 20.99950562 -2.39518188 20.99950562 -2.41577148 22.14672852 C-2.47214955 26.29324908 -2.47214955 26.29324908 -0.4765625 29.7578125 C0.01070313 30.16773437 0.49796875 30.57765625 1 31 C1 32.32 1 33.64 1 35 C1.99 35.33 2.98 35.66 4 36 C3.01 36.99 2.02 37.98 1 39 C-3.55217078 32.47522189 -5.38999474 27.79322771 -5.375 19.8125 C-5.37556396 19.06162109 -5.37612793 18.31074219 -5.37670898 17.53710938 C-5.25851257 11.53815669 -4.47342301 4.47342301 0 0 Z " fill="#BDDFFA" transform="translate(262,79)"/>
<path d="M0 0 C2.74013545 2.41392885 3.7281269 3.8146949 4.625 7.3125 C4.625 8.3025 4.625 9.2925 4.625 10.3125 C-3.955 10.3125 -12.535 10.3125 -21.375 10.3125 C-20.38054781 5.34023904 -19.77997708 3.81205977 -16.375 0.3125 C-10.99229182 -2.8274131 -5.4134408 -2.7067204 0 0 Z M-18.375 4.3125 C-18.705 5.9625 -19.035 7.6125 -19.375 9.3125 C-12.445 9.3125 -5.515 9.3125 1.625 9.3125 C1.955 8.3225 2.285 7.3325 2.625 6.3125 C0.15448271 2.7256585 0.15448271 2.7256585 -3.375 0.3125 C-9.37315759 -0.3350887 -14.23125396 -0.6332614 -18.375 4.3125 Z " fill="#BDD6F2" transform="translate(297.375,80.6875)"/>
<path d="M0 0 C0 4.04598 -1.46801918 4.82923906 -4.25 7.6875 C-8.20006609 11.92371261 -10.73871619 15.69089889 -13 21 C-12.34 21.99 -11.68 22.98 -11 24 C-11.31595508 25.67004829 -11.65179959 27.33637583 -12 29 C-11.61666338 32.22111592 -11.61666338 32.22111592 -11 35 C-14.39914975 33.86695008 -15.05254451 32.87481525 -17 30 C-17.66 30.66 -18.32 31.32 -19 32 C-19 30.68 -19 29.36 -19 28 C-17.68 28 -16.36 28 -15 28 C-14.67 26.02 -14.34 24.04 -14 22 C-14.66 22 -15.32 22 -16 22 C-15.71125 21.443125 -15.4225 20.88625 -15.125 20.3125 C-13.95535419 18.02533496 -13.95535419 18.02533496 -13.171875 15.60546875 C-11.86811399 12.70677343 -10.43499902 11.1618104 -8.125 9 C-5.15880479 6.1524526 -2.47391282 3.29855042 0 0 Z " fill="#DCEFF8" transform="translate(235,70)"/>
<path d="M0 0 C2.86003959 1.01926943 4.99658746 2.56989882 7.453125 4.34765625 C8.34515625 4.98832031 9.2371875 5.62898438 10.15625 6.2890625 C11.16945313 7.02962891 11.16945313 7.02962891 12.203125 7.78515625 C11.873125 9.10515625 11.543125 10.42515625 11.203125 11.78515625 C11.203125 10.79515625 11.203125 9.80515625 11.203125 8.78515625 C9.223125 9.11515625 7.243125 9.44515625 5.203125 9.78515625 C4.873125 8.13515625 4.543125 6.48515625 4.203125 4.78515625 C3.213125 5.11515625 2.223125 5.44515625 1.203125 5.78515625 C0.213125 5.45515625 -0.776875 5.12515625 -1.796875 4.78515625 C-1.796875 5.44515625 -1.796875 6.10515625 -1.796875 6.78515625 C-4.106875 6.45515625 -6.416875 6.12515625 -8.796875 5.78515625 C-2.83032483 -0.3384084 -2.83032483 -0.3384084 0 0 Z " fill="#D0EEFC" transform="translate(304.796875,108.21484375)"/>
<path d="M0 0 C-1.37184347 4.06498881 -3.22068459 6.67396561 -6.125 9.8125 C-6.84945312 10.60269531 -7.57390625 11.39289063 -8.3203125 12.20703125 C-8.87460938 12.79871094 -9.42890625 13.39039062 -10 14 C-10 12 -10 10 -10 8 C-9.01 8 -8.02 8 -7 8 C-7 7.34 -7 6.68 -7 6 C-6.01 5.34 -5.02 4.68 -4 4 C-4.33 3.34 -4.66 2.68 -5 2 C-7.9124487 1.60578491 -7.9124487 1.60578491 -11.3125 1.5 C-15.40536778 1.31666886 -18.46760616 1.1630461 -22 -1 C-19.45886142 -1.22333047 -16.91827416 -1.42902091 -14.375 -1.625 C-13.66214844 -1.68945312 -12.94929687 -1.75390625 -12.21484375 -1.8203125 C-7.65511601 -2.15497142 -4.31311418 -1.78239103 0 0 Z " fill="#C4E3F8" transform="translate(261,68)"/>
<path d="M0 0 C2.64590014 -0.02684679 5.29153096 -0.04676357 7.9375 -0.0625 C8.69224609 -0.07087891 9.44699219 -0.07925781 10.22460938 -0.08789062 C12.14994313 -0.09652441 14.07535581 -0.05224333 16 0 C17 1 17 1 17.12025452 2.86659241 C17.1169236 4.08903908 17.1169236 4.08903908 17.11352539 5.33618164 C17.11344986 6.2570607 17.11337433 7.17793976 17.11329651 8.12672424 C17.10813522 9.12775681 17.10297394 10.12878937 17.09765625 11.16015625 C17.0962413 12.17975937 17.09482635 13.19936249 17.09336853 14.24986267 C17.08775097 17.52077107 17.0751955 20.79161213 17.0625 24.0625 C17.05748726 26.27408756 17.05292396 28.48567618 17.04882812 30.69726562 C17.03777584 36.13153357 17.02102063 41.56576197 17 47 C16.67 47 16.34 47 16 47 C15.67 32.15 15.34 17.3 15 2 C10.05 1.67 5.1 1.34 0 1 C0 0.67 0 0.34 0 0 Z " fill="#E5F8FE" transform="translate(200,39)"/>
<path d="M0 0 C11.22 0 22.44 0 34 0 C34.495 1.485 34.495 1.485 35 3 C30.97964506 2.88107948 26.9594942 2.75679145 22.93945312 2.62768555 C21.57393824 2.58456912 20.20837748 2.54287932 18.84277344 2.50268555 C16.8716281 2.44441446 14.90065332 2.38046264 12.9296875 2.31640625 C11.15440674 2.26141968 11.15440674 2.26141968 9.34326172 2.20532227 C6.16442281 2.01009782 3.12819551 1.58523498 0 1 C0 0.67 0 0.34 0 0 Z " fill="#E0F5FE" transform="translate(57,110)"/>
<path d="M0 0 C3.12856221 0.34761802 4.06125697 1.06291256 6.3125 3.375 C10.44518254 7.41157364 14.18267415 8.91346067 19.9375 9.1875 C20.948125 9.125625 21.95875 9.06375 23 9 C19.68629 11.20914 18.6553979 11.22481553 14.8125 11.125 C13.91144531 11.10695313 13.01039063 11.08890625 12.08203125 11.0703125 C11.39496094 11.04710938 10.70789063 11.02390625 10 11 C9.67 10.34 9.34 9.68 9 9 C6.98330173 7.86649466 6.98330173 7.86649466 5 7 C5 6.34 5 5.68 5 5 C3.02 5 1.04 5 -1 5 C-0.67 3.35 -0.34 1.7 0 0 Z " fill="#E8F8F6" transform="translate(273,105)"/>
<path d="M0 0 C3.41197583 3.41197583 6.00860585 6.14720841 8.6875 10 C9.26886719 10.825 9.85023438 11.65 10.44921875 12.5 C11.96346799 14.94110709 13.02294257 17.30466915 14 20 C9.50683005 15.90328622 6.02186027 11.28565938 3 6 C3 5.34 3 4.68 3 4 C2.34 4 1.68 4 1 4 C1 12.25 1 20.5 1 29 C0.67 29 0.34 29 0 29 C0 19.43 0 9.86 0 0 Z " fill="#C2DEF5" transform="translate(217,99)"/>
<path d="M0 0 C2.75569447 2.18159145 4.43588747 3.87177494 6 7 C6.06950541 8.54023996 6.08452357 10.08334988 6.0625 11.625 C6.05347656 12.44226562 6.04445313 13.25953125 6.03515625 14.1015625 C6.02355469 14.72804688 6.01195312 15.35453125 6 16 C5.67 16 5.34 16 5 16 C4.89042969 15.31292969 4.78085937 14.62585937 4.66796875 13.91796875 C4.50941406 13.01691406 4.35085938 12.11585937 4.1875 11.1875 C4.03667969 10.29417969 3.88585937 9.40085937 3.73046875 8.48046875 C2.92659722 5.75074456 2.29668071 4.65275154 0 3 C-5.52660173 2.34245453 -5.52660173 2.34245453 -10.375 4.5625 C-12.39014684 7.58522026 -13.18718714 10.47781093 -14 14 C-14.33 14 -14.66 14 -15 14 C-15.69576808 7.27424192 -15.69576808 7.27424192 -13.98046875 4.1328125 C-10.07152116 -0.36839988 -5.77177741 -1.45623113 0 0 Z " fill="#C0DBF9" transform="translate(443,37)"/>
<path d="M0 0 C0.66 0.33 1.32 0.66 2 1 C-6.15903004 8.53141235 -14.64797052 11.19979429 -25.6171875 11.1015625 C-28.16203201 10.99309372 -30.53721077 10.65674379 -33 10 C-33 9.67 -33 9.34 -33 9 C-31.81664062 8.97421875 -30.63328125 8.9484375 -29.4140625 8.921875 C-17.74253405 8.55703559 -17.74253405 8.55703559 -6.75 4.83984375 C-5 4 -5 4 -3 4 C-3 3.01 -3 2.02 -3 1 C-2.01 0.67 -1.02 0.34 0 0 Z " fill="#B9DAF3" transform="translate(314,120)"/>
<path d="M0 0 C-0.556875 0.20625 -1.11375 0.4125 -1.6875 0.625 C-4.99603232 2.59223543 -6.7155628 4.89062714 -9 8 C-9 8.99 -9 9.98 -9 11 C-9.66 11 -10.32 11 -11 11 C-11 16.61 -11 22.22 -11 28 C-11.33 28 -11.66 28 -12 28 C-12.14528105 24.25040783 -12.23406281 20.50153895 -12.3125 16.75 C-12.35439453 15.68652344 -12.39628906 14.62304688 -12.43945312 13.52734375 C-12.56364209 5.62892527 -12.56364209 5.62892527 -9.60546875 2.328125 C-5.989647 0.48497748 -4.07574955 -0.10725657 0 0 Z " fill="#E8F9FC" transform="translate(423,20)"/>
<path d="M0 0 C0.33 0 0.66 0 1 0 C1.06058594 0.71027344 1.12117188 1.42054687 1.18359375 2.15234375 C1.26738281 3.07144531 1.35117187 3.99054687 1.4375 4.9375 C1.51871094 5.85402344 1.59992188 6.77054688 1.68359375 7.71484375 C1.76044976 9.96159732 1.76044976 9.96159732 3 11 C3.56334799 16.98721 2.6678216 22.26686324 1 28 C0.01 27.67 -0.98 27.34 -2 27 C-1.34 27 -0.68 27 0 27 C0 18.09 0 9.18 0 0 Z " fill="#E7F7FB" transform="translate(373,46)"/>
<path d="M0 0 C3.24889654 0.23206404 4.05564244 1.06337056 6.25 3.5625 C8.43181699 7.84821194 8.3267114 10.26268466 8 15 C7.01 15.33 6.02 15.66 5 16 C4.95101562 15.36191406 4.90203125 14.72382812 4.8515625 14.06640625 C4.77679688 13.24011719 4.70203125 12.41382813 4.625 11.5625 C4.52058594 10.32693359 4.52058594 10.32693359 4.4140625 9.06640625 C4.20910156 8.04353516 4.20910156 8.04353516 4 7 C3.34 6.67 2.68 6.34 2 6 C1.27306096 4.02111039 0.60183749 2.02045442 0 0 Z " fill="#D7EEFC" transform="translate(114,38)"/>
<path d="M0 0 C0.33 0.99 0.66 1.98 1 3 C-1.88653664 4.03915319 -3.28199599 3.94255637 -6.375 3.3125 C-10.92381709 2.9203606 -12.51909378 4.198295 -16 7 C-15.1875 5.0625 -15.1875 5.0625 -14 3 C-13.01 2.67 -12.02 2.34 -11 2 C-11 1.34 -11 0.68 -11 0 C-7.18243176 -1.37432457 -3.92744671 -0.67975039 0 0 Z " fill="#DEF3F9" transform="translate(496,83)"/>
<path d="M0 0 C1.485 0.99 1.485 0.99 3 2 C3 2.66 3 3.32 3 4 C9.71724792 6.73809264 9.71724792 6.73809264 16.625 5.6875 C17.40875 5.130625 18.1925 4.57375 19 4 C19 6 19 6 17.5625 7.625 C13.74254581 9.67473152 10.24375611 9.68081649 6 9 C2.56196792 7.06610695 1.30723538 6.0398736 0.1875 2.25 C0.125625 1.5075 0.06375 0.765 0 0 Z " fill="#E3F6FC" transform="translate(100,50)"/>
<path d="M0 0 C0.33 0.66 0.66 1.32 1 2 C1.99 2.33 2.98 2.66 4 3 C4 3.66 4 4.32 4 5 C5.74965358 5.05429959 7.49979787 5.09292823 9.25 5.125 C10.22453125 5.14820313 11.1990625 5.17140625 12.203125 5.1953125 C15.06627213 4.99537206 16.65155238 4.62667702 19 3 C19.33 2.01 19.66 1.02 20 0 C20.33 0.66 20.66 1.32 21 2 C18.03218065 5.85816515 15.93685722 7.38245086 11.0625 8.125 C7.38902242 8.33365792 5.29091981 8.03563786 2.375 5.75 C0 3 0 3 0 0 Z " fill="#A2CBEF" transform="translate(100,53)"/>
<path d="M0 0 C0.66 0.33 1.32 0.66 2 1 C0.89978516 2.06927734 0.89978516 2.06927734 -0.22265625 3.16015625 C-1.17031543 4.12658096 -2.11687297 5.09408678 -3.0625 6.0625 C-3.54783203 6.52849609 -4.03316406 6.99449219 -4.53320312 7.47460938 C-6.15477822 9.08421519 -6.15477822 9.08421519 -8 12 C-7.9436207 15.78362935 -7.9436207 15.78362935 -7 19 C-8.32 18.67 -9.64 18.34 -11 18 C-11 15.69 -11 13.38 -11 11 C-10.34 11 -9.68 11 -9 11 C-9 10.34 -9 9.68 -9 9 C-7.33784732 7.66104368 -5.67036393 6.32869858 -4 5 C-2.62631655 3.36643049 -1.28062485 1.7074998 0 0 Z " fill="#C3E0F5" transform="translate(248,82)"/>
<path d="M0 0 C5.14288099 4.1699035 6.92693668 8.50200547 8 15 C8.22354302 19.67982457 8.1820948 24.31948923 8 29 C7.67 29 7.34 29 7 29 C6.91363281 27.88882813 6.82726562 26.77765625 6.73828125 25.6328125 C6.01416961 17.60167407 5.22218267 10.85992051 1.0234375 3.78515625 C0 2 0 2 0 0 Z " fill="#BCE0F9" transform="translate(313,75)"/>
<path d="M0 0 C-1.25 2.9375 -1.25 2.9375 -3 6 C-5.1875 6.875 -5.1875 6.875 -7 7 C-7.66 5.02 -8.32 3.04 -9 1 C-3.375 -1.125 -3.375 -1.125 0 0 Z " fill="#F2FBF3" transform="translate(486,65)"/>
<path d="M0 0 C0.66 0 1.32 0 2 0 C2 6.66666667 2 13.33333333 2 20 C1.34 20.33 0.68 20.66 0 21 C-0.99 20.34 -1.98 19.68 -3 19 C-2.50886719 18.49984375 -2.01773437 17.9996875 -1.51171875 17.484375 C0.54344718 14.106893 0.32839999 11.07236377 0.1875 7.25 C0.17396484 6.55261719 0.16042969 5.85523437 0.14648438 5.13671875 C0.1112945 3.42414459 0.05749155 1.71197059 0 0 Z " fill="#E7F5FA" transform="translate(373,90)"/>
<path d="M0 0 C0.66 0.33 1.32 0.66 2 1 C2.05449838 2.72880982 2.09301688 4.45812712 2.125 6.1875 C2.14820313 7.15042969 2.17140625 8.11335938 2.1953125 9.10546875 C1.98709306 12.19128085 1.42732096 14.26351379 0 17 C-3 19 -3 19 -5.1875 18.625 C-6.0846875 18.315625 -6.0846875 18.315625 -7 18 C-5.824375 17.1028125 -5.824375 17.1028125 -4.625 16.1875 C-1.85425677 14.08914751 -1.85425677 14.08914751 0 11 C0.24187651 8.25481679 0.24187651 8.25481679 0.125 5.3125 C0.10695313 4.31863281 0.08890625 3.32476562 0.0703125 2.30078125 C0.04710937 1.54152344 0.02390625 0.78226563 0 0 Z " fill="#E3F2FA" transform="translate(448,42)"/>
<path d="M0 0 C2.93200474 2.85276137 5.64315404 5.65079784 8 9 C7.67 9.66 7.34 10.32 7 11 C4.525 10.01 4.525 10.01 2 9 C2 8.34 2 7.68 2 7 C1.34 7 0.68 7 0 7 C0 6.34 0 5.68 0 5 C0.66 5 1.32 5 2 5 C1.34 3.35 0.68 1.7 0 0 Z " fill="#CDECFB" transform="translate(248,110)"/>
<path d="M0 0 C0.845625 0.639375 1.69125 1.27875 2.5625 1.9375 C5.93509397 4.20184205 8.95145469 4.62513469 13 5 C14.33917261 5.30903983 15.67653254 5.62942911 17 6 C12.67256377 7.44247874 8.51709057 7.68015112 4 7 C1.375 4.625 1.375 4.625 0 2 C0 1.34 0 0.68 0 0 Z " fill="#BCE3F9" transform="translate(279,109)"/>
<path d="M0 0 C0 1.65 0 3.3 0 5 C3.3 5.33 6.6 5.66 10 6 C10 6.33 10 6.66 10 7 C8.39667209 7.08121924 6.79215974 7.13929134 5.1875 7.1875 C4.29417969 7.22230469 3.40085937 7.25710937 2.48046875 7.29296875 C-0.46433437 6.94515736 -1.13954408 6.21802102 -3 4 C-3.66 3.67 -4.32 3.34 -5 3 C-2.25 0 -2.25 0 0 0 Z " fill="#D5E5F0" transform="translate(375,121)"/>
<path d="M0 0 C0.99 0.33 1.98 0.66 3 1 C3 1.66 3 2.32 3 3 C2.34 3 1.68 3 1 3 C1 6.63 1 10.26 1 14 C0.01 14 -0.98 14 -2 14 C-1.34 9.38 -0.68 4.76 0 0 Z " fill="#EAFAFE" transform="translate(91,114)"/>
<path d="M0 0 C0.99 0.33 1.98 0.66 3 1 C3 2.32 3 3.64 3 5 C3.99 5.33 4.98 5.66 6 6 C5.01 6.99 4.02 7.98 3 9 C0.90250005 6.64031256 0.03094296 5.45383006 -0.1875 2.25 C-0.125625 1.5075 -0.06375 0.765 0 0 Z " fill="#D7EEFB" transform="translate(260,109)"/>
<path d="M0 0 C4.1567916 1.80881308 5.60448293 4.16717269 8 8 C8.66 8.66 9.32 9.32 10 10 C7.67578125 9.78515625 7.67578125 9.78515625 5 9 C3.41796875 6.93359375 3.41796875 6.93359375 2.1875 4.4375 C1.76855469 3.61121094 1.34960938 2.78492187 0.91796875 1.93359375 C0.61503906 1.29550781 0.31210938 0.65742187 0 0 Z " fill="#ACD3EE" transform="translate(230,119)"/>
<path d="M0 0 C1.32 0.66 2.64 1.32 4 2 C3.34 2.66 2.68 3.32 2 4 C-0.75589777 3.98252073 -3.38786676 3.86136729 -6.125 3.625 C-6.87910156 3.56828125 -7.63320312 3.5115625 -8.41015625 3.453125 C-10.27418096 3.3115535 -12.13721137 3.15700041 -14 3 C-14 2.67 -14 2.34 -14 2 C-9.38 2 -4.76 2 0 2 C0 1.34 0 0.68 0 0 Z " fill="#E1F4FD" transform="translate(115,66)"/>
<path d="M0 0 C2.31 0.33 4.62 0.66 7 1 C7 1.99 7 2.98 7 4 C7.99 4.33 8.98 4.66 10 5 C9.34 5.66 8.68 6.32 8 7 C6.5 5.625 6.5 5.625 5 4 C5 3.34 5 2.68 5 2 C3.35 1.67 1.7 1.34 0 1 C0 0.67 0 0.34 0 0 Z " fill="#CDE7F9" transform="translate(360,66)"/>
<path d="M0 0 C4.99911924 0.47610659 7.97832683 2.03162219 12 5 C11.01 5.33 10.02 5.66 9 6 C6 4.1875 6 4.1875 3 2 C2.01 1.34 1.02 0.68 0 0 Z " fill="#B7DCFB" transform="translate(172,66)"/>
<path d="M0 0 C0.66 1.32 1.32 2.64 2 4 C0.02 4.66 -1.96 5.32 -4 6 C-4.66 5.34 -5.32 4.68 -6 4 C-5.38125 3.896875 -4.7625 3.79375 -4.125 3.6875 C-1.63473516 3.12474627 -1.63473516 3.12474627 0 0 Z " fill="#EAFAFA" transform="translate(309,120)"/>
<path d="M0 0 C0.33 0 0.66 0 1 0 C1.33 3.3 1.66 6.6 2 10 C0.68 9.01 -0.64 8.02 -2 7 C-1.34 4.69 -0.68 2.38 0 0 Z " fill="#E2EFFB" transform="translate(427,45)"/>
</svg>
