<?xml version="1.0" encoding="UTF-8"?>
<svg version="1.1" xmlns="http://www.w3.org/2000/svg" width="425" height="120">
<path d="M0 0 C9.80210258 7.42849926 16.32223056 17.11133509 18.734375 29.30859375 C20.41276283 41.97436585 16.87708532 53.24608921 9.43359375 63.4765625 C4.42884972 69.63385132 -1.58034575 74.03378668 -8.88671875 77.16796875 C-11.75 77.3515625 -11.75 77.3515625 -13.88671875 77.16796875 C-14.99654231 74.94832163 -15.06501043 73.60313618 -15.16796875 71.140625 C-15.22404297 69.95243164 -15.22404297 69.95243164 -15.28125 68.74023438 C-15.33345703 67.49790039 -15.33345703 67.49790039 -15.38671875 66.23046875 C-15.45571904 64.59618411 -15.52848433 62.962053 -15.60546875 61.328125 C-15.63576172 60.60246338 -15.66605469 59.87680176 -15.69726562 59.12915039 C-15.8335518 56.9548981 -15.8335518 56.9548981 -16.88671875 54.16796875 C-16.22285156 53.9978125 -15.55898437 53.82765625 -14.875 53.65234375 C-8.41962319 51.88064909 -4.11679954 50.24394225 -0.07421875 44.66796875 C1.65638906 39.56722993 1.84541759 34.50107952 1.11328125 29.16796875 C0.36498047 27.94207031 0.36498047 27.94207031 -0.3984375 26.69140625 C-2.25883134 23.53703768 -2.19385227 21.48435219 -2.07421875 17.85546875 C-2.03361328 16.25251953 -2.03361328 16.25251953 -1.9921875 14.6171875 C-1.95738281 13.80894531 -1.92257813 13.00070313 -1.88671875 12.16796875 C-2.49 12.37292969 -3.09328125 12.57789062 -3.71484375 12.7890625 C-4.5140625 13.05847656 -5.31328125 13.32789062 -6.13671875 13.60546875 C-6.925625 13.87230469 -7.71453125 14.13914062 -8.52734375 14.4140625 C-14.19525966 16.22516808 -19.33263639 16.38548063 -25.26171875 16.41796875 C-26.195 16.43859375 -27.12828125 16.45921875 -28.08984375 16.48046875 C-33.57111038 16.51152409 -37.055576 15.98969814 -41.88671875 13.16796875 C-44.6224446 12.46889461 -44.6224446 12.46889461 -46.88671875 12.16796875 C-46.83451172 13.34552734 -46.83451172 13.34552734 -46.78125 14.546875 C-46.53288587 24.18576858 -46.53288587 24.18576858 -48.38671875 27.98046875 C-50.8329683 33.17874905 -50.23957297 37.47743202 -48.69921875 42.85546875 C-47.18813973 46.93815474 -45.79856932 49.00396631 -41.88671875 51.16796875 C-38.59084549 52.33062343 -35.27145079 53.30042578 -31.88671875 54.16796875 C-32.48533617 56.51968006 -33.15596227 58.85390655 -33.88671875 61.16796875 C-36.95101651 62.70011763 -39.50328295 62.39735423 -42.88671875 62.16796875 C-45.96841515 60.7983259 -47.46242346 59.87512757 -49.19921875 56.98046875 C-49.42609375 56.38234375 -49.65296875 55.78421875 -49.88671875 55.16796875 C-50.54671875 55.16796875 -51.20671875 55.16796875 -51.88671875 55.16796875 C-51.45359375 55.72484375 -51.02046875 56.28171875 -50.57421875 56.85546875 C-48.85199757 59.21554962 -47.37897259 61.65826911 -45.88671875 64.16796875 C-44.22329038 65.83139712 -42.10414785 65.52844972 -39.82421875 65.73046875 C-38.19484375 65.87484375 -36.56546875 66.01921875 -34.88671875 66.16796875 C-34.88671875 69.79796875 -34.88671875 73.42796875 -34.88671875 77.16796875 C-43.02144337 76.98719709 -49.37187782 72.4389713 -55.1953125 67.01953125 C-66.08587742 55.28489608 -67.51376378 44.82024717 -67.01855469 29.38623047 C-66.38550179 18.73452927 -60.72662997 10.66720035 -53.26171875 3.41796875 C-38.219052 -9.6190091 -16.62488584 -10.55084094 0 0 Z " fill="#F8F9FB" transform="translate(109.88671875,20.83203125)"/>
<path d="M0 0 C-0.9375 8.03571429 -0.9375 8.03571429 -2 12 C-3.07378906 11.89300781 -4.14757812 11.78601562 -5.25390625 11.67578125 C-6.6900255 11.55375805 -8.12622839 11.43271657 -9.5625 11.3125 C-10.61920898 11.20325195 -10.61920898 11.20325195 -11.69726562 11.09179688 C-16.84193682 10.68875812 -20.44894106 11.27161485 -25 14 C-28.49141457 18.77136288 -28.42894739 23.38452513 -28.3125 29.0625 C-28.31572266 29.85205078 -28.31894531 30.64160156 -28.32226562 31.45507812 C-28.27513449 36.56666374 -28.03141311 40.89334937 -24.3125 44.75 C-20.09556595 47.02942381 -15.71053484 47 -11 47 C-11 43.37 -11 39.74 -11 36 C-13.97 36 -16.94 36 -20 36 C-20 32.04 -20 28.08 -20 24 C-11.85873118 22.50466491 -5.85769904 23.40948673 3 24 C3 34.56 3 45.12 3 56 C-8.60247242 60.64098897 -8.60247242 60.64098897 -16.125 60.4375 C-16.87136719 60.44458984 -17.61773437 60.45167969 -18.38671875 60.45898438 C-24.64401106 60.38824977 -30.27274489 59.22042009 -35.20703125 55.203125 C-43.70335872 44.86696019 -44.52095244 35.07864816 -44 22 C-43.19161977 14.12406692 -40.1404612 6.1860546 -33.875 1.0625 C-25.26113279 -4.27957645 -8.78304548 -5.37108545 0 0 Z " fill="#F9FAFB" transform="translate(195,27)"/>
<path d="M0 0 C1.093125 0.00257812 2.18625 0.00515625 3.3125 0.0078125 C4.405625 0.00523438 5.49875 0.00265625 6.625 0 C9.3125 0.1328125 9.3125 0.1328125 10.3125 1.1328125 C10.39935603 2.69453995 10.41952219 4.26010594 10.41015625 5.82421875 C10.40693359 6.76845703 10.40371094 7.71269531 10.40039062 8.68554688 C10.39201172 9.67876953 10.38363281 10.67199219 10.375 11.6953125 C10.37048828 12.69240234 10.36597656 13.68949219 10.36132812 14.71679688 C10.34950023 17.18882737 10.33156415 19.66082722 10.3125 22.1328125 C15.2625 21.8028125 20.2125 21.4728125 25.3125 21.1328125 C25.6425 14.2028125 25.9725 7.2728125 26.3125 0.1328125 C35.58984375 0.03515625 35.58984375 0.03515625 38.3125 0.1328125 C39.3125 1.1328125 39.3125 1.1328125 39.43275452 3.49293518 C39.43053391 4.53884323 39.42831329 5.58475128 39.42602539 6.66235352 C39.42594986 7.84350235 39.42587433 9.02465118 39.42579651 10.24159241 C39.42063522 11.5269841 39.41547394 12.81237579 39.41015625 14.13671875 C39.4087413 15.44487045 39.40732635 16.75302216 39.40586853 18.10081482 C39.4020441 21.58444109 39.39221446 25.06802589 39.38116455 28.55163574 C39.37094882 32.10407958 39.36637056 35.65653009 39.36132812 39.20898438 C39.35059212 46.18361254 39.33299593 53.15820626 39.3125 60.1328125 C35.0225 60.1328125 30.7325 60.1328125 26.3125 60.1328125 C25.01304423 57.53390096 25.2901923 55.80614594 25.43359375 52.90625 C25.48193359 51.875 25.53027344 50.84375 25.58007812 49.78125 C25.63615234 48.70101562 25.69222656 47.62078125 25.75 46.5078125 C25.80220703 45.41984375 25.85441406 44.331875 25.90820312 43.2109375 C26.03812597 40.51799116 26.1746921 37.82536685 26.3125 35.1328125 C21.0325 35.1328125 15.7525 35.1328125 10.3125 35.1328125 C10.3125 43.3828125 10.3125 51.6328125 10.3125 60.1328125 C7.47693413 61.55059543 5.3216294 60.99538872 2.1875 60.6953125 C1.09179688 60.59347656 -0.00390625 60.49164063 -1.1328125 60.38671875 C-1.97585937 60.30292969 -2.81890625 60.21914062 -3.6875 60.1328125 C-3.71062821 52.45744623 -3.72841753 44.78208354 -3.73931217 37.10669041 C-3.74453995 33.54303828 -3.75163569 29.97940993 -3.76293945 26.41577148 C-3.77584176 22.32275153 -3.78072906 18.2297567 -3.78515625 14.13671875 C-3.79031754 12.85132706 -3.79547882 11.56593536 -3.80079651 10.24159241 C-3.80087204 9.06044357 -3.80094757 7.87929474 -3.80102539 6.66235352 C-3.803246 5.61644547 -3.80546661 4.57053741 -3.80775452 3.49293518 C-3.63558683 0.11396145 -3.40600376 0.16831995 0 0 Z " fill="#F8FAFC" transform="translate(255.6875,25.8671875)"/>
<path d="M0 0 C1.093125 0.00257812 2.18625 0.00515625 3.3125 0.0078125 C4.405625 0.00523438 5.49875 0.00265625 6.625 0 C9.3125 0.1328125 9.3125 0.1328125 10.3125 1.1328125 C10.46832303 2.47296471 10.56294142 3.82040153 10.62890625 5.16796875 C10.69174805 6.38129883 10.69174805 6.38129883 10.75585938 7.61914062 C10.79517578 8.46927734 10.83449219 9.31941406 10.875 10.1953125 C10.91818359 11.04931641 10.96136719 11.90332031 11.00585938 12.78320312 C11.11226702 14.89953287 11.21291731 17.01615063 11.3125 19.1328125 C11.6425 18.8028125 11.9725 18.4728125 12.3125 18.1328125 C23.79153958 16.91720375 23.79153958 16.91720375 28.7265625 19.296875 C32.71773919 22.60870246 35.01929716 26.00472674 35.51513672 31.29467773 C35.6180387 33.86901909 35.63443012 36.43150409 35.625 39.0078125 C35.64111328 39.88050781 35.65722656 40.75320312 35.67382812 41.65234375 C35.67885355 48.3361616 34.73725369 53.25341749 30.3125 58.5078125 C26.85317773 61.31851185 23.74135957 61.29348046 19.4375 61.3203125 C18.40882813 61.33449219 17.38015625 61.34867188 16.3203125 61.36328125 C13.25786512 61.12862619 11.08001139 60.42465822 8.3125 59.1328125 C7.8175 59.6278125 7.8175 59.6278125 7.3125 60.1328125 C5.45962498 60.20507752 3.60416122 60.2166247 1.75 60.1953125 C0.73808594 60.18628906 -0.27382813 60.17726562 -1.31640625 60.16796875 C-2.09886719 60.15636719 -2.88132812 60.14476562 -3.6875 60.1328125 C-3.71062821 52.45744623 -3.72841753 44.78208354 -3.73931217 37.10669041 C-3.74453995 33.54303828 -3.75163569 29.97940993 -3.76293945 26.41577148 C-3.77584176 22.32275153 -3.78072906 18.2297567 -3.78515625 14.13671875 C-3.79031754 12.85132706 -3.79547882 11.56593536 -3.80079651 10.24159241 C-3.80087204 9.06044357 -3.80094757 7.87929474 -3.80102539 6.66235352 C-3.803246 5.61644547 -3.80546661 4.57053741 -3.80775452 3.49293518 C-3.63558683 0.11396145 -3.40600376 0.16831995 0 0 Z M10.3125 30.1328125 C10.3125 36.4028125 10.3125 42.6728125 10.3125 49.1328125 C18.54191363 51.10060737 18.54191363 51.10060737 21.34765625 48.56640625 C23.21324853 43.86088403 22.92171218 39.09450727 22.3125 34.1328125 C20.88895266 30.82215205 20.88895266 30.82215205 18.3125 29.1328125 C15.12876968 28.66690075 13.37940775 29.11050992 10.3125 30.1328125 Z " fill="#F9FAFC" transform="translate(345.6875,25.8671875)"/>
<path d="M0 0 C4.29 0 8.58 0 13 0 C13.06058594 1.91425781 13.12117188 3.82851563 13.18359375 5.80078125 C13.26799535 8.30469539 13.35264354 10.80860123 13.4375 13.3125 C13.47681641 14.57513672 13.51613281 15.83777344 13.55664062 17.13867188 C13.61948242 18.95141602 13.61948242 18.95141602 13.68359375 20.80078125 C13.72025146 21.91622314 13.75690918 23.03166504 13.79467773 24.1809082 C13.88931209 27.07873571 13.88931209 27.07873571 15 30 C17.97 30 20.94 30 24 30 C23.99476318 29.12674072 23.98952637 28.25348145 23.98413086 27.35375977 C23.96712249 24.12410727 23.95456631 20.89447755 23.94506836 17.66479492 C23.9400292 16.26504772 23.93319784 14.8653058 23.92456055 13.46557617 C23.9124768 11.45754223 23.90730193 9.44947043 23.90234375 7.44140625 C23.89710693 6.23170166 23.89187012 5.02199707 23.88647461 3.77563477 C24 1 24 1 25 0 C26.99799572 -0.09873816 28.99957158 -0.12971799 31 -0.125 C32.093125 -0.12757812 33.18625 -0.13015625 34.3125 -0.1328125 C37 0 37 0 38 1 C38.10023458 2.93150142 38.13081373 4.8666818 38.1328125 6.80078125 C38.13474609 8.6096582 38.13474609 8.6096582 38.13671875 10.45507812 C38.13285156 11.72802734 38.12898438 13.00097656 38.125 14.3125 C38.13080078 16.15811523 38.13080078 16.15811523 38.13671875 18.04101562 C38.12857988 25.74445996 37.7791066 33.33582719 37 41 C33 41 29 41 25 41 C24.41089844 41.15984375 23.82179688 41.3196875 23.21484375 41.484375 C20.30428919 42.16196442 17.54908236 42.20856764 14.5625 42.25 C12.89380859 42.28867188 12.89380859 42.28867188 11.19140625 42.328125 C7.57556756 41.9563619 5.84230864 41.24264489 3 39 C-0.20229914 34.82574627 -0.40255899 31.15532145 -0.29296875 26.07421875 C-0.28872391 25.32662796 -0.28447906 24.57903717 -0.28010559 23.80879211 C-0.26339056 21.43465268 -0.22575347 19.06138033 -0.1875 16.6875 C-0.17244381 15.07227794 -0.15875703 13.45704249 -0.14648438 11.84179688 C-0.1135108 7.89420012 -0.06177969 3.94724678 0 0 Z " fill="#FAFBFC" transform="translate(300,45)"/>
<path d="M0 0 C1.093125 0.00257812 2.18625 0.00515625 3.3125 0.0078125 C4.405625 0.00523438 5.49875 0.00265625 6.625 0 C9.3125 0.1328125 9.3125 0.1328125 10.3125 1.1328125 C10.38476502 2.98568752 10.3963122 4.84115128 10.375 6.6953125 C10.36597656 7.70722656 10.35695312 8.71914063 10.34765625 9.76171875 C10.33605469 10.54417969 10.32445312 11.32664062 10.3125 12.1328125 C13.2825 12.1328125 16.2525 12.1328125 19.3125 12.1328125 C19.3125 16.0928125 19.3125 20.0528125 19.3125 24.1328125 C16.3425 24.1328125 13.3725 24.1328125 10.3125 24.1328125 C10.45303872 26.75819534 10.59968947 29.38298677 10.75 32.0078125 C10.78931641 32.75417969 10.82863281 33.50054687 10.86914062 34.26953125 C11.02823624 38.33268114 11.02823624 38.33268114 12.3125 42.1328125 C14.63406597 42.54010478 16.9693787 42.87719927 19.3125 43.1328125 C19.33938151 44.77855816 19.35884123 46.42442663 19.375 48.0703125 C19.38660156 48.98683594 19.39820313 49.90335938 19.41015625 50.84765625 C19.3125 53.1328125 19.3125 53.1328125 18.3125 54.1328125 C16.23310164 54.28553667 14.14731069 54.35476572 12.0625 54.3828125 C10.92296875 54.40859375 9.7834375 54.434375 8.609375 54.4609375 C4.14955815 54.01706947 1.5424489 52.49454164 -1.4375 49.1953125 C-3.5286825 45.74486137 -3.81206675 42.56869178 -3.78515625 38.5859375 C-3.78032227 37.31943359 -3.78032227 37.31943359 -3.77539062 36.02734375 C-3.76701172 35.15464844 -3.75863281 34.28195313 -3.75 33.3828125 C-3.74548828 32.49464844 -3.74097656 31.60648438 -3.73632812 30.69140625 C-3.724574 28.50513921 -3.70814249 26.31901071 -3.6875 24.1328125 C-5.6675 24.1328125 -7.6475 24.1328125 -9.6875 24.1328125 C-9.6875 20.8328125 -9.6875 17.5328125 -9.6875 14.1328125 C-7.7075 13.8028125 -5.7275 13.4728125 -3.6875 13.1328125 C-3.69910156 12.27816406 -3.71070313 11.42351563 -3.72265625 10.54296875 C-3.73167969 9.43824219 -3.74070313 8.33351563 -3.75 7.1953125 C-3.76160156 6.09316406 -3.77320313 4.99101563 -3.78515625 3.85546875 C-3.6544871 0.2124129 -3.6349586 0.17963458 0 0 Z " fill="#F8FAFB" transform="translate(228.6875,32.8671875)"/>
<path d="M0 0 C4.62 0 9.24 0 14 0 C14 13.53 14 27.06 14 41 C12 42 12 42 0 41 C0 27.47 0 13.94 0 0 Z " fill="#F8FAFB" transform="translate(202,45)"/>
<path d="M0 0 C2.5 2.0625 2.5 2.0625 4 5 C4 8.80284671 3.7968187 11.01930006 1.375 14 C-2.08383253 15.45635054 -4.41298371 14.91305869 -8 14 C-10.38268836 12.41154109 -10.88603501 11.30933354 -11.875 8.625 C-12.0376843 5.20862965 -11.02489572 3.69986096 -9 1 C-5.87139505 -0.56430248 -3.44397075 -0.35627284 0 0 Z " fill="#F9FAFB" transform="translate(213,28)"/>
<path d="M0 0 C1.97909398 -0.02686553 3.95828971 -0.04633375 5.9375 -0.0625 C7.03964844 -0.07410156 8.14179688 -0.08570312 9.27734375 -0.09765625 C12 0 12 0 13 1 C13.08651611 2.41570123 13.10704904 3.835595 13.09765625 5.25390625 C13.09443359 6.10791016 13.09121094 6.96191406 13.08789062 7.84179688 C13.07951172 8.73962891 13.07113281 9.63746094 13.0625 10.5625 C13.05798828 11.46419922 13.05347656 12.36589844 13.04882812 13.29492188 C13.03700225 15.53001314 13.0205222 17.76497437 13 20 C12.34 20.33 11.68 20.66 11 21 C11 14.73 11 8.46 11 2 C7.37 2 3.74 2 0 2 C-0.33 2.99 -0.66 3.98 -1 5 C-0.67 3.35 -0.34 1.7 0 0 Z " fill="#EFF1F1" transform="translate(253,26)"/>
<path d="M0 0 C1.97909398 -0.02686553 3.95828971 -0.04633375 5.9375 -0.0625 C7.03964844 -0.07410156 8.14179688 -0.08570312 9.27734375 -0.09765625 C12 0 12 0 13 1 C13.07258946 3.18639453 13.08373783 5.37500389 13.0625 7.5625 C13.05347656 8.76003906 13.04445313 9.95757812 13.03515625 11.19140625 C13.02355469 12.11824219 13.01195312 13.04507813 13 14 C11 12 11 12 10.8046875 9.8359375 C10.83949219 8.61777344 10.83949219 8.61777344 10.875 7.375 C10.89304687 6.55773438 10.91109375 5.74046875 10.9296875 4.8984375 C10.95289063 4.27195312 10.97609375 3.64546875 11 3 C10.28972656 2.95101563 9.57945312 2.90203125 8.84765625 2.8515625 C7.92855469 2.77679687 7.00945312 2.70203125 6.0625 2.625 C5.14597656 2.55539063 4.22945313 2.48578125 3.28515625 2.4140625 C2.15400391 2.20910156 2.15400391 2.20910156 1 2 C0.67 1.34 0.34 0.68 0 0 Z " fill="#EBECED" transform="translate(343,26)"/>
<path d="M0 0 C0 4.0333534 -1.60879918 5.83517538 -4 9 C-4.66 9 -5.32 9 -6 9 C-6.28875 9.886875 -6.5775 10.77375 -6.875 11.6875 C-7.83148748 14.50382424 -8.86798946 17.25083156 -10 20 C-10.66 19.34 -11.32 18.68 -12 18 C-8.78561414 10.95570759 -5.92695385 5.08024616 0 0 Z " fill="#EEEEF0" transform="translate(56,25)"/>
<path d="M0 0 C1.37478516 0.01740234 1.37478516 0.01740234 2.77734375 0.03515625 C3.69644531 0.04417969 4.61554688 0.05320312 5.5625 0.0625 C6.27277344 0.07410156 6.98304688 0.08570312 7.71484375 0.09765625 C7.71484375 1.08765625 7.71484375 2.07765625 7.71484375 3.09765625 C6.95171875 2.91203125 6.18859375 2.72640625 5.40234375 2.53515625 C2.62517 1.86946452 2.62517 1.86946452 -0.28515625 3.09765625 C-1.27515625 2.43765625 -2.26515625 1.77765625 -3.28515625 1.09765625 C-2.28515625 0.09765625 -2.28515625 0.09765625 0 0 Z " fill="#ECEEEE" transform="translate(286.28515625,25.90234375)"/>
<path d="M0 0 C1.32 1.32 2.64 2.64 4 4 C2.68 4 1.36 4 0 4 C0 2.68 0 1.36 0 0 Z M-1 4 C-0.67 5.32 -0.34 6.64 0 8 C-1.32 7.67 -2.64 7.34 -4 7 C-4 6.34 -4 5.68 -4 5 C-3.01 4.67 -2.02 4.34 -1 4 Z " fill="#EEF3F5" transform="translate(61,83)"/>
<path d="M0 0 C0.99 0.33 1.98 0.66 3 1 C2.67 1.99 2.34 2.98 2 4 C1.236875 4.12375 0.47375 4.2475 -0.3125 4.375 C-3.20267136 4.88102792 -3.20267136 4.88102792 -6 7 C-4.61990379 3.66476748 -3.15049348 1.81392049 0 0 Z " fill="#F2F3F5" transform="translate(165,26)"/>
<path d="M0 0 C0.33 0 0.66 0 1 0 C1.06058594 0.68707031 1.12117187 1.37414062 1.18359375 2.08203125 C1.26738281 2.98308594 1.35117188 3.88414063 1.4375 4.8125 C1.51871094 5.70582031 1.59992188 6.59914063 1.68359375 7.51953125 C1.93489767 10.12743559 1.93489767 10.12743559 3 13 C1.68 13.33 0.36 13.66 -1 14 C-0.67 9.38 -0.34 4.76 0 0 Z " fill="#EFF0F1" transform="translate(238,63)"/>
</svg>
