<?xml version="1.0" encoding="UTF-8"?>
<svg version="1.1" xmlns="http://www.w3.org/2000/svg" width="448" height="112">
<path d="M0 0 C1.65 0 3.3 0 5 0 C5.33 7.26 5.66 14.52 6 22 C8.289375 19.855 10.57875 17.71 12.9375 15.5 C29.52922662 0 29.52922662 0 31 0 C31 8.91 31 17.82 31 27 C34.3 27 37.6 27 41 27 C41 39.87 41 52.74 41 66 C37.7 66 34.4 66 31 66 C31 73.59 31 81.18 31 89 C27.16843043 87.08421522 24.95963354 85.27977152 21.875 82.375 C16.77032624 77.64819576 11.48225209 73.29045816 6 69 C5.67 75.93 5.34 82.86 5 90 C3.35 90 1.7 90 0 90 C-1.54950268 88.45049732 -1.21655193 86.90009406 -1.31640625 84.74609375 C-1.35830078 83.89208984 -1.40019531 83.03808594 -1.44335938 82.15820312 C-1.48267578 81.26037109 -1.52199219 80.36253906 -1.5625 79.4375 C-1.60568359 78.53580078 -1.64886719 77.63410156 -1.69335938 76.70507812 C-1.79978142 74.47021515 -1.90179988 72.23523692 -2 70 C-4.14677507 71.83224046 -6.29263306 73.66552755 -8.4375 75.5 C-9.07260498 76.04301758 -9.70770996 76.58603516 -10.36206055 77.14550781 C-14.77355339 80.92598895 -19.12739171 84.76280355 -23.42578125 88.671875 C-25 90 -25 90 -26 90 C-26 82.08 -26 74.16 -26 66 C-29.3 66 -32.6 66 -36 66 C-36 53.13 -36 40.26 -36 27 C-32.7 27 -29.4 27 -26 27 C-26 18.42 -26 9.84 -26 1 C-22.62649844 2.68675078 -20.87407358 3.85240329 -18.25 6.37109375 C-17.5590625 7.02787109 -16.868125 7.68464844 -16.15625 8.36132812 C-15.08890625 9.3890332 -15.08890625 9.3890332 -14 10.4375 C-12.58507606 11.79218714 -11.16846344 13.14511318 -9.75 14.49609375 C-9.12609375 15.09607178 -8.5021875 15.6960498 -7.859375 16.31420898 C-5.98787154 18.0109962 -4.04368659 19.51725338 -2 21 C-1.96241577 20.09906616 -1.96241577 20.09906616 -1.92407227 19.17993164 C-1.8084472 16.47388563 -1.68557064 13.76821717 -1.5625 11.0625 C-1.52318359 10.11697266 -1.48386719 9.17144531 -1.44335938 8.19726562 C-1.38051758 6.84858398 -1.38051758 6.84858398 -1.31640625 5.47265625 C-1.27974854 4.64000244 -1.24309082 3.80734863 -1.20532227 2.94946289 C-1 1 -1 1 0 0 Z M-20 13 C-20 17.62 -20 22.24 -20 27 C-15.05 27 -10.1 27 -5 27 C-6.65 25.35 -8.3 23.7 -10 22 C-11.19882812 20.78376953 -11.19882812 20.78376953 -12.421875 19.54296875 C-13.19015625 18.76566406 -13.9584375 17.98835938 -14.75 17.1875 C-15.52859375 16.39730469 -16.3071875 15.60710938 -17.109375 14.79296875 C-18.68666479 12.88531353 -18.68666479 12.88531353 -20 13 Z M22.6171875 14.3203125 C22.04226562 14.91585938 21.46734375 15.51140625 20.875 16.125 C17.82508231 19.23174846 14.64700487 22.07257182 11.28515625 24.8359375 C10.86105469 25.22007813 10.43695313 25.60421875 10 26 C10 26.33 10 26.66 10 27 C14.95 27 19.9 27 25 27 C25 22.38 25 17.76 25 13 C23.80189232 12.88490451 23.80189232 12.88490451 22.6171875 14.3203125 Z M-31 32 C-31 41.24 -31 50.48 -31 60 C-29.35 60 -27.7 60 -26 60 C-26.0825 58.741875 -26.165 57.48375 -26.25 56.1875 C-25.51464817 49.21812067 -19.62097364 45.41997182 -14.54052734 41.26171875 C-12.40366618 39.51159221 -10.32738268 37.69504084 -8.25 35.875 C-7.61578125 35.33617187 -6.9815625 34.79734375 -6.328125 34.2421875 C-5.88984375 33.83226562 -5.4515625 33.42234375 -5 33 C-5 32.67 -5 32.34 -5 32 C-13.58 32 -22.16 32 -31 32 Z M10 32 C14.21928945 37.1071176 14.21928945 37.1071176 18.875 41.5 C19.55433594 42.09039062 20.23367187 42.68078125 20.93359375 43.2890625 C22.26482083 44.39128833 23.63114076 45.45306458 25.03515625 46.4609375 C29.7049218 49.93209793 29.7049218 49.93209793 30.65625 53.375 C30.90717451 55.6054401 31.03488922 57.75712148 31 60 C32.32 60 33.64 60 35 60 C35 50.76 35 41.52 35 32 C26.75 32 18.5 32 10 32 Z M5 36 C3.12566024 49.51579798 3.12566024 49.51579798 6.27734375 62.34814453 C9.84963072 66.73319103 14.27055268 69.9594585 19 73 C20.15415623 73.77528238 21.30784473 74.55126179 22.4609375 75.328125 C23.29882812 75.87984375 24.13671875 76.4315625 25 77 C26.63119833 62.88832877 26.63119833 62.88832877 23.08984375 49.68359375 C20.51517428 47.45911116 17.91499943 45.74819218 15 44 C13.28439847 42.51093933 11.59495094 40.99102717 9.9375 39.4375 C7.76958433 37.10192763 7.76958433 37.10192763 5 36 Z M-5.01953125 39.73828125 C-5.62990234 40.31126953 -6.24027344 40.88425781 -6.86914062 41.47460938 C-7.83110352 42.38436523 -7.83110352 42.38436523 -8.8125 43.3125 C-10.06728066 44.49792738 -11.32374536 45.68157519 -12.58203125 46.86328125 C-13.14124268 47.39219971 -13.7004541 47.92111816 -14.27661133 48.46606445 C-16 50 -16 50 -18.18920898 51.34960938 C-20.24652536 52.88810732 -20.24652536 52.88810732 -20.45410156 55.54370117 C-20.4331543 56.53345947 -20.41220703 57.52321777 -20.390625 58.54296875 C-20.37773438 59.61611328 -20.36484375 60.68925781 -20.3515625 61.79492188 C-20.31804688 62.91447266 -20.28453125 64.03402344 -20.25 65.1875 C-20.23195313 66.31865234 -20.21390625 67.44980469 -20.1953125 68.61523438 C-20.14812652 71.41100376 -20.08230595 74.20507972 -20 77 C-19.49210937 76.61183105 -18.98421875 76.22366211 -18.4609375 75.82373047 C-15.30177386 73.42847508 -12.20797002 71.12590342 -8.8125 69.0703125 C-5.45341788 66.74694737 -2.74892528 64.71882417 -1 61 C0.3690604 53.10210384 -0.3215659 44.94574426 -1 37 C-2.77131905 37 -3.78447725 38.5705385 -5.01953125 39.73828125 Z " fill="#FCFCFB" transform="translate(54,11)"/>
<path d="M0 0 C4.58235343 4.156088 7.29481388 7.50772007 8.13671875 13.7890625 C8.34920977 20.63273891 8.28577744 27.0315931 3.6875 32.4375 C-0.44526479 36.39523004 -4.30595463 37.75332603 -10 37.9375 C-15.45449928 37.68063992 -18.45847278 36.29152722 -22.3125 32.4375 C-22.6425 38.3775 -22.9725 44.3175 -23.3125 50.4375 C-25.6225 50.4375 -27.9325 50.4375 -30.3125 50.4375 C-30.3125 33.2775 -30.3125 16.1175 -30.3125 -1.5625 C-28.0025 -1.5625 -25.6925 -1.5625 -23.3125 -1.5625 C-22.9825 0.0875 -22.6525 1.7375 -22.3125 3.4375 C-21.755625 2.81875 -21.19875 2.2 -20.625 1.5625 C-14.56186837 -4.00902636 -7.16101127 -3.3778355 0 0 Z M-22.3125 9.4375 C-23.65077901 12.11405801 -23.51828556 14.26184052 -23.5625 17.25 C-23.58828125 18.28769531 -23.6140625 19.32539062 -23.640625 20.39453125 C-23.26753689 23.85447931 -22.36757245 25.65682141 -20.3125 28.4375 C-15.99027025 31.52480697 -12.52985014 31.85471191 -7.43359375 31.08984375 C-4.11890904 30.07041033 -2.40432268 28.11764781 -0.3125 25.4375 C1.66088848 21.49072303 1.13040148 16.73910477 0.6875 12.4375 C-1.36651412 8.25611412 -3.05042543 6.18604341 -7.3125 4.4375 C-14.03737086 3.2759314 -17.65935177 4.55169436 -22.3125 9.4375 Z " fill="#FCFCFA" transform="translate(254.3125,38.5625)"/>
<path d="M0 0 C4.76794355 4.22613178 7.32350272 7.53218769 8.26953125 13.9765625 C8.58698347 21.34440697 8.18269488 26.92036315 3.44140625 32.76171875 C-0.67134872 36.8364806 -4.17374848 37.6084165 -9.8125 37.8125 C-15.36848203 37.66152223 -18.3224699 36.3650301 -22.25 32.4375 C-22.58 38.3775 -22.91 44.3175 -23.25 50.4375 C-25.56 50.4375 -27.87 50.4375 -30.25 50.4375 C-30.25 33.2775 -30.25 16.1175 -30.25 -1.5625 C-27.94 -1.5625 -25.63 -1.5625 -23.25 -1.5625 C-22.92 0.0875 -22.59 1.7375 -22.25 3.4375 C-20.88875 2.2309375 -20.88875 2.2309375 -19.5 1 C-13.79917918 -4.05300028 -6.53146687 -3.1401283 0 0 Z M-22.25 9.4375 C-23.58827901 12.11405801 -23.45578556 14.26184052 -23.5 17.25 C-23.52578125 18.28769531 -23.5515625 19.32539062 -23.578125 20.39453125 C-23.09761707 24.85067027 -21.4625649 27.46071161 -18 30.25 C-13.33830019 32.26300674 -9.72134375 31.97510637 -5 30.25 C-1.74699241 28.10597227 -0.62251914 27.09755104 0.75 23.4375 C1.41777998 18.03755079 1.42228251 13.80607511 -1 8.875 C-3.61083747 6.04659274 -5.59647068 4.72310961 -9.3984375 4.06640625 C-15.48420476 3.88490091 -18.04171744 5.01880331 -22.25 9.4375 Z " fill="#FCFCFA" transform="translate(146.25,38.5625)"/>
<path d="M0 0 C5.03331356 4.81447384 6.80453433 9.48161795 7.1875 16.375 C7 19 7 19 6 20 C3.92737924 20.08767112 1.85179706 20.10695873 -0.22265625 20.09765625 C-1.48271484 20.09443359 -2.74277344 20.09121094 -4.04101562 20.08789062 C-5.38151109 20.07953403 -6.72200588 20.07106907 -8.0625 20.0625 C-9.40689942 20.0574866 -10.7513006 20.05292342 -12.09570312 20.04882812 C-15.39717941 20.03699488 -18.69856803 20.02050971 -22 20 C-21.58814453 21.93359375 -21.58814453 21.93359375 -21.16796875 23.90625 C-21.01352295 24.63134766 -20.85907715 25.35644531 -20.69995117 26.10351562 C-20.11658733 28.31702683 -20.11658733 28.31702683 -17.3125 29.5 C-12.49366572 30.22737121 -8.6988062 30.79277623 -4.1875 28.6875 C-1.77961482 27.01607792 -1.77961482 27.01607792 0 24 C3.625 23.8125 3.625 23.8125 7 24 C5.73189061 29.91784383 2.7151965 32.58593084 -2 36 C-7.17968645 38.58984323 -15.07555127 37.59482961 -20.4375 35.9375 C-26.10112301 31.65524846 -29.90178132 27.1994336 -31 20 C-31.07591676 13.28678897 -29.92831969 8.45599957 -26 3 C-18.65810975 -4.14868261 -8.83013174 -4.93448538 0 0 Z M-22 9 C-22.33 10.32 -22.66 11.64 -23 13 C-15.74 13 -8.48 13 -1 13 C-2.45382274 7.4238673 -2.45382274 7.4238673 -4.5625 5.125 C-11.50132593 1.92246496 -17.0390254 3.54292794 -22 9 Z " fill="#FCFCFA" transform="translate(309,39)"/>
<path d="M0 0 C3.5443748 2.99302761 5.89111536 5.46365373 7 10 C7 13.3 7 16.6 7 20 C-2.24 20 -11.48 20 -21 20 C-20.58189882 25.60575911 -20.58189882 25.60575911 -18.5 27.8125 C-13.86261382 30.01525843 -9.0505962 30.47992677 -4.0625 29.3125 C-1.69078669 27.8032279 -0.95760294 26.61164437 0 24 C2.64 24 5.28 24 8 24 C6.73189061 29.91784383 3.7151965 32.58593084 -1 36 C-5.90168813 38.45084407 -13.28061845 37.71653546 -18.4609375 36.3515625 C-23.3796833 34.14660749 -26.5543155 30.78640399 -29 26 C-30.89377955 20.02731065 -30.99780778 13.42285146 -28.375 7.6875 C-25.60245979 2.85507956 -22.19049256 -0.02126928 -17.0625 -2.3125 C-10.53620315 -3.77758705 -5.91000236 -3.17389016 0 0 Z M-20 7 C-22.2773501 9.81509993 -22.2773501 9.81509993 -22 13 C-15.07 13 -8.14 13 -1 13 C-1.43247976 7.39688974 -1.43247976 7.39688974 -3.5 5.125 C-9.10983168 2.60057574 -15.19603515 3.06948331 -20 7 Z " fill="#FCFCFA" transform="translate(188,39)"/>
<path d="M0 0 C2.31 0 4.62 0 7 0 C8.43008021 4.07306621 9.85407095 8.14819426 11.27246094 12.2253418 C11.75581792 13.61199243 12.24083311 14.99806621 12.72753906 16.38354492 C13.42689953 18.37529498 14.12026718 20.36904455 14.8125 22.36328125 C15.23144531 23.56251221 15.65039062 24.76174316 16.08203125 25.99731445 C17 29 17 29 17 32 C17.66 32 18.32 32 19 32 C19.13535156 31.43796875 19.27070313 30.8759375 19.41015625 30.296875 C21.14244968 23.53366951 23.32500555 16.9618001 25.625 10.375 C25.93832275 9.47362305 26.25164551 8.57224609 26.57446289 7.64355469 C26.87215576 6.79954102 27.16984863 5.95552734 27.4765625 5.0859375 C27.74549316 4.3232959 28.01442383 3.5606543 28.29150391 2.77490234 C29 1 29 1 30 0 C31.99958364 -0.04080783 34.00045254 -0.04254356 36 0 C35.43224276 5.97458574 34.16466859 11.24656022 32.234375 16.91796875 C31.95909973 17.73824051 31.68382446 18.55851227 31.40020752 19.40364075 C30.81919036 21.12520079 30.23406485 22.84537928 29.64501953 24.56420898 C28.75073491 27.18534599 27.88080379 29.813776 27.01171875 32.44335938 C26.44157291 34.12289514 25.87000626 35.8019494 25.296875 37.48046875 C25.04145935 38.2607695 24.7860437 39.04107025 24.52288818 39.84501648 C22.84931832 44.63487639 21.03118633 47.70215325 17 51 C13.71480525 52.09506492 11.26336585 52.09960608 7.8125 52.0625 C6.18248047 52.04896484 6.18248047 52.04896484 4.51953125 52.03515625 C3.68808594 52.02355469 2.85664063 52.01195312 2 52 C2 49.69 2 47.38 2 45 C3.60407328 44.97291433 5.2082785 44.95356517 6.8125 44.9375 C8.15248047 44.92009766 8.15248047 44.92009766 9.51953125 44.90234375 C12 45 12 45 15 46 C15.66 43.36 16.32 40.72 17 38 C15.35 38 13.7 38 12 38 C8.95086292 30.63569786 6.27293113 23.18444919 3.75 15.625 C3.38648438 14.55894531 3.02296875 13.49289063 2.6484375 12.39453125 C2.30554688 11.36972656 1.96265625 10.34492187 1.609375 9.2890625 C1.29967773 8.36818848 0.98998047 7.44731445 0.67089844 6.49853516 C0 4 0 4 0 0 Z " fill="#FCFCFB" transform="translate(394,37)"/>
<path d="M0 0 C4.85084306 -1.05836576 4.85084306 -1.05836576 8 0 C10.72490422 2.9537789 12.90526078 6.03403282 15.1171875 9.375 C15.73851562 10.24125 16.35984375 11.1075 17 12 C17.66 12 18.32 12 19 12 C20.01038569 10.59132949 21.013954 9.17691954 21.97094727 7.73144531 C26.87132469 0.37932416 26.87132469 0.37932416 30.37109375 -0.796875 C32.5625 -0.75 32.5625 -0.75 36 0 C35.40949748 3.82504618 33.64572278 5.94702408 31.1875 8.875 C28.19152744 12.46117353 25.53910088 16.08579056 23 20 C23.36351562 20.47421387 23.72703125 20.94842773 24.1015625 21.43701172 C25.73934936 23.57925793 27.36973945 25.72702158 29 27.875 C29.57234375 28.62136719 30.1446875 29.36773437 30.734375 30.13671875 C31.27578125 30.85214844 31.8171875 31.56757812 32.375 32.3046875 C32.87773437 32.96452637 33.38046875 33.62436523 33.8984375 34.30419922 C35 36 35 36 35 38 C30.17428602 39.05288305 30.17428602 39.05288305 27 38 C18 28.7642527 18 28.7642527 18 24 C14.7348553 27.06725714 12.23054977 30.114579 9.6875 33.8125 C6.67087442 37.82580805 6.67087442 37.82580805 3.7734375 38.578125 C1.5625 38.5625 1.5625 38.5625 -2 38 C-1.39810734 34.76911507 -0.35126443 32.8604913 1.72265625 30.328125 C2.26083984 29.66425781 2.79902344 29.00039062 3.35351562 28.31640625 C3.91748047 27.63449219 4.48144531 26.95257813 5.0625 26.25 C5.63033203 25.55261719 6.19816406 24.85523437 6.78320312 24.13671875 C8.18287186 22.41947812 9.58855936 20.70756705 11 19 C8.93222663 14.65253859 6.09005188 11.09709753 3.1015625 7.33398438 C0 3.32108614 0 3.32108614 0 0 Z " fill="#FCFCFB" transform="translate(318,37)"/>
<path d="M0 0 C1.134375 0.020625 2.26875 0.04125 3.4375 0.0625 C3.4375 3.3625 3.4375 6.6625 3.4375 10.0625 C5.7475 10.0625 8.0575 10.0625 10.4375 10.0625 C11.0975 12.3725 11.7575 14.6825 12.4375 17.0625 C9.4675 17.0625 6.4975 17.0625 3.4375 17.0625 C3.44273682 17.71323486 3.44797363 18.36396973 3.45336914 19.03442383 C3.47414938 21.98127274 3.4871635 24.92810623 3.5 27.875 C3.50837891 28.89916016 3.51675781 29.92332031 3.52539062 30.97851562 C3.52861328 31.96142578 3.53183594 32.94433594 3.53515625 33.95703125 C3.54039307 34.86300049 3.54562988 35.76896973 3.55102539 36.70239258 C3.4375 39.0625 3.4375 39.0625 2.4375 42.0625 C6.0675 42.0625 9.6975 42.0625 13.4375 42.0625 C13.4375 44.0425 13.4375 46.0225 13.4375 48.0625 C2.66256602 48.62739945 2.66256602 48.62739945 -1.5625 45.0625 C-4.36914069 40.85253896 -4.6922726 37.17725312 -4.66015625 32.19921875 C-4.65693359 31.31298828 -4.65371094 30.42675781 -4.65039062 29.51367188 C-4.64201172 28.60166016 -4.63363281 27.68964844 -4.625 26.75 C-4.62048828 25.81865234 -4.61597656 24.88730469 -4.61132812 23.92773438 C-4.59959234 21.63925627 -4.58317363 19.35091192 -4.5625 17.0625 C-5.531875 17.083125 -6.50125 17.10375 -7.5 17.125 C-10.5625 17.0625 -10.5625 17.0625 -11.5625 16.0625 C-11.6875 13.5625 -11.6875 13.5625 -11.5625 11.0625 C-10.5625 10.0625 -10.5625 10.0625 -7.5 10 C-6.0459375 10.0309375 -6.0459375 10.0309375 -4.5625 10.0625 C-4.57410156 9.42441406 -4.58570313 8.78632812 -4.59765625 8.12890625 C-4.60667969 7.30261719 -4.61570312 6.47632813 -4.625 5.625 C-4.63660156 4.80128906 -4.64820313 3.97757813 -4.66015625 3.12890625 C-4.49001835 -0.47121162 -3.73687179 0.06555915 0 0 Z " fill="#FDFDFC" transform="translate(379.5625,26.9375)"/>
<path d="M0 0 C2.31 0 4.62 0 7 0 C7 17.16 7 34.32 7 52 C4.69 52 2.38 52 0 52 C0 34.84 0 17.68 0 0 Z " fill="#FCFDF9" transform="translate(267,23)"/>
<path d="M0 0 C2.31 0 4.62 0 7 0 C7.33 1.32 7.66 2.64 8 4 C8.39832031 3.51917969 8.79664063 3.03835937 9.20703125 2.54296875 C11.43450247 0.62608175 12.78834669 0.52258357 15.6875 0.3125 C16.89986328 0.21388672 16.89986328 0.21388672 18.13671875 0.11328125 C18.75160156 0.07589844 19.36648437 0.03851563 20 0 C20 2.31 20 4.62 20 7 C19.21753906 7.19335938 18.43507812 7.38671875 17.62890625 7.5859375 C16.61699219 7.84632812 15.60507813 8.10671875 14.5625 8.375 C13.55316406 8.63023438 12.54382813 8.88546875 11.50390625 9.1484375 C8.84429676 9.72573954 8.84429676 9.72573954 8 12 C7.84621148 13.95774069 7.75028537 15.92017352 7.68359375 17.8828125 C7.64169922 19.04941406 7.59980469 20.21601562 7.55664062 21.41796875 C7.49766602 23.25294922 7.49766602 23.25294922 7.4375 25.125 C7.39431641 26.35605469 7.35113281 27.58710937 7.30664062 28.85546875 C7.20031296 31.90352853 7.09828219 34.9516719 7 38 C4.69 38 2.38 38 0 38 C0 25.46 0 12.92 0 0 Z " fill="#FCFCFB" transform="translate(200,37)"/>
<path d="M0 0 C2.31 0 4.62 0 7 0 C7 12.54 7 25.08 7 38 C4.69 38 2.38 38 0 38 C0 25.46 0 12.92 0 0 Z " fill="#FCFCFB" transform="translate(358,37)"/>
<path d="M0 0 C2.64 0 5.28 0 8 0 C8 2.97 8 5.94 8 9 C5.36 9 2.72 9 0 9 C0 6.03 0 3.06 0 0 Z " fill="#FCFCFC" transform="translate(357,25)"/>
</svg>
