<?xml version="1.0" encoding="UTF-8"?>
<svg version="1.1" xmlns="http://www.w3.org/2000/svg" width="376" height="332">
<path d="M0 0 C1.11470924 -0.01226624 1.11470924 -0.01226624 2.25193787 -0.02478027 C4.72231225 -0.04968295 7.19262892 -0.06616435 9.66308594 -0.08056641 C10.50543541 -0.08589008 11.34778488 -0.09121376 12.2156601 -0.09669876 C16.67582796 -0.12345406 21.13596762 -0.14281955 25.59619141 -0.15722656 C30.20444223 -0.17386248 34.8119762 -0.21862397 39.41995621 -0.26959801 C42.96131206 -0.30325677 46.50249773 -0.31480258 50.04399872 -0.32045364 C51.74248469 -0.32717213 53.44095924 -0.34240982 55.13928986 -0.36634445 C57.51923377 -0.39796568 59.89724491 -0.3980381 62.27734375 -0.390625 C62.97780319 -0.40703033 63.67826263 -0.42343567 64.39994812 -0.44033813 C68.23135834 -0.39155406 69.7647997 0.08228313 72.74749756 2.56869507 C74.8248355 5.10422683 76.82679625 7.63466913 78.70996094 10.31787109 C79.31453125 11.16607422 79.91910156 12.01427734 80.54199219 12.88818359 C81.89746094 15.19287109 81.89746094 15.19287109 81.89746094 18.19287109 C82.55746094 18.19287109 83.21746094 18.19287109 83.89746094 18.19287109 C85.18652344 19.87255859 85.18652344 19.87255859 86.52246094 22.06787109 C87.19148438 23.14681641 87.19148438 23.14681641 87.87402344 24.24755859 C88.89746094 26.19287109 88.89746094 26.19287109 88.89746094 28.19287109 C89.55746094 28.19287109 90.21746094 28.19287109 90.89746094 28.19287109 C92.2390688 29.99648961 93.49592991 31.86352542 94.70996094 33.75537109 C97.02399051 37.32968271 99.33798347 40.8525128 101.89746094 44.25537109 C103.89746094 47.19287109 103.89746094 47.19287109 103.89746094 50.19287109 C104.55746094 50.19287109 105.21746094 50.19287109 105.89746094 50.19287109 C107.18652344 51.61865234 107.18652344 51.61865234 108.52246094 53.50537109 C108.96847656 54.12025391 109.41449219 54.73513672 109.87402344 55.36865234 C110.89746094 57.19287109 110.89746094 57.19287109 110.89746094 60.19287109 C111.55746094 60.19287109 112.21746094 60.19287109 112.89746094 60.19287109 C116.89746094 65.48698874 116.89746094 65.48698874 116.89746094 69.19287109 C118.38246094 69.68787109 118.38246094 69.68787109 119.89746094 70.19287109 C121.89142351 72.85371078 123.89746094 75.80529434 123.89746094 79.19287109 C124.55746094 79.19287109 125.21746094 79.19287109 125.89746094 79.19287109 C127.18652344 80.87255859 127.18652344 80.87255859 128.52246094 83.06787109 C128.96847656 83.78716797 129.41449219 84.50646484 129.87402344 85.24755859 C130.89746094 87.19287109 130.89746094 87.19287109 130.89746094 89.19287109 C131.55746094 89.19287109 132.21746094 89.19287109 132.89746094 89.19287109 C132.89746094 90.18287109 132.89746094 91.17287109 132.89746094 92.19287109 C133.55746094 92.19287109 134.21746094 92.19287109 134.89746094 92.19287109 C136.11621094 93.68896484 136.11621094 93.68896484 137.39746094 95.63037109 C139.18399723 98.41818956 139.18399723 98.41818956 141.89746094 100.19287109 C142.18621094 99.55349609 142.47496094 98.91412109 142.77246094 98.25537109 C143.89746094 96.19287109 143.89746094 96.19287109 145.89746094 95.19287109 C146.33058594 94.47099609 146.76371094 93.74912109 147.20996094 93.00537109 C150.07868864 88.22415826 153.74371765 83.9169168 157.89746094 80.19287109 C158.55746094 80.19287109 159.21746094 80.19287109 159.89746094 80.19287109 C160.00058594 79.59474609 160.10371094 78.99662109 160.20996094 78.38037109 C160.99570126 75.88028824 161.86664947 74.81752027 163.89746094 73.19287109 C164.55746094 73.19287109 165.21746094 73.19287109 165.89746094 73.19287109 C165.97996094 72.61537109 166.06246094 72.03787109 166.14746094 71.44287109 C167.11613603 68.53684583 168.71825154 67.3493013 170.89746094 65.19287109 C173.25838276 62.30819528 175.5669786 59.3863736 177.87402344 56.45849609 C178.54175781 55.71083984 179.20949219 54.96318359 179.89746094 54.19287109 C180.55746094 54.19287109 181.21746094 54.19287109 181.89746094 54.19287109 C182.14496094 53.40912109 182.39246094 52.62537109 182.64746094 51.81787109 C184.11886088 48.72793122 184.97064548 48.65627882 187.89746094 47.19287109 C188.58499394 45.53470325 189.25307377 43.86827773 189.89746094 42.19287109 C190.88746094 41.86287109 191.87746094 41.53287109 192.89746094 41.19287109 C194.0641276 39.27620443 194.0641276 39.27620443 194.89746094 37.19287109 C195.22746094 36.53287109 195.55746094 35.87287109 195.89746094 35.19287109 C196.55746094 35.19287109 197.21746094 35.19287109 197.89746094 35.19287109 C198.22746094 34.20287109 198.55746094 33.21287109 198.89746094 32.19287109 C199.55746094 32.19287109 200.21746094 32.19287109 200.89746094 32.19287109 C201.14496094 31.42974609 201.39246094 30.66662109 201.64746094 29.88037109 C203.04690744 26.87156111 204.26837018 26.1049371 206.89746094 24.19287109 C207.55101562 23.07912109 207.55101562 23.07912109 208.21777344 21.94287109 C210.12496048 18.82040672 212.33888724 16.36535903 214.83496094 13.69287109 C217.3702663 10.97019022 219.81734119 8.29684111 222.08886719 5.34912109 C222.98412109 4.28177734 222.98412109 4.28177734 223.89746094 3.19287109 C224.55746094 3.19287109 225.21746094 3.19287109 225.89746094 3.19287109 C226.22746094 2.20287109 226.55746094 1.21287109 226.89746094 0.19287109 C234.15746094 0.19287109 241.41746094 0.19287109 248.89746094 0.19287109 C249.22746094 1.51287109 249.55746094 2.83287109 249.89746094 4.19287109 C247.78027344 6.56005859 247.78027344 6.56005859 244.89746094 9.19287109 C243.16513954 11.2200557 241.45689794 13.25224651 239.77246094 15.31787109 C237.25245776 18.39787497 234.71647072 21.38141898 231.89746094 24.19287109 C230.4873578 25.88944488 229.09315257 27.5992861 227.70996094 29.31787109 C224.67176787 33.04611128 221.61363852 36.74903796 218.45996094 40.38037109 C217.821875 41.11642578 217.18378906 41.85248047 216.52636719 42.61083984 C214.89746094 44.19287109 214.89746094 44.19287109 212.89746094 44.19287109 C212.84460938 44.72783203 212.79175781 45.26279297 212.73730469 45.81396484 C211.49751437 49.325743 208.99968927 51.62528394 206.45996094 54.25537109 C202.41653024 58.50354342 202.41653024 58.50354342 198.89746094 63.19287109 C198.23746094 63.19287109 197.57746094 63.19287109 196.89746094 63.19287109 C196.56746094 64.18287109 196.23746094 65.17287109 195.89746094 66.19287109 C195.23746094 66.19287109 194.57746094 66.19287109 193.89746094 66.19287109 C193.836875 66.73685547 193.77628906 67.28083984 193.71386719 67.84130859 C192.55098157 71.19086428 190.25650117 73.32268256 187.83496094 75.81787109 C183.51833627 80.38138109 179.49271241 85.05863592 175.65136719 90.03662109 C173.85557097 92.24437057 171.90879331 94.18153873 169.89746094 96.19287109 C168.41962688 97.94746316 166.96229881 99.71946692 165.52246094 101.50537109 C155.42860524 113.92729894 155.42860524 113.92729894 152.89746094 115.19287109 C152.89746094 117.17287109 152.89746094 119.15287109 152.89746094 121.19287109 C153.55746094 121.19287109 154.21746094 121.19287109 154.89746094 121.19287109 C156.62402344 123.52880859 156.62402344 123.52880859 158.52246094 126.56787109 C159.15410156 127.56560547 159.78574219 128.56333984 160.43652344 129.59130859 C161.89746094 132.19287109 161.89746094 132.19287109 161.89746094 134.19287109 C162.55746094 134.19287109 163.21746094 134.19287109 163.89746094 134.19287109 C167.89746094 139.48698874 167.89746094 139.48698874 167.89746094 143.19287109 C168.55746094 143.19287109 169.21746094 143.19287109 169.89746094 143.19287109 C172.89746094 147.57748648 172.89746094 147.57748648 172.89746094 150.19287109 C173.55746094 150.19287109 174.21746094 150.19287109 174.89746094 150.19287109 C174.89746094 151.18287109 174.89746094 152.17287109 174.89746094 153.19287109 C175.55746094 153.19287109 176.21746094 153.19287109 176.89746094 153.19287109 C180.89746094 158.48698874 180.89746094 158.48698874 180.89746094 162.19287109 C181.55746094 162.19287109 182.21746094 162.19287109 182.89746094 162.19287109 C184.18652344 163.61865234 184.18652344 163.61865234 185.52246094 165.50537109 C185.96847656 166.12025391 186.41449219 166.73513672 186.87402344 167.36865234 C187.89746094 169.19287109 187.89746094 169.19287109 187.89746094 172.19287109 C188.55746094 172.19287109 189.21746094 172.19287109 189.89746094 172.19287109 C191.18652344 173.87255859 191.18652344 173.87255859 192.52246094 176.06787109 C192.96847656 176.78716797 193.41449219 177.50646484 193.87402344 178.24755859 C194.89746094 180.19287109 194.89746094 180.19287109 194.89746094 182.19287109 C195.55746094 182.19287109 196.21746094 182.19287109 196.89746094 182.19287109 C196.89746094 183.18287109 196.89746094 184.17287109 196.89746094 185.19287109 C197.55746094 185.19287109 198.21746094 185.19287109 198.89746094 185.19287109 C202.89746094 190.48698874 202.89746094 190.48698874 202.89746094 194.19287109 C203.55746094 194.19287109 204.21746094 194.19287109 204.89746094 194.19287109 C206.18652344 195.61865234 206.18652344 195.61865234 207.52246094 197.50537109 C207.96847656 198.12025391 208.41449219 198.73513672 208.87402344 199.36865234 C209.89746094 201.19287109 209.89746094 201.19287109 209.89746094 204.19287109 C210.55746094 204.19287109 211.21746094 204.19287109 211.89746094 204.19287109 C213.18652344 205.87255859 213.18652344 205.87255859 214.52246094 208.06787109 C214.96847656 208.78716797 215.41449219 209.50646484 215.87402344 210.24755859 C216.89746094 212.19287109 216.89746094 212.19287109 216.89746094 214.19287109 C217.55746094 214.19287109 218.21746094 214.19287109 218.89746094 214.19287109 C222.89746094 219.48698874 222.89746094 219.48698874 222.89746094 223.19287109 C223.55746094 223.19287109 224.21746094 223.19287109 224.89746094 223.19287109 C226.18652344 224.87255859 226.18652344 224.87255859 227.52246094 227.06787109 C227.96847656 227.78716797 228.41449219 228.50646484 228.87402344 229.24755859 C229.89746094 231.19287109 229.89746094 231.19287109 229.89746094 233.19287109 C230.55746094 233.19287109 231.21746094 233.19287109 231.89746094 233.19287109 C231.89746094 234.18287109 231.89746094 235.17287109 231.89746094 236.19287109 C232.55746094 236.19287109 233.21746094 236.19287109 233.89746094 236.19287109 C234.22746094 237.51287109 234.55746094 238.83287109 234.89746094 240.19287109 C235.55746094 240.19287109 236.21746094 240.19287109 236.89746094 240.19287109 C236.89746094 241.18287109 236.89746094 242.17287109 236.89746094 243.19287109 C237.55746094 243.19287109 238.21746094 243.19287109 238.89746094 243.19287109 C238.89746094 244.18287109 238.89746094 245.17287109 238.89746094 246.19287109 C239.55746094 246.19287109 240.21746094 246.19287109 240.89746094 246.19287109 C244.89746094 251.48698874 244.89746094 251.48698874 244.89746094 255.19287109 C245.88746094 255.52287109 246.87746094 255.85287109 247.89746094 256.19287109 C251.89746094 261.45001395 251.89746094 261.45001395 251.89746094 265.19287109 C252.55746094 265.19287109 253.21746094 265.19287109 253.89746094 265.19287109 C255.18652344 266.83740234 255.18652344 266.83740234 256.52246094 269.00537109 C256.96847656 269.71306641 257.41449219 270.42076172 257.87402344 271.14990234 C258.89746094 273.19287109 258.89746094 273.19287109 258.89746094 276.19287109 C232.82746094 276.19287109 206.75746094 276.19287109 179.89746094 276.19287109 C179.56746094 275.20287109 179.23746094 274.21287109 178.89746094 273.19287109 C178.23746094 273.19287109 177.57746094 273.19287109 176.89746094 273.19287109 C175.44551729 271.31234167 174.08381489 269.3615026 172.77246094 267.38037109 C172.04800781 266.30142578 171.32355469 265.22248047 170.57714844 264.11083984 C168.89746094 261.19287109 168.89746094 261.19287109 168.89746094 258.19287109 C168.23746094 258.19287109 167.57746094 258.19287109 166.89746094 258.19287109 C165.60839844 256.76708984 165.60839844 256.76708984 164.27246094 254.88037109 C163.82644531 254.26548828 163.38042969 253.65060547 162.92089844 253.01708984 C161.89746094 251.19287109 161.89746094 251.19287109 161.89746094 248.19287109 C161.23746094 248.19287109 160.57746094 248.19287109 159.89746094 248.19287109 C158.55585308 246.38925258 157.29899196 244.52221677 156.08496094 242.63037109 C153.77093137 239.05605948 151.4569384 235.53322939 148.89746094 232.13037109 C146.89746094 229.19287109 146.89746094 229.19287109 146.89746094 226.19287109 C145.90746094 225.86287109 144.91746094 225.53287109 143.89746094 225.19287109 C139.89746094 219.93572824 139.89746094 219.93572824 139.89746094 216.19287109 C139.23746094 216.19287109 138.57746094 216.19287109 137.89746094 216.19287109 C136.37280273 214.28442383 136.37280273 214.28442383 134.59667969 211.62646484 C133.94892578 210.66546875 133.30117187 209.70447266 132.63378906 208.71435547 C131.95767578 207.69664062 131.2815625 206.67892578 130.58496094 205.63037109 C129.25619166 203.64946094 127.92677811 201.66898278 126.59667969 199.68896484 C125.96552246 198.74263184 125.33436523 197.79629883 124.68408203 196.82128906 C123.14561164 194.55794221 121.55348198 192.3580891 119.91699219 190.16552734 C117.89746094 187.19287109 117.89746094 187.19287109 117.89746094 184.19287109 C117.23746094 184.19287109 116.57746094 184.19287109 115.89746094 184.19287109 C115.56746094 182.87287109 115.23746094 181.55287109 114.89746094 180.19287109 C114.23746094 180.19287109 113.57746094 180.19287109 112.89746094 180.19287109 C111.38964844 178.22412109 111.38964844 178.22412109 109.77246094 175.69287109 C109.23363281 174.85755859 108.69480469 174.02224609 108.13964844 173.16162109 C107.72972656 172.51193359 107.31980469 171.86224609 106.89746094 171.19287109 C103.98943633 173.41215303 101.94433332 175.12256253 99.89746094 178.19287109 C99.23746094 178.19287109 98.57746094 178.19287109 97.89746094 178.19287109 C97.52621094 179.36849609 97.52621094 179.36849609 97.14746094 180.56787109 C95.676061 183.65781097 94.82427639 183.72946337 91.89746094 185.19287109 C91.62933594 185.91861328 91.36121094 186.64435547 91.08496094 187.39208984 C89.58717732 190.92469134 87.49168108 193.18868149 84.89746094 196.00537109 C84.01058594 196.98119141 83.12371094 197.95701172 82.20996094 198.96240234 C79.89746094 201.19287109 79.89746094 201.19287109 77.89746094 201.19287109 C77.81496094 201.81162109 77.73246094 202.43037109 77.64746094 203.06787109 C76.89746094 205.19287109 76.89746094 205.19287109 74.95996094 206.13037109 C72.6837121 207.00961454 72.6837121 207.00961454 72.08105469 209.39599609 C70.58634435 212.9280509 68.49046833 215.18999824 65.89746094 218.00537109 C65.01058594 218.98119141 64.12371094 219.95701172 63.20996094 220.96240234 C60.89746094 223.19287109 60.89746094 223.19287109 58.89746094 223.19287109 C58.79304688 223.77552734 58.68863281 224.35818359 58.58105469 224.95849609 C57.79452477 227.52932532 56.72180203 228.92687689 54.95996094 230.94287109 C54.4353125 231.55646484 53.91066406 232.17005859 53.37011719 232.80224609 C51.89746094 234.19287109 51.89746094 234.19287109 49.89746094 234.19287109 C49.66027344 234.73427734 49.42308594 235.27568359 49.17871094 235.83349609 C47.55398337 238.82537247 45.54727324 241.30446508 43.39746094 243.94287109 C42.60339844 244.92771484 41.80933594 245.91255859 40.99121094 246.92724609 C40.30027344 247.67490234 39.60933594 248.42255859 38.89746094 249.19287109 C38.23746094 249.19287109 37.57746094 249.19287109 36.89746094 249.19287109 C36.60871094 249.79099609 36.31996094 250.38912109 36.02246094 251.00537109 C34.89746094 253.19287109 34.89746094 253.19287109 32.89746094 256.19287109 C32.23746094 256.19287109 31.57746094 256.19287109 30.89746094 256.19287109 C30.23746094 257.84287109 29.57746094 259.49287109 28.89746094 261.19287109 C28.23746094 261.19287109 27.57746094 261.19287109 26.89746094 261.19287109 C26.56746094 262.18287109 26.23746094 263.17287109 25.89746094 264.19287109 C25.23746094 264.19287109 24.57746094 264.19287109 23.89746094 264.19287109 C23.64996094 264.97662109 23.40246094 265.76037109 23.14746094 266.56787109 C21.6896523 269.62926923 20.81752621 269.77993628 17.89746094 271.19287109 C17.24532802 273.21750364 17.24532802 273.21750364 16.89746094 275.19287109 C14.3806898 276.45125666 12.48452806 276.40106082 9.67089844 276.50927734 C8.63964844 276.55117188 7.60839844 276.59306641 6.54589844 276.63623047 C5.46566406 276.67554688 4.38542969 276.71486328 3.27246094 276.75537109 C2.18449219 276.79855469 1.09652344 276.84173828 -0.02441406 276.88623047 C-2.71699076 276.99251639 -5.40966159 277.09455167 -8.10253906 277.19287109 C-8.59753906 275.70787109 -8.59753906 275.70787109 -9.10253906 274.19287109 C-8.44253906 274.19287109 -7.78253906 274.19287109 -7.10253906 274.19287109 C-6.70035156 272.98630859 -6.70035156 272.98630859 -6.29003906 271.75537109 C-5.89816406 270.90974609 -5.50628906 270.06412109 -5.10253906 269.19287109 C-4.11253906 268.86287109 -3.12253906 268.53287109 -2.10253906 268.19287109 C-1.39859294 266.87883834 -0.73908248 265.54084539 -0.10253906 264.19287109 C1.89746094 261.44287109 1.89746094 261.44287109 3.89746094 259.19287109 C4.55746094 259.19287109 5.21746094 259.19287109 5.89746094 259.19287109 C6.14496094 258.40912109 6.39246094 257.62537109 6.64746094 256.81787109 C8.11886088 253.72793122 8.97064548 253.65627882 11.89746094 252.19287109 C12.16558594 251.47099609 12.43371094 250.74912109 12.70996094 250.00537109 C14.21676766 246.43661832 16.44294681 244.46171695 19.24121094 241.84130859 C21.10734779 240.0930107 21.10734779 240.0930107 22.89746094 237.19287109 C23.55746094 237.19287109 24.21746094 237.19287109 24.89746094 237.19287109 C25.14496094 236.40912109 25.39246094 235.62537109 25.64746094 234.81787109 C27.11886088 231.72793122 27.97064548 231.65627882 30.89746094 230.19287109 C31.59404457 228.53848496 32.25842977 226.87032791 32.89746094 225.19287109 C34.21650467 223.84539969 35.55217018 222.5141388 36.89746094 221.19287109 C38.25133029 219.54284282 39.58424236 217.87543239 40.89746094 216.19287109 C43.40719841 212.97726996 45.99635158 210.05725754 48.89746094 207.19287109 C49.70183594 206.07912109 49.70183594 206.07912109 50.52246094 204.94287109 C50.97621094 204.36537109 51.42996094 203.78787109 51.89746094 203.19287109 C52.55746094 203.19287109 53.21746094 203.19287109 53.89746094 203.19287109 C54.166875 202.60505859 54.43628906 202.01724609 54.71386719 201.41162109 C55.89405767 199.19925082 57.16931236 197.55771937 58.83496094 195.69287109 C60.55205309 193.75017559 62.13257108 191.86539625 63.64746094 189.75537109 C64.05996094 189.23974609 64.47246094 188.72412109 64.89746094 188.19287109 C65.55746094 188.19287109 66.21746094 188.19287109 66.89746094 188.19287109 C67.14496094 187.45037109 67.39246094 186.70787109 67.64746094 185.94287109 C69.04270311 182.87333832 70.45252581 181.50564757 72.89746094 179.19287109 C76.12868833 175.62270376 79.26983877 172.00708364 82.20996094 168.19287109 C82.76683594 167.53287109 83.32371094 166.87287109 83.89746094 166.19287109 C84.55746094 166.19287109 85.21746094 166.19287109 85.89746094 166.19287109 C86.16558594 165.38849609 86.43371094 164.58412109 86.70996094 163.75537109 C87.10183594 162.90974609 87.49371094 162.06412109 87.89746094 161.19287109 C88.88746094 160.86287109 89.87746094 160.53287109 90.89746094 160.19287109 C92.60279311 156.87196108 92.89746094 155.00794326 92.89746094 151.19287109 C91.3731034 148.38827067 91.3731034 148.38827067 89.39746094 145.56787109 C85.89746094 140.38731554 85.89746094 140.38731554 85.89746094 138.19287109 C85.23746094 138.19287109 84.57746094 138.19287109 83.89746094 138.19287109 C82.31152344 135.99755859 82.31152344 135.99755859 80.52246094 133.06787109 C78.55585014 129.87777383 76.60038314 126.70674853 74.45996094 123.63037109 C72.89746094 121.19287109 72.89746094 121.19287109 72.89746094 119.19287109 C72.23746094 119.19287109 71.57746094 119.19287109 70.89746094 119.19287109 C69.06237398 116.64345498 67.34262907 114.08379905 65.64746094 111.44287109 C60.45407678 103.49230709 55.09080746 95.68170364 49.61914062 87.92041016 C48.52608849 86.36892022 47.43512284 84.81595729 46.34667969 83.26123047 C45.43928176 81.96617062 44.52611215 80.6751144 43.60449219 79.39013672 C40.89746094 75.5290553 40.89746094 75.5290553 40.89746094 72.19287109 C39.90746094 71.86287109 38.91746094 71.53287109 37.89746094 71.19287109 C36.24121094 69.03271484 36.24121094 69.03271484 34.39746094 66.13037109 C33.69363281 65.04369141 32.98980469 63.95701172 32.26464844 62.83740234 C31.88405273 62.24781738 31.50345703 61.65823242 31.11132812 61.05078125 C28.96801746 57.77029167 26.7446728 54.54521127 24.52246094 51.31787109 C24.06315186 50.64788086 23.60384277 49.97789063 23.13061523 49.28759766 C20.78667885 45.88135451 18.41073407 42.50442703 15.97167969 39.16552734 C15.50745605 38.5279248 15.04323242 37.89032227 14.56494141 37.23339844 C13.68103469 36.02459628 12.79099543 34.82024763 11.89404297 33.62109375 C8.89746094 29.523277 8.89746094 29.523277 8.89746094 26.19287109 C8.23746094 26.19287109 7.57746094 26.19287109 6.89746094 26.19287109 C5.56884766 24.57226562 5.56884766 24.57226562 4.07714844 22.32568359 C3.5421875 21.52259766 3.00722656 20.71951172 2.45605469 19.89208984 C1.62267578 18.61785156 1.62267578 18.61785156 0.77246094 17.31787109 C0.20914063 16.47611328 -0.35417969 15.63435547 -0.93457031 14.76708984 C-5.10253906 8.45963108 -5.10253906 8.45963108 -5.10253906 6.19287109 C-5.76253906 6.19287109 -6.42253906 6.19287109 -7.10253906 6.19287109 C-7.48472673 4.53672452 -7.81649008 2.86830085 -8.10253906 1.19287109 C-6.18272383 -0.72694413 -2.61704861 0.01573409 0 0 Z M29.89746094 21.19287109 C30.55746094 23.50287109 31.21746094 25.81287109 31.89746094 28.19287109 C32.55746094 28.19287109 33.21746094 28.19287109 33.89746094 28.19287109 C33.89746094 29.18287109 33.89746094 30.17287109 33.89746094 31.19287109 C34.55746094 31.19287109 35.21746094 31.19287109 35.89746094 31.19287109 C36.16558594 31.91474609 36.43371094 32.63662109 36.70996094 33.38037109 C37.89647455 36.19053492 39.17231733 38.67703666 40.89746094 41.19287109 C41.55746094 41.19287109 42.21746094 41.19287109 42.89746094 41.19287109 C43.18621094 41.93537109 43.47496094 42.67787109 43.77246094 43.44287109 C44.72048738 45.76026906 45.74592005 47.97204224 46.89746094 50.19287109 C47.55746094 50.19287109 48.21746094 50.19287109 48.89746094 50.19287109 C49.16558594 50.91474609 49.43371094 51.63662109 49.70996094 52.38037109 C50.89647455 55.19053492 52.17231733 57.67703666 53.89746094 60.19287109 C54.55746094 60.19287109 55.21746094 60.19287109 55.89746094 60.19287109 C55.89746094 61.18287109 55.89746094 62.17287109 55.89746094 63.19287109 C56.55746094 63.19287109 57.21746094 63.19287109 57.89746094 63.19287109 C58.14496094 63.89412109 58.39246094 64.59537109 58.64746094 65.31787109 C60.5265641 69.63980837 63.11779925 73.23500102 66.08496094 76.88037109 C67.89746094 79.19287109 67.89746094 79.19287109 68.89746094 82.19287109 C69.55746094 82.19287109 70.21746094 82.19287109 70.89746094 82.19287109 C71.16558594 82.91474609 71.43371094 83.63662109 71.70996094 84.38037109 C72.89647455 87.19053492 74.17231733 89.67703666 75.89746094 92.19287109 C76.55746094 92.19287109 77.21746094 92.19287109 77.89746094 92.19287109 C78.18621094 92.93537109 78.47496094 93.67787109 78.77246094 94.44287109 C79.72048738 96.76026906 80.74592005 98.97204224 81.89746094 101.19287109 C82.55746094 101.19287109 83.21746094 101.19287109 83.89746094 101.19287109 C84.22746094 102.51287109 84.55746094 103.83287109 84.89746094 105.19287109 C85.55746094 105.19287109 86.21746094 105.19287109 86.89746094 105.19287109 C87.55746094 107.17287109 88.21746094 109.15287109 88.89746094 111.19287109 C89.55746094 111.19287109 90.21746094 111.19287109 90.89746094 111.19287109 C90.97996094 111.72912109 91.06246094 112.26537109 91.14746094 112.81787109 C92.17327365 116.06627801 93.86309988 118.48038968 95.89746094 121.19287109 C96.55746094 121.19287109 97.21746094 121.19287109 97.89746094 121.19287109 C97.89746094 122.18287109 97.89746094 123.17287109 97.89746094 124.19287109 C98.55746094 124.19287109 99.21746094 124.19287109 99.89746094 124.19287109 C100.18621094 124.93537109 100.47496094 125.67787109 100.77246094 126.44287109 C101.72048738 128.76026906 102.74592005 130.97204224 103.89746094 133.19287109 C104.55746094 133.19287109 105.21746094 133.19287109 105.89746094 133.19287109 C106.29964844 134.27568359 106.29964844 134.27568359 106.70996094 135.38037109 C107.89647455 138.19053492 109.17231733 140.67703666 110.89746094 143.19287109 C111.55746094 143.19287109 112.21746094 143.19287109 112.89746094 143.19287109 C113.29964844 144.27568359 113.29964844 144.27568359 113.70996094 145.38037109 C114.89647455 148.19053492 116.17231733 150.67703666 117.89746094 153.19287109 C118.55746094 153.19287109 119.21746094 153.19287109 119.89746094 153.19287109 C119.89746094 154.18287109 119.89746094 155.17287109 119.89746094 156.19287109 C120.55746094 156.19287109 121.21746094 156.19287109 121.89746094 156.19287109 C122.14367187 156.90185547 122.38988281 157.61083984 122.64355469 158.34130859 C124.05519777 161.55158725 125.84173531 164.02688778 127.95996094 166.81787109 C131.79197116 171.87640177 131.79197116 171.87640177 132.89746094 175.19287109 C133.55746094 175.19287109 134.21746094 175.19287109 134.89746094 175.19287109 C135.16558594 175.91474609 135.43371094 176.63662109 135.70996094 177.38037109 C136.89647455 180.19053492 138.17231733 182.67703666 139.89746094 185.19287109 C140.55746094 185.19287109 141.21746094 185.19287109 141.89746094 185.19287109 C142.18621094 185.93537109 142.47496094 186.67787109 142.77246094 187.44287109 C143.72048738 189.76026906 144.74592005 191.97204224 145.89746094 194.19287109 C146.55746094 194.19287109 147.21746094 194.19287109 147.89746094 194.19287109 C148.16558594 194.91474609 148.43371094 195.63662109 148.70996094 196.38037109 C149.89647455 199.19053492 151.17231733 201.67703666 152.89746094 204.19287109 C153.55746094 204.19287109 154.21746094 204.19287109 154.89746094 204.19287109 C154.89746094 205.18287109 154.89746094 206.17287109 154.89746094 207.19287109 C155.55746094 207.19287109 156.21746094 207.19287109 156.89746094 207.19287109 C157.20683594 207.97662109 157.51621094 208.76037109 157.83496094 209.56787109 C158.82621132 212.11617237 158.82621132 212.11617237 159.89746094 214.19287109 C160.55746094 214.19287109 161.21746094 214.19287109 161.89746094 214.19287109 C161.89746094 215.18287109 161.89746094 216.17287109 161.89746094 217.19287109 C162.55746094 217.19287109 163.21746094 217.19287109 163.89746094 217.19287109 C164.33058594 218.30662109 164.33058594 218.30662109 164.77246094 219.44287109 C165.72048738 221.76026906 166.74592005 223.97204224 167.89746094 226.19287109 C168.55746094 226.19287109 169.21746094 226.19287109 169.89746094 226.19287109 C170.16558594 226.91474609 170.43371094 227.63662109 170.70996094 228.38037109 C171.89647455 231.19053492 173.17231733 233.67703666 174.89746094 236.19287109 C175.55746094 236.19287109 176.21746094 236.19287109 176.89746094 236.19287109 C177.16558594 236.91474609 177.43371094 237.63662109 177.70996094 238.38037109 C178.89647455 241.19053492 180.17231733 243.67703666 181.89746094 246.19287109 C182.55746094 246.19287109 183.21746094 246.19287109 183.89746094 246.19287109 C183.89746094 247.18287109 183.89746094 248.17287109 183.89746094 249.19287109 C184.55746094 249.19287109 185.21746094 249.19287109 185.89746094 249.19287109 C186.33058594 250.36849609 186.33058594 250.36849609 186.77246094 251.56787109 C187.74658348 254.28958742 187.74658348 254.28958742 189.89746094 256.19287109 C192.40666939 256.36782715 194.80371035 256.42456678 197.31152344 256.38818359 C198.40598282 256.38393875 198.40598282 256.38393875 199.52255249 256.37960815 C201.85602122 256.36840111 204.18910797 256.3432962 206.52246094 256.31787109 C208.10318457 256.30784194 209.6839142 256.29871598 211.26464844 256.29052734 C215.14240008 256.26846015 219.01986572 256.23392724 222.89746094 256.19287109 C220.91746094 252.56287109 218.93746094 248.93287109 216.89746094 245.19287109 C216.23746094 245.19287109 215.57746094 245.19287109 214.89746094 245.19287109 C214.56746094 243.87287109 214.23746094 242.55287109 213.89746094 241.19287109 C213.23746094 241.19287109 212.57746094 241.19287109 211.89746094 241.19287109 C211.52814453 240.12939453 211.52814453 240.12939453 211.15136719 239.04443359 C209.73972411 235.83415494 207.95318657 233.35885441 205.83496094 230.56787109 C202.00295071 225.50934042 202.00295071 225.50934042 200.89746094 222.19287109 C200.23746094 222.19287109 199.57746094 222.19287109 198.89746094 222.19287109 C198.23746094 220.21287109 197.57746094 218.23287109 196.89746094 216.19287109 C196.23746094 216.19287109 195.57746094 216.19287109 194.89746094 216.19287109 C194.89746094 215.20287109 194.89746094 214.21287109 194.89746094 213.19287109 C194.23746094 212.86287109 193.57746094 212.53287109 192.89746094 212.19287109 C192.56746094 211.20287109 192.23746094 210.21287109 191.89746094 209.19287109 C191.23746094 209.19287109 190.57746094 209.19287109 189.89746094 209.19287109 C189.62933594 208.47099609 189.36121094 207.74912109 189.08496094 207.00537109 C187.89844732 204.19520726 186.62260455 201.70870553 184.89746094 199.19287109 C184.23746094 199.19287109 183.57746094 199.19287109 182.89746094 199.19287109 C182.77371094 198.38849609 182.64996094 197.58412109 182.52246094 196.75537109 C182.31621094 195.90974609 182.10996094 195.06412109 181.89746094 194.19287109 C181.23746094 193.86287109 180.57746094 193.53287109 179.89746094 193.19287109 C179.56746094 192.20287109 179.23746094 191.21287109 178.89746094 190.19287109 C178.40246094 189.69787109 177.90746094 189.20287109 177.39746094 188.69287109 C175.89746094 187.19287109 175.89746094 187.19287109 174.89746094 184.19287109 C174.23746094 184.19287109 173.57746094 184.19287109 172.89746094 184.19287109 C172.62933594 183.64115234 172.36121094 183.08943359 172.08496094 182.52099609 C170.7694951 179.9419907 169.35896931 177.44205042 167.89746094 174.94287109 C167.12402344 173.60482422 167.12402344 173.60482422 166.33496094 172.23974609 C165.86058594 171.56427734 165.38621094 170.88880859 164.89746094 170.19287109 C164.23746094 170.19287109 163.57746094 170.19287109 162.89746094 170.19287109 C162.89746094 169.20287109 162.89746094 168.21287109 162.89746094 167.19287109 C162.23746094 167.19287109 161.57746094 167.19287109 160.89746094 167.19287109 C160.81496094 166.45037109 160.73246094 165.70787109 160.64746094 164.94287109 C159.7398965 161.61513484 158.34518864 160.56860681 155.89746094 158.19287109 C154.88186693 156.20074439 153.87956465 154.20171959 152.89746094 152.19287109 C152.23746094 151.86287109 151.57746094 151.53287109 150.89746094 151.19287109 C150.56746094 150.20287109 150.23746094 149.21287109 149.89746094 148.19287109 C149.23746094 148.19287109 148.57746094 148.19287109 147.89746094 148.19287109 C147.66671875 147.50708984 147.43597656 146.82130859 147.19824219 146.11474609 C145.60482146 142.53553076 143.41384154 139.56423576 141.08496094 136.44287109 C137.64980333 131.75744875 134.61300259 127.09323703 131.90527344 121.94287109 C130.57283154 119.62917353 128.83803147 118.01215597 126.89746094 116.19287109 C124.3650464 112.97319362 122.19966019 110.09946885 120.89746094 106.19287109 C120.23746094 106.19287109 119.57746094 106.19287109 118.89746094 106.19287109 C118.81496094 105.45037109 118.73246094 104.70787109 118.64746094 103.94287109 C118.13460272 101.14816152 118.13460272 101.14816152 116.22167969 99.55615234 C112.96392704 96.24364755 110.54278121 92.48030861 107.95996094 88.63037109 C106.80914182 86.92969964 105.6580931 85.22918354 104.50683594 83.52880859 C103.91580078 82.65321289 103.32476562 81.77761719 102.71582031 80.87548828 C100.89815519 78.19389532 99.0649333 75.52369281 97.22558594 72.85693359 C96.63640381 72.00172119 96.04722168 71.14650879 95.44018555 70.26538086 C94.30708208 68.62160539 93.17253314 66.97882516 92.03637695 65.3371582 C91.26571899 64.21579468 91.26571899 64.21579468 90.47949219 63.07177734 C89.80237183 62.09059937 89.80237183 62.09059937 89.11157227 61.08959961 C87.88889779 59.17949344 86.87348778 57.23840741 85.89746094 55.19287109 C85.23746094 55.19287109 84.57746094 55.19287109 83.89746094 55.19287109 C83.64222656 54.47228516 83.38699219 53.75169922 83.12402344 53.00927734 C81.81661245 50.00722855 80.24701682 47.73820087 78.27246094 45.13037109 C73.26055024 38.38707306 68.16516251 31.49701955 64.24316406 24.05297852 C62.13627036 20.86846262 62.13627036 20.86846262 58.50585938 20.51171875 C57.17247411 20.51266239 55.83883821 20.54621211 54.50683594 20.60693359 C53.80222229 20.61542328 53.09760864 20.62391296 52.37164307 20.63265991 C50.12867012 20.66615801 47.88933995 20.74141061 45.64746094 20.81787109 C44.1240755 20.84797625 42.6006335 20.87535112 41.07714844 20.89990234 C37.34940907 20.9659309 33.62379069 21.0694198 29.89746094 21.19287109 Z " fill="#EAEAEA" transform="translate(62.1025390625,24.80712890625)"/>
<path d="M0 0 C0.71169846 0.00045319 1.42339691 0.00090637 2.15666199 0.00137329 C3.27619011 -0.00366463 3.27619011 -0.00366463 4.41833496 -0.00880432 C6.89834738 -0.01834326 9.37829249 -0.020259 11.85832214 -0.02133179 C13.57606535 -0.02454268 15.29380828 -0.02790662 17.0115509 -0.03141785 C20.61803318 -0.03741673 24.22449147 -0.03925701 27.83097839 -0.03866577 C32.4570965 -0.03856419 37.08306099 -0.05220927 41.70914268 -0.06943798 C45.25899464 -0.08054637 48.80880935 -0.08258533 52.35867691 -0.08205605 C54.06434788 -0.08323819 55.77001975 -0.08767305 57.47567368 -0.09538841 C59.86033175 -0.10516359 62.24465501 -0.10232 64.62931824 -0.09628296 C65.33696823 -0.10190247 66.04461823 -0.10752197 66.77371216 -0.11331177 C70.4230761 -0.08978279 71.89523466 0.06187031 75.02238464 2.14663696 C74.69238464 2.80663696 74.36238464 3.46663696 74.02238464 4.14663696 C73.52738464 3.65163696 73.52738464 3.65163696 73.02238464 3.14663696 C70.65036917 3.02176742 68.30598122 2.96063645 65.93229675 2.9413147 C64.82017067 2.9264653 64.82017067 2.9264653 63.68557739 2.91131592 C61.22366072 2.8796123 58.76172471 2.8549087 56.29972839 2.83023071 C54.59721359 2.80966882 52.89470399 2.78867256 51.19219971 2.76725769 C46.70251155 2.71195797 42.21277673 2.66258368 37.7230072 2.6144104 C33.14502286 2.5642529 28.56710662 2.50853689 23.98918152 2.45327759 C15.00030735 2.34559946 6.01137415 2.24417608 -2.97761536 2.14663696 C-2.97761536 3.46663696 -2.97761536 4.78663696 -2.97761536 6.14663696 C-3.63761536 6.14663696 -4.29761536 6.14663696 -4.97761536 6.14663696 C-5.35980303 4.49049039 -5.69156637 2.82206672 -5.97761536 1.14663696 C-4.3000622 -0.53091619 -2.2402542 0.01481504 0 0 Z " fill="#3B3B3B" transform="translate(59.97761535644531,24.853363037109375)"/>
<path d="M0 0 C5.49004545 0.01906266 10.80287858 0.44111454 16.25 1.1328125 C16.25 1.4628125 16.25 1.7928125 16.25 2.1328125 C10.97 2.1328125 5.69 2.1328125 0.25 2.1328125 C0.25 3.4528125 0.25 4.7728125 0.25 6.1328125 C-0.41 6.1328125 -1.07 6.1328125 -1.75 6.1328125 C-2.13218767 4.47666593 -2.46395102 2.80824226 -2.75 1.1328125 C-1.75 0.1328125 -1.75 0.1328125 0 0 Z " fill="#616161" transform="translate(56.75,24.8671875)"/>
<path d="M0 0 C0.8125 1.6875 0.8125 1.6875 1 4 C-1.125 6.4375 -1.125 6.4375 -4 9 C-4.928125 9.928125 -5.85625 10.85625 -6.8125 11.8125 C-7.534375 12.534375 -8.25625 13.25625 -9 14 C-9.66 13.67 -10.32 13.34 -11 13 C-9.38405168 10.95880212 -7.7143618 8.95927063 -6 7 C-5.34 7 -4.68 7 -4 7 C-3.71125 6.21625 -3.4225 5.4325 -3.125 4.625 C-2 2 -2 2 0 0 Z " fill="#989898" transform="translate(91,255)"/>
<path d="M0 0 C4.6875 3.61328125 4.6875 3.61328125 6 5 C6 5.99 6 6.98 6 8 C6.66 8 7.32 8 8 8 C8.66 9.98 9.32 11.96 10 14 C9.34 14 8.68 14 8 14 C6.55036041 12.09625645 5.18815677 10.12532841 3.875 8.125 C2.78832031 6.48917969 2.78832031 6.48917969 1.6796875 4.8203125 C0 2 0 2 0 0 Z " fill="#737373" transform="translate(202,159)"/>
<path d="M0 0 C0.33 0.99 0.66 1.98 1 3 C-0.21484375 4.82421875 -0.21484375 4.82421875 -1.9375 6.6875 C-2.50339844 7.31011719 -3.06929688 7.93273438 -3.65234375 8.57421875 C-4.09707031 9.04472656 -4.54179687 9.51523437 -5 10 C-5.99 9.67 -6.98 9.34 -8 9 C-7.34 8.01 -6.68 7.02 -6 6 C-5.34 6 -4.68 6 -4 6 C-3.67 5.01 -3.34 4.02 -3 3 C-2.34 3 -1.68 3 -1 3 C-0.67 2.01 -0.34 1.02 0 0 Z " fill="#A0A0A0" transform="translate(264,54)"/>
<path d="M0 0 C0.66 0 1.32 0 2 0 C1.44449305 3.59905908 0.25112752 4.99909799 -2.5625 7.25 C-3.20316406 7.77078125 -3.84382812 8.2915625 -4.50390625 8.828125 C-4.99761719 9.21484375 -5.49132812 9.6015625 -6 10 C-6 9.01 -6 8.02 -6 7 C-5.01 6.67 -4.02 6.34 -3 6 C-1.84478498 3.52869082 -1.84478498 3.52869082 -1 1 C-0.67 0.67 -0.34 0.34 0 0 Z " fill="#898989" transform="translate(253,66)"/>
<path d="M0 0 C0 2 0 4 0 6 C-2.5 8.1875 -2.5 8.1875 -5 10 C-5.66 9.67 -6.32 9.34 -7 9 C-6.02180976 7.68677212 -5.0424189 6.37443848 -4.0625 5.0625 C-3.51722656 4.33160156 -2.97195312 3.60070312 -2.41015625 2.84765625 C-1 1 -1 1 0 0 Z " fill="#949494" transform="translate(104,240)"/>
<path d="M0 0 C0.33 0.99 0.66 1.98 1 3 C-0.97070595 6.6129609 -3.15314615 7.75237172 -7 9 C-6.34 7.68 -5.68 6.36 -5 5 C-4.34 5 -3.68 5 -3 5 C-2.690625 4.360625 -2.38125 3.72125 -2.0625 3.0625 C-1 1 -1 1 0 0 Z " fill="#868686" transform="translate(63,288)"/>
<path d="M0 0 C0.8125 1.6875 0.8125 1.6875 1 4 C-1.4375 6.75 -1.4375 6.75 -4 9 C-4.8125 7.3125 -4.8125 7.3125 -5 5 C-2.5625 2.25 -2.5625 2.25 0 0 Z " fill="#AFAFAF" transform="translate(233,90)"/>
<path d="M0 0 C0.33 1.32 0.66 2.64 1 4 C-0.9375 6.25 -0.9375 6.25 -3 8 C-3.99 7.67 -4.98 7.34 -6 7 C-4.02 4.69 -2.04 2.38 0 0 Z " fill="#A3A3A3" transform="translate(220,105)"/>
<path d="M0 0 C0.66 0 1.32 0 2 0 C1.8125 1.8125 1.8125 1.8125 1 4 C-1.5625 5.75 -1.5625 5.75 -4 7 C-2.79618552 4.50638429 -1.54571278 2.31856917 0 0 Z " fill="#A9A9A9" transform="translate(120,221)"/>
</svg>
