<?xml version="1.0" encoding="UTF-8"?>
<svg version="1.1" xmlns="http://www.w3.org/2000/svg" width="1024" height="267">
<path d="M0 0 C1.3293457 -0.01836914 1.3293457 -0.01836914 2.68554688 -0.03710938 C22.42305497 -0.08029867 38.99950767 8.86685649 52.9609375 22.3671875 C60.77400203 30.44889608 66.3159646 40.42433678 70.0625 51 C71.99577699 54.79219718 74.31766911 56.57984484 77.5625 59.24609375 C86.29634791 67.22536289 92.46110874 79.97287136 93.0234375 91.7890625 C93.34249928 109.29584391 89.76493981 122.90516716 77.3125 135.9375 C74.6875 138.1875 74.6875 138.1875 72.6875 138.1875 C72.6875 138.8475 72.6875 139.5075 72.6875 140.1875 C71.08945558 141.1147985 69.48357823 142.02859706 67.875 142.9375 C66.98167969 143.44796875 66.08835938 143.9584375 65.16796875 144.484375 C64.01941406 145.04640625 62.87085938 145.6084375 61.6875 146.1875 C60.72521988 146.6943206 60.72521988 146.6943206 59.74349976 147.21138 C49.66921162 151.7241367 38.6707225 150.74506234 27.87109375 150.68359375 C25.64632622 150.68374895 23.42155842 150.68524147 21.1967926 150.68800354 C16.54944812 150.68938309 11.90241392 150.6769027 7.25512695 150.65405273 C1.31831732 150.62565328 -4.61797799 150.62841611 -10.55482578 150.64114285 C-15.14381756 150.64811936 -19.73269185 150.64028845 -24.32166862 150.62788582 C-26.50998419 150.62339168 -28.69831246 150.62301657 -30.8866291 150.62695122 C-33.95145374 150.62988326 -37.01558553 150.61326191 -40.08032227 150.59155273 C-41.41710777 150.59830521 -41.41710777 150.59830521 -42.78089905 150.60519409 C-55.82334758 150.4528008 -67.91161381 145.00710736 -77.46484375 136.1796875 C-80.87289955 132.50503959 -83.63104906 128.40993667 -86.3125 124.1875 C-86.828125 123.37925781 -87.34375 122.57101563 -87.875 121.73828125 C-94.71287769 109.60476458 -95.39489922 94.51995775 -91.75 81.25 C-88.57459185 72.33183244 -82.830104 62.00737969 -74.875 56.5 C-71.68962905 53.62539695 -70.44718117 50.53284158 -68.9375 46.625 C-61.81209051 29.49307921 -49.73954905 13.88273746 -32.24121094 6.28857422 C-21.44255266 1.97339043 -11.66265795 0.00837233 0 0 Z M-25.3125 44.1875 C-25.3125 44.8475 -25.3125 45.5075 -25.3125 46.1875 C-24.5390625 46.47882813 -23.765625 46.77015625 -22.96875 47.0703125 C-14.19472602 50.5234556 -7.94159163 54.55840837 -1.3125 61.1875 C-0.6525 61.1875 0.0075 61.1875 0.6875 61.1875 C1.47338867 63.85229492 1.47338867 63.85229492 1.6875 67.1875 C-0.1550293 69.87231445 -0.1550293 69.87231445 -2.88671875 72.55078125 C-3.36695999 73.02823288 -3.84720123 73.50568451 -4.34199524 73.99760437 C-5.35874551 75.00161478 -6.38391512 75.99716071 -7.41674805 76.98461914 C-8.99478857 78.49501198 -10.54453703 80.03041836 -12.09179688 81.57226562 C-20.38079759 89.70256517 -20.38079759 89.70256517 -24.3125 90.1875 C-24.374375 89.630625 -24.43625 89.07375 -24.5 88.5 C-25.92555112 84.4426622 -28.9123233 82.00426974 -32.5625 79.875 C-39.0288668 78.2584083 -44.6483167 78.56243249 -50.51953125 81.84375 C-54.44804335 84.78799436 -56.77797875 88.58393625 -58.3125 93.1875 C-58.9157174 99.11913777 -58.21875982 102.45182723 -54.80859375 107.359375 C-51.61705283 111.25922135 -48.39528391 114.2458166 -43.3125 115.1875 C-40.52262318 115.29216558 -37.75737063 115.34468334 -34.96728516 115.34863281 C-34.12777817 115.35359772 -33.28827118 115.35856262 -32.42332458 115.36367798 C-29.64939552 115.37826886 -26.87552362 115.38509606 -24.1015625 115.390625 C-22.1710917 115.39637846 -20.24062092 115.40213617 -18.31015015 115.40789795 C-14.26340469 115.41839882 -10.21667904 115.42424764 -6.16992188 115.42773438 C-0.98923756 115.43322077 4.19118417 115.45725581 9.37178612 115.48570633 C13.35925051 115.50434509 17.34665176 115.50953895 21.33415604 115.51107025 C23.24389712 115.5140939 25.15363717 115.52211274 27.06333542 115.53525543 C29.73692485 115.55234371 32.40987394 115.55042907 35.08349609 115.54394531 C36.26198372 115.55776749 36.26198372 115.55776749 37.46427917 115.5718689 C43.68170383 115.52472683 47.70310719 113.94639362 52.4375 109.75 C56.88079805 104.68957723 57.12867944 100.71660501 57 94.09765625 C56.41993278 88.69578022 53.61122779 86.15419187 50 82.375 C45.86165721 79.64213212 42.55571305 79.30650076 37.6875 79.1875 C37.72230469 78.60484375 37.75710937 78.0221875 37.79296875 77.421875 C38.19484646 65.25072156 35.19710001 55.25384212 26.90625 46.25390625 C18.49614403 38.24017823 8.3437047 34.79491518 -3.08203125 34.90625 C-10.9408035 35.59044783 -19.24426348 39.07557583 -25.3125 44.1875 Z " fill="#FFFFFF" transform="translate(111.3125,54.8125)"/>
<path d="M0 0 C2.47277021 1.89981126 4.71652737 3.86875888 7 6 C6.19171594 10.27235862 4.43505325 11.36379634 1 14 C-0.37368345 15.63356951 -1.71937515 17.2925002 -3 19 C-7.4878025 18.48710829 -9.5446937 16.79715272 -13 14 C-18.68109582 11.01760655 -23.43970079 10.45318972 -29.8125 10.5 C-30.6996167 10.50499512 -31.5867334 10.50999023 -32.50073242 10.51513672 C-39.33200185 10.69727041 -44.45046522 11.82139773 -50 16 C-51.00933594 16.72123047 -51.00933594 16.72123047 -52.0390625 17.45703125 C-55.91090323 20.47642968 -58.12778177 23.37451967 -60 28 C-60.66 28 -61.32 28 -62 28 C-64.35858199 40.44573173 -66.24110802 53.02920998 -58.9375 64.1875 C-52.90745258 72.11128132 -45.94764838 77.38332508 -36 79 C-26.01610588 79.93888276 -17.3417041 78.71481782 -9.125 72.75 C-3.3466747 67.90925129 -1.40040318 63.20120955 1 56 C-9.89 56 -20.78 56 -32 56 C-32.020625 53.215625 -32.04125 50.43125 -32.0625 47.5625 C-32.071604 46.68408447 -32.08070801 45.80566895 -32.09008789 44.90063477 C-32.09723091 42.93354026 -32.05031893 40.96646379 -32 39 C-31 38 -31 38 -29.01951599 37.87974548 C-28.15125687 37.88196609 -27.28299774 37.88418671 -26.38842773 37.88647461 C-25.40748642 37.88655014 -24.4265451 37.88662567 -23.4158783 37.88670349 C-22.3492244 37.89186478 -21.2825705 37.89702606 -20.18359375 37.90234375 C-18.55430687 37.90446617 -18.55430687 37.90446617 -16.8921051 37.90663147 C-13.40720925 37.91224952 -9.92237658 37.92480508 -6.4375 37.9375 C-4.08138113 37.94251267 -1.72526126 37.94707598 0.63085938 37.95117188 C6.42059464 37.96222481 12.21029281 37.97898049 18 38 C22.07733658 45.53711106 20.72834169 55.26960113 18.56323242 63.3137207 C16.33544083 70.65248167 13.3277919 76.42898282 8 82 C7.23429687 82.91458984 7.23429687 82.91458984 6.453125 83.84765625 C-0.29077927 91.44289497 -10.81501801 97.18278005 -21 98 C-38.32394753 98.93455861 -52.72102141 96.397628 -66.25 84.6875 C-74.68813044 76.66392113 -83.23295038 66.04253908 -84.16113281 53.89038086 C-84.20702995 51.23928764 -84.23532065 48.58895813 -84.25 45.9375 C-84.270625 45.03322266 -84.29125 44.12894531 -84.3125 43.19726562 C-84.3897395 29.69000794 -78.78109586 17.51198518 -69.6484375 7.58203125 C-50.31208363 -10.97536998 -22.78734122 -14.89392052 0 0 Z " fill="#FFFFFF" transform="translate(338,85)"/>
<path d="M0 0 C0 -0.99 0 -1.98 0 -3 C2.64590014 -3.02684679 5.29153096 -3.04676357 7.9375 -3.0625 C8.69224609 -3.07087891 9.44699219 -3.07925781 10.22460938 -3.08789062 C12.14994313 -3.09652441 14.07535581 -3.05224333 16 -3 C17.85474032 -1.14525968 17.14718719 1.91663166 17.16113281 4.39648438 C17.16858017 5.39914337 17.16858017 5.39914337 17.17617798 6.42205811 C17.19084621 8.64596574 17.19761284 10.86980181 17.203125 13.09375 C17.20887709 14.64017743 17.21463482 16.18660484 17.22039795 17.73303223 C17.23092421 20.98478529 17.23675474 24.23651354 17.24023438 27.48828125 C17.24569182 31.63634293 17.26965328 35.7840718 17.29820633 39.93202972 C17.31692992 43.13213011 17.32204367 46.33215235 17.32357025 49.53230286 C17.32658057 51.05998026 17.3345538 52.58765682 17.34775543 54.11528015 C17.4451513 66.26281371 16.30042997 76.50886386 8 86 C-2.23692737 94.63589134 -11.47889584 94.93106102 -24.48242188 94.30029297 C-29.75602735 93.67126516 -33.84814512 91.26703335 -38 88 C-38 87.34 -38 86.68 -38 86 C-38.99 85.67 -39.98 85.34 -41 85 C-44.18197815 81.48754934 -46.50195817 77.4941255 -48 73 C-43.77611646 69.45193783 -39.24364255 67.39593692 -33.8125 66.4375 C-31 67 -31 67 -28.875 69.8125 C-28.25625 70.864375 -27.6375 71.91625 -27 73 C-23.32104883 76.3340495 -20.49799182 76.88903764 -15.625 77.25 C-11.68279365 76.9781237 -9.41469662 75.90587718 -6 74 C-5.34 74 -4.68 74 -4 74 C-3.01 69.38 -2.02 64.76 -1 60 C-2.32 60.99 -3.64 61.98 -5 63 C-11.73953696 66.12320006 -19.63779626 65.93624556 -26.6875 63.875 C-31.43737501 62.07361628 -35.1634883 59.27878092 -39 56 C-40.299375 54.948125 -40.299375 54.948125 -41.625 53.875 C-48.82333901 45.1612212 -51.29864036 36.61165918 -50.64453125 25.48828125 C-49.680012 16.73269388 -45.5153309 8.94453116 -39.125 2.875 C-27.17827415 -6.25801822 -13.04224264 -7.48721337 0 0 Z M-28.28515625 17.68359375 C-31.60337877 23.21396462 -32.43357688 27.60474108 -32 34 C-29.87196033 40.49612109 -26.6407177 44.23952153 -21 48 C-15.8286175 48.69817723 -11.33342495 48.60610225 -6.5625 46.4375 C-1.27231019 41.40536823 0.25341643 37.78001907 0.5625 30.5625 C0.35985092 24.4830276 -0.84780026 20.47075474 -5 16 C-8.38135138 12.9260442 -10.94840725 11.74388959 -15.4375 11.5 C-20.77372899 11.77849007 -24.98156024 13.35578256 -28.28515625 17.68359375 Z " fill="#FFFFFF" transform="translate(554,118)"/>
<path d="M0 0 C1.97909398 -0.02686553 3.95828971 -0.04633375 5.9375 -0.0625 C7.03964844 -0.07410156 8.14179687 -0.08570312 9.27734375 -0.09765625 C12 0 12 0 13 1 C13.09523905 3.89143151 13.12553027 6.75892064 13.11352539 9.65063477 C13.11367142 10.55786285 13.11381744 11.46509094 13.1139679 12.39981079 C13.11326841 15.41369985 13.10547434 18.42752793 13.09765625 21.44140625 C13.0957922 23.52505967 13.09436824 25.60871354 13.09336853 27.69236755 C13.08954234 33.18823446 13.0797112 38.68407513 13.06866455 44.17993164 C13.0584526 49.78336227 13.05387137 55.38679713 13.04882812 60.99023438 C13.03808902 71.99350114 13.02101139 82.99674839 13 94 C8.38 94 3.76 94 -1 94 C-1.33 92.68 -1.66 91.36 -2 90 C-2.845625 90.61875 -3.69125 91.2375 -4.5625 91.875 C-11.79063757 96.61531348 -20.04001953 96.98359155 -28.390625 95.60546875 C-37.52727216 93.12962905 -44.1938137 85.86466849 -49 78 C-52.97776882 67.74683415 -53.26605665 55.8622412 -49.03125 45.66796875 C-44.80672846 37.29028582 -38.68544649 30.72423266 -29.70703125 27.62109375 C-21.6596312 25.77472058 -13.45474294 26.34777715 -6 30 C-4.65715719 30.98719349 -3.32261641 31.98586805 -2 33 C-2.01571045 31.71367676 -2.01571045 31.71367676 -2.03173828 30.40136719 C-2.06588296 27.21078487 -2.09092959 24.02029588 -2.10986328 20.82958984 C-2.11990253 19.45032685 -2.13353677 18.07108504 -2.15087891 16.69189453 C-2.17521754 14.7061486 -2.18543255 12.7202455 -2.1953125 10.734375 C-2.21102295 8.94338379 -2.21102295 8.94338379 -2.22705078 7.11621094 C-2.01034762 4.14201836 -1.56186122 2.49681621 0 0 Z M-31.6875 46.75 C-35.78457677 52.50805383 -38.12666476 57.86872417 -37 65 C-35.12787446 72.18762486 -32.19775029 76.86307801 -26 81 C-21.84466331 83.07766834 -16.34175723 82.70432162 -11.9609375 81.38671875 C-6.9903294 78.9014147 -4.42600507 74.88208458 -2 70 C-0.11860612 64.35581837 -0.01165839 57.61584021 -2.3125 52.0625 C-4.37077711 48.32502071 -4.37077711 48.32502071 -7 45 C-7.66 45 -8.32 45 -9 45 C-9 44.34 -9 43.68 -9 43 C-17.69338534 39.52264586 -24.89868763 39.80330827 -31.6875 46.75 Z " fill="#FFFFFF" transform="translate(992,87)"/>
<path d="M0 0 C3.47413599 2.55555088 6.43611196 5.48478756 9.3046875 8.6953125 C7.89624032 11.91055555 6.20123964 14.01715118 3.6796875 16.4453125 C2.73222656 17.36570312 2.73222656 17.36570312 1.765625 18.3046875 C1.28351563 18.76359375 0.80140625 19.2225 0.3046875 19.6953125 C-2.58184153 18.38950175 -4.57495481 16.97496218 -6.8203125 14.7578125 C-12.45153055 9.83651296 -19.80891471 8.01899387 -27.21875 8.359375 C-37.85298887 9.80187428 -45.71470895 13.42598215 -52.6953125 21.6953125 C-58.41401125 29.84750008 -58.44511343 40.89392634 -57.1328125 50.4453125 C-55.30213455 58.67730144 -51.07065943 65.69843104 -44.03125 70.4453125 C-35.77766637 74.86194588 -27.552115 77.20652076 -18.41015625 74.84765625 C-10.26044746 72.27635775 -4.54093328 68.92754841 1.3046875 62.6953125 C4.40910781 64.0857624 6.6703318 65.71102848 9.1171875 68.0703125 C10.05498047 68.94816406 10.05498047 68.94816406 11.01171875 69.84375 C12.3046875 71.6953125 12.3046875 71.6953125 12.28125 73.67578125 C8.45205944 81.59454734 -2.86042598 86.58857653 -10.76171875 89.44140625 C-26.04970983 93.64777951 -41.15081634 90.12862601 -54.6953125 82.6953125 C-54.6953125 82.0353125 -54.6953125 81.3753125 -54.6953125 80.6953125 C-55.56542969 80.32019531 -55.56542969 80.32019531 -56.453125 79.9375 C-64.5394261 75.45763284 -69.45311392 66.00835454 -72.6953125 57.6953125 C-75.9307233 43.87128456 -74.81121645 28.56957999 -67.6953125 16.3203125 C-65.83227292 13.34138983 -63.95752333 10.38783517 -61.6953125 7.6953125 C-61.0353125 7.6953125 -60.3753125 7.6953125 -59.6953125 7.6953125 C-59.6953125 7.0353125 -59.6953125 6.3753125 -59.6953125 5.6953125 C-57.68359375 4.07421875 -57.68359375 4.07421875 -55.0078125 2.2578125 C-54.13769531 1.66097656 -53.26757812 1.06414062 -52.37109375 0.44921875 C-51.48808594 -0.12957031 -50.60507812 -0.70835938 -49.6953125 -1.3046875 C-48.88449219 -1.83835937 -48.07367187 -2.37203125 -47.23828125 -2.921875 C-32.56162514 -10.90272948 -13.67678982 -8.69546701 0 0 Z " fill="#FFFFFF" transform="translate(763.6953125,92.3046875)"/>
<path d="M0 0 C1.26517456 0.01353516 1.26517456 0.01353516 2.5559082 0.02734375 C11.11871356 0.26642159 16.40875696 2.20280474 22.8125 7.9375 C27.29544468 12.72650918 32.59246902 19.84249842 32.640625 26.64453125 C31.03477702 29.47947056 28.83799403 29.8377903 25.8125 30.875 C24.62527344 31.29910156 23.43804688 31.72320312 22.21484375 32.16015625 C20.43787109 32.79244141 20.43787109 32.79244141 18.625 33.4375 C16.7018964 34.21339932 14.784872 35.00457911 12.875 35.8125 C7.71790916 37.98208257 2.54938451 40.12208534 -2.625 42.25 C-3.3890918 42.56437012 -4.15318359 42.87874023 -4.94042969 43.20263672 C-6.75186126 43.94781449 -8.56341701 44.69269041 -10.375 45.4375 C-5.3852051 50.59962679 -5.3852051 50.59962679 1.375 51.6875 C7.54508885 51.60759957 10.9728804 49.98187267 15.5 45.75 C16.20125 44.986875 16.9025 44.22375 17.625 43.4375 C21.24776315 44.7630581 24.26005348 46.38096955 27.4375 48.5625 C28.62279297 49.37074219 28.62279297 49.37074219 29.83203125 50.1953125 C30.42371094 50.60523438 31.01539063 51.01515625 31.625 51.4375 C29.28633086 58.60520489 23.45499094 63.28491914 17.01171875 66.90625 C7.95794961 70.66188757 -3.10231827 71.21433071 -12.29296875 67.53125 C-21.1595594 62.87337874 -28.18422768 55.64468823 -31.546875 46.1171875 C-32.42426784 42.21858349 -32.7210131 38.53811137 -32.6875 34.5625 C-32.68186035 33.85996094 -32.6762207 33.15742188 -32.67041016 32.43359375 C-32.42757649 22.02781042 -28.91629274 15.06796297 -21.67578125 7.7109375 C-15.02166905 1.63999468 -8.83982932 -0.11228522 0 0 Z M-12.1875 22.3125 C-13.67404661 24.97263604 -13.93023607 27.44248416 -14.375 30.4375 C-11.30937022 29.34189364 -8.2481245 28.23450428 -5.1875 27.125 C-3.89102539 26.6619043 -3.89102539 26.6619043 -2.56835938 26.18945312 C1.77313313 24.60921639 5.76507666 23.03475691 9.625 20.4375 C8.47994765 18.3599715 8.47994765 18.3599715 6.625 16.4375 C-1.11037476 14.78599142 -6.74820642 16.68564458 -12.1875 22.3125 Z " fill="#FFFFFF" transform="translate(631.375,113.5625)"/>
<path d="M0 0 C0.83563477 0.00757324 1.67126953 0.01514648 2.53222656 0.02294922 C11.89999319 0.27292663 18.43223826 2.83287781 25.4453125 9.0703125 C26.625 10.4375 26.625 10.4375 26.625 12.4375 C27.615 12.7675 28.605 13.0975 29.625 13.4375 C30.7578125 15.109375 30.7578125 15.109375 31.75 17.1875 C32.24886719 18.20070312 32.24886719 18.20070312 32.7578125 19.234375 C36.12571091 27.79065745 36.21941266 40.91722617 32.71875 49.42578125 C27.98079405 58.14023595 20.54040884 65.91968592 10.8125 68.875 C0.79677523 70.69604087 -9.95605028 70.37640096 -18.78125 64.9609375 C-26.34171014 59.4418016 -32.75207472 51.92920112 -35.0625 42.6875 C-36.14874295 31.3905733 -34.91551729 21.97405265 -28.171875 12.54296875 C-20.51243171 3.56809933 -11.60413404 -0.14733181 0 0 Z M-15.05859375 24.71875 C-17.61879876 30.00629506 -17.16803456 35.72507222 -16.375 41.4375 C-14.37842191 45.97954363 -11.55715495 48.59685648 -7.5625 51.4375 C-2.10691926 53.14905474 2.54470611 53.18326573 7.9375 51.25 C13.47368759 47.51629209 15.88182787 42.71291965 17.625 36.4375 C18.49677185 31.3158404 16.77201737 27.86952447 14.16015625 23.5625 C11.09116843 19.31433365 8.22512068 16.94275514 3.01171875 15.9296875 C-5.13896557 15.41111007 -10.25750521 18.21333072 -15.05859375 24.71875 Z " fill="#FFFFFF" transform="translate(466.375,113.5625)"/>
<path d="M0 0 C0.83789062 -0.01546875 1.67578125 -0.0309375 2.5390625 -0.046875 C11.61393916 0.00931619 18.56320217 3.37702677 25.14453125 9.51171875 C33.18437296 18.12704386 35.44817325 26.32473727 35.25 37.9921875 C34.67081645 46.11885674 32.26106895 52.29463662 27 58.5 C26.34 58.5 25.68 58.5 25 58.5 C25 59.16 25 59.82 25 60.5 C15.0941635 68.22072551 6.39489712 70.49544511 -6 69.5 C-14.80987833 68.06643992 -22.56866994 63.87003034 -28.11328125 56.80859375 C-32.85199046 49.59751452 -35.39573258 43.40140236 -35.375 34.6875 C-35.37258301 33.62909912 -35.37258301 33.62909912 -35.37011719 32.54931641 C-35.232773 26.69333733 -34.0625441 22.43409882 -31 17.5 C-30.4225 16.46875 -29.845 15.4375 -29.25 14.375 C-21.5176472 4.49477142 -12.53798639 -0.23147052 0 0 Z M-14 23.5 C-17.09069371 28.71554564 -17.88887717 33.56393521 -17 39.5 C-15.63177941 44.29307464 -13.42779936 47.57935917 -9.375 50.5 C-4.64481098 53.08489883 -0.2673291 53.51166162 5 52.5 C10.1162406 50.66272459 13.11363782 48.00619537 15.5 43.125 C17.85275045 36.79871545 17.5226831 31.53752112 14.984375 25.359375 C12.72345454 21.08874746 9.39496471 18.32925558 5 16.5 C-3.43619279 15.01973636 -8.64979012 16.82535091 -14 23.5 Z " fill="#FFFFFF" transform="translate(394,113.5)"/>
<path d="M0 0 C6.46685311 4.75292099 11.02076603 12.35543739 12.35498047 20.22998047 C13.44123875 30.76059649 12.88104097 40.11729885 7.0703125 49.1796875 C1.26994056 56.28913421 -6.04358553 60.92388839 -15.05859375 62.7890625 C-26.10148426 63.63104242 -35.29466389 62.17480323 -43.9453125 54.953125 C-52.49455611 46.1984467 -54.34083619 38.04352797 -54.30078125 26.23608398 C-54.11681644 15.50288695 -50.76448129 8.45474541 -43.05859375 0.7890625 C-29.52367287 -9.14738027 -14.03208256 -8.25416621 0 0 Z M-36.05859375 15.7890625 C-40.3020918 21.67653073 -39.80617184 27.79330539 -39.05859375 34.7890625 C-38.0280455 37.86286227 -36.81967487 40.03737325 -35.05859375 42.7890625 C-34.39859375 42.7890625 -33.73859375 42.7890625 -33.05859375 42.7890625 C-33.05859375 43.4490625 -33.05859375 44.1090625 -33.05859375 44.7890625 C-28.21157099 48.16090442 -24.50479815 49.56833474 -18.55078125 49.296875 C-12.65000706 48.09452289 -8.59722492 43.89517674 -5.05859375 39.2265625 C-1.95801988 33.79008332 -2.33950355 27.84206353 -3.05859375 21.7890625 C-5.12050509 15.71185012 -8.85177253 11.95265915 -14.49609375 8.9765625 C-23.30766543 6.03937194 -30.08824914 8.82366046 -36.05859375 15.7890625 Z " fill="#FFFFFF" transform="translate(858.05859375,120.2109375)"/>
<path d="M0 0 C4.95 0 9.9 0 15 0 C15.01458252 1.23564697 15.02916504 2.47129395 15.04418945 3.74438477 C15.10237196 8.34981528 15.17960345 12.95476706 15.26245117 17.55981445 C15.29560684 19.54899294 15.32366765 21.53826339 15.34643555 23.52758789 C15.380154 26.39509084 15.43247823 29.26175817 15.48828125 32.12890625 C15.49467117 33.01147598 15.5010611 33.89404572 15.50764465 34.80335999 C15.65260925 40.95769906 16.35443053 46.33252105 20.88671875 50.90234375 C24.83169399 52.95139743 28.69618947 52.81316236 33 52 C36.90518956 49.92246771 39.34801315 47.55924263 41.06005859 43.46484375 C42.23449977 39.13557905 42.35294335 35.12970333 42.4140625 30.6640625 C42.43342865 29.78471039 42.4527948 28.90535828 42.4727478 27.99935913 C42.53222815 25.20800282 42.5788021 22.41660457 42.625 19.625 C42.66320885 17.72524306 42.70226226 15.8255029 42.7421875 13.92578125 C42.83790357 9.2839915 42.9220504 4.64212071 43 0 C47.95 0 52.9 0 58 0 C58 21.45 58 42.9 58 65 C53.38 65 48.76 65 44 65 C43.34 63.68 42.68 62.36 42 61 C41.278125 61.61875 40.55625 62.2375 39.8125 62.875 C33.07275073 67.967255 26.17096479 67.61258675 18 67 C13.26991776 65.89604554 9.52273286 63.3092339 6 60 C6 59.34 6 58.68 6 58 C5.34 58 4.68 58 4 58 C3.51801537 56.75108386 3.03954323 55.50081192 2.5625 54.25 C2.29566406 53.55390625 2.02882813 52.8578125 1.75390625 52.140625 C0.45404639 48.4498312 -0.12429789 45.24443311 -0.11352539 41.32324219 C-0.11341209 39.94226349 -0.11341209 39.94226349 -0.11329651 38.53338623 C-0.10813522 37.54783752 -0.10297394 36.56228882 -0.09765625 35.546875 C-0.0962413 34.53151672 -0.09482635 33.51615845 -0.09336853 32.47003174 C-0.08777516 29.22999108 -0.07522385 25.99001975 -0.0625 22.75 C-0.05748414 20.55208433 -0.05292139 18.35416758 -0.04882812 16.15625 C-0.0378079 10.77080666 -0.02054778 5.38541508 0 0 Z " fill="#FFFFFF" transform="translate(876,116)"/>
<path d="M0 0 C5.61 0 11.22 0 17 0 C17 33.33 17 66.66 17 101 C11.39 101 5.78 101 0 101 C-1.93006245 99.06993755 -1.12683226 96.17276871 -1.13552856 93.60401917 C-1.13350433 92.68346237 -1.1314801 91.76290558 -1.12939453 90.81445312 C-1.13114685 89.85030991 -1.13289917 88.88616669 -1.13470459 87.89280701 C-1.13912493 84.68893664 -1.13618447 81.48512098 -1.1328125 78.28125 C-1.13348549 76.06547027 -1.13445547 73.84969061 -1.13571167 71.63391113 C-1.13718889 66.98330993 -1.13503331 62.33272789 -1.13037109 57.68212891 C-1.1246738 51.70617396 -1.12795267 45.73026391 -1.13394356 39.75431061 C-1.13754852 35.17685606 -1.13641088 30.59941225 -1.13381577 26.0219574 C-1.13314632 23.81782526 -1.13397554 21.61369217 -1.13629532 19.40956116 C-1.13882078 16.33486328 -1.13498275 13.26023922 -1.12939453 10.18554688 C-1.13141876 9.26499008 -1.13344299 8.34443329 -1.13552856 7.39598083 C-1.11426228 1.11426228 -1.11426228 1.11426228 0 0 Z " fill="#FFFFFF" transform="translate(578,80)"/>
<path d="M0 0 C1.1859375 0.00257812 2.371875 0.00515625 3.59375 0.0078125 C4.7796875 0.00523438 5.965625 0.00265625 7.1875 0 C10.09375 0.1328125 10.09375 0.1328125 11.09375 1.1328125 C11.18898905 4.02424401 11.21928027 6.89173314 11.20727539 9.78344727 C11.20742142 10.69067535 11.20756744 11.59790344 11.2077179 12.53262329 C11.20701841 15.54651235 11.19922434 18.56034043 11.19140625 21.57421875 C11.1895422 23.65787217 11.18811824 25.74152604 11.18711853 27.82518005 C11.18329234 33.32104696 11.1734612 38.81688763 11.16241455 44.31274414 C11.1522026 49.91617477 11.14762137 55.51960963 11.14257812 61.12304688 C11.13183902 72.12631364 11.11476139 83.12956089 11.09375 94.1328125 C6.14375 94.1328125 1.19375 94.1328125 -3.90625 94.1328125 C-3.92937178 82.02439306 -3.94716424 69.91597883 -3.95806217 57.80754185 C-3.96329136 52.18573288 -3.97038966 46.56393897 -3.98168945 40.94213867 C-3.99251706 35.52162973 -3.99852656 30.1011353 -4.00112724 24.68061638 C-4.00298172 22.60766305 -4.00660277 20.53471056 -4.01198006 18.46176338 C-4.0191888 15.56897357 -4.02024101 12.67624454 -4.01977539 9.78344727 C-4.02337067 8.91742386 -4.02696594 8.05140045 -4.03067017 7.15913391 C-4.01843764 0.18363828 -4.01843764 0.18363828 0 0 Z " fill="#FFFFFF" transform="translate(785.90625,86.8671875)"/>
</svg>
