<?xml version="1.0" encoding="UTF-8"?>
<svg version="1.1" xmlns="http://www.w3.org/2000/svg" width="955" height="261">
<path d="M0 0 C11.55 0 23.1 0 35 0 C40.48760262 10.56104656 45.33160785 21.24576743 49.87817383 32.24560547 C53.36009846 40.63614407 57.14601099 48.74145213 61 57 C66.61 69.87 72.22 82.74 78 96 C78.66 64.65 79.32 33.3 80 1 C90.76625 0.95875 101.5325 0.9175 112.625 0.875 C115.99541504 0.85679199 119.36583008 0.83858398 122.83837891 0.81982422 C125.55110516 0.81397544 128.26383318 0.8088808 130.9765625 0.8046875 C131.6606015 0.79946075 132.3446405 0.79423401 133.04940796 0.78884888 C152.22758214 0.64993129 170.93397529 2.77108299 185.75 16.125 C196.42731265 27.53432699 197.59577546 42.02500139 197.3125 56.8125 C196.86054467 67.20747263 193.52835565 75.93088888 187 84 C186.52175781 84.61359375 186.04351563 85.2271875 185.55078125 85.859375 C176.84550298 95.77067419 162.71454012 100.13458478 149.91238213 101.16861725 C144.53179217 101.42192128 139.15043798 101.37060023 133.765625 101.328125 C132.03513759 101.3250552 130.30464769 101.32318839 128.57415771 101.32244873 C124.9669836 101.3178791 121.36003687 101.30359083 117.75292969 101.28125 C113.18362287 101.25305692 108.61449437 101.2420417 104.0451088 101.2375679 C99.61859237 101.23235102 95.19211805 101.21787284 90.765625 101.203125 C89.94896614 101.20124428 89.13230728 101.19936356 88.29090118 101.19742584 C76.83034592 101.16333354 65.43684218 100.73834854 54 100 C50.38172411 93.00466662 47.51870469 86.55611407 45 79 C17.775 79.495 17.775 79.495 -10 80 C-14.455 89.405 -14.455 89.405 -19 99 C-22.62937669 99.72587534 -25.27621783 100.12079859 -28.86328125 100.09765625 C-30.19262695 100.09282227 -30.19262695 100.09282227 -31.54882812 100.08789062 C-32.46083984 100.07951172 -33.37285156 100.07113281 -34.3125 100.0625 C-35.24384766 100.05798828 -36.17519531 100.05347656 -37.13476562 100.04882812 C-39.42324373 100.03709234 -41.71158808 100.02067363 -44 100 C-44.33 99.34 -44.66 98.68 -45 98 C-43.90281506 95.2683865 -42.73508887 92.64907248 -41.46875 89.99609375 C-40.89488052 88.7691983 -40.89488052 88.7691983 -40.30941772 87.51751709 C-39.48036488 85.74723722 -38.64772463 83.97863401 -37.81195068 82.21151733 C-36.04915786 78.48422949 -34.30320927 74.74914118 -32.55636597 71.01435852 C-31.66607674 69.11134614 -30.7748948 67.20875114 -29.88284302 65.30656433 C-25.81554982 56.62930851 -21.82938024 47.91667992 -17.875 39.1875 C-17.26083931 37.83365171 -16.6466631 36.47981046 -16.0324707 35.12597656 C-12.20604123 26.6860193 -8.39403634 18.23946256 -4.61083984 9.7800293 C-3.13398396 6.48319839 -1.61608687 3.23217374 0 0 Z M17 19 C14.75106433 23.71069111 12.50929724 28.42470279 10.27392578 33.1418457 C9.51348777 34.744001 8.75114506 36.34525377 7.98681641 37.94555664 C6.88454637 40.25428782 5.78930946 42.56624551 4.6953125 44.87890625 C4.3556546 45.58648575 4.0159967 46.29406525 3.66604614 47.02308655 C3.34586517 47.7032634 3.0256842 48.38344025 2.69580078 49.08422852 C2.41600372 49.67269058 2.13620667 50.26115265 1.84793091 50.8674469 C0.66975162 53.83057735 -0.12397775 56.93392213 -1 60 C11.21 60 23.42 60 36 60 C34.11241207 54.33723621 32.33657099 49.24249601 29.8984375 43.8828125 C29.61650543 43.25897675 29.33457336 42.63514099 29.0440979 41.99240112 C28.15854911 40.03468636 27.26712252 38.07972665 26.375 36.125 C25.47680257 34.1483874 24.57988228 32.17120866 23.68447876 30.19332886 C22.8785547 28.41438302 22.06901625 26.63707593 21.25927734 24.85986328 C20 22 20 22 19 19 C18.34 19 17.68 19 17 19 Z M103 20 C103 40.13 103 60.26 103 81 C111.22933955 81.74812178 119.13282614 82.21623576 127.36035156 82.24023438 C129.3656544 82.2499547 131.36993501 82.28110955 133.375 82.3125 C145.5607519 82.36057003 157.54104655 81.41478326 167 73 C172.50494153 66.22468735 173.36240636 59.61893868 173.375 51.1875 C173.41173828 49.91036133 173.41173828 49.91036133 173.44921875 48.60742188 C173.48383008 41.0333093 171.51985165 35.06468444 166.6875 29.1875 C149.29251373 15.02879024 123.49028627 20 103 20 Z " fill="#343433" transform="translate(703,88)"/>
<path d="M0 0 C8.69861163 5.51731727 16.02287362 13.05115469 23.19921875 20.37109375 C23.75927109 20.94130249 24.31932343 21.51151123 24.89634705 22.09899902 C27.20605073 24.45395403 29.51381229 26.81049009 31.80639648 29.18212891 C42.93634707 40.67489212 58.03230523 55.79384935 75.08984375 56.10546875 C90.40972684 56.33709952 100.57588789 54.28279969 113.19140625 45.15234375 C116.59909939 43.50262846 118.18413398 43.78155478 121.7734375 44.90234375 C124.51953125 46.72265625 124.51953125 46.72265625 127.2109375 49.02734375 C128.15710938 49.836875 129.10328125 50.64640625 130.078125 51.48046875 C141.50404974 61.74724171 141.50404974 61.74724171 142.0859375 66.40234375 C141.7734375 68.90234375 141.7734375 68.90234375 140.5859375 70.65234375 C136.19674533 73.67937283 130.36171398 73.14096129 125.2109375 73.33203125 C123.50909347 73.4057643 121.80727115 73.47999968 120.10546875 73.5546875 C117.45116875 73.66733554 114.79689784 73.77646001 112.14208984 73.87646484 C91.3250242 74.3684055 91.3250242 74.3684055 72.7734375 82.90234375 C67.90425033 88.28693235 67.41156497 93.85548505 67.50390625 100.83984375 C68.23791508 109.17988606 73.85224579 115.3601083 79.7734375 120.90234375 C96.76298 134.34948507 117.29123521 143.61992344 136.80078125 152.73046875 C172.35735857 169.35282187 172.35735857 169.35282187 176.7734375 179.90234375 C177.47499684 184.18185574 177.72341944 186.412176 175.37890625 190.08984375 C171.12981968 195.1257982 167.47532462 198.28223851 160.9609375 199.77734375 C154.72630641 200.26496853 150.68925662 198.44600649 145.91796875 194.6015625 C136.6596169 186.47401302 128.77546687 177.17480699 121.0234375 167.6328125 C109.47435523 153.61751996 97.36248154 140.66714119 78.4609375 138.52734375 C69.29122548 139.45985684 61.1641513 143.25466069 54.7734375 149.90234375 C47.55516535 159.0207902 42.29236248 169.25911264 37.23510742 179.69335938 C33.94118109 186.30979026 29.66037304 194.45887598 22.7734375 197.90234375 C19.60083794 198.62711865 16.94842672 198.64317457 13.7734375 197.90234375 C6.82214287 193.35726649 0.61428724 186.83031822 -1.8828125 178.7890625 C-3.48037868 170.14069942 0.29111831 162.80425046 5.07519531 155.80151367 C8.89296076 150.42899208 13.01892643 145.37779193 17.3359375 140.40234375 C29.27975724 126.5670164 38.15991255 111.74902452 37.1796875 92.87109375 C35.2504618 74.02404267 20.69151982 59.76068347 7.90625 47.05859375 C7.03202393 46.18928223 6.15779785 45.3199707 5.25708008 44.42431641 C3.52107638 42.70402099 1.77903621 40.98978836 0.0300293 39.28271484 C-19.99228636 19.55325528 -19.99228636 19.55325528 -20.2265625 6.90234375 C-18.97094646 3.06163587 -17.85357562 1.36513915 -14.6015625 -1.03515625 C-9.3253472 -2.69618699 -5.00349912 -2.46663729 0 0 Z " fill="#343433" transform="translate(50.2265625,27.09765625)"/>
<path d="M0 0 C55.31624254 -0.17647862 55.31624254 -0.17647862 74.21298218 0.26345825 C75.63575513 0.29573147 77.05864061 0.32342375 78.4815979 0.34616089 C89.88116367 0.53932747 100.64099756 1.47344517 109 10 C115.58908135 18.75190958 116.56881547 28.24858567 115.46875 38.88671875 C114.30974288 46.5844577 112.10812943 52.88237805 106 58 C101.326581 60.91627252 97.56870617 63 92 63 C94.32881538 66.84156657 96.65835313 70.68269389 98.98852539 74.5234375 C99.77908268 75.82670604 100.5694516 77.13008887 101.35961914 78.43359375 C102.50355818 80.32062285 103.64821365 82.20721587 104.79296875 84.09375 C105.16163055 84.70226807 105.53029236 85.31078613 105.91012573 85.93774414 C107.91788117 89.24515436 109.96328331 92.52372235 112.05078125 95.78125 C114 99 114 99 114 101 C91.06258165 103.09400589 91.06258165 103.09400589 84.94921875 98.9140625 C82.32692774 94.48349542 80.6001044 90.0617797 79.16845703 85.14306641 C76.75552295 77.25400519 74.1642761 69.64589825 67 65 C53.22430603 61.03187566 37.06789121 63.09490772 23 64 C23 75.88 23 87.76 23 100 C15.08 100 7.16 100 -1 100 C-1.33 81.19 -1.66 62.38 -2 43 C-1.34 43 -0.68 43 0 43 C0 28.81 0 14.62 0 0 Z M23 20 C23 27.92 23 35.84 23 44 C34.40599816 45.11190548 45.76095088 45.21960468 57.21386719 45.24023438 C60.52042697 45.2500607 63.8263947 45.2812244 67.1328125 45.3125 C69.24478802 45.31902067 71.35676792 45.3242748 73.46875 45.328125 C74.94377991 45.3466452 74.94377991 45.3466452 76.4486084 45.36553955 C82.78373511 45.34484378 86.39383976 44.60616024 91 40 C92.64511837 35.55818041 92.51559866 30.74510316 91.1875 26.25 C89.29267486 22.659805 87.87173344 21.29057781 84 20 C82.02157239 19.91111169 80.04023366 19.88239127 78.05981445 19.88647461 C76.83877518 19.88655014 75.6177359 19.88662567 74.35969543 19.88670349 C73.04087875 19.89186478 71.72206207 19.89702606 70.36328125 19.90234375 C68.99993441 19.9042092 67.63658689 19.9056325 66.27323914 19.90663147 C62.68771509 19.91044668 59.10223165 19.92026845 55.51672363 19.93133545 C51.8568578 19.94157099 48.1969854 19.94613368 44.53710938 19.95117188 C37.35805227 19.96189162 30.179037 19.97948035 23 20 Z " fill="#343433" transform="translate(451,86)"/>
<path d="M0 0 C3.0321985 0.01604852 6.06305723 0.0000951 9.09521484 -0.01904297 C28.33496229 -0.04182817 47.8062774 1.36379749 62.49365234 15.45361328 C72.45071798 26.96574511 75.05516556 41.45050987 74.34863281 56.30175781 C73.2886384 68.66065729 69.07535901 79.9531344 60.04443359 88.64111328 C45.14233049 100.93534834 27.88893071 101.8921881 9.43530273 101.72729492 C6.60745776 101.70361767 3.78055656 101.7067699 0.95263672 101.71337891 C-17.21675587 101.6865389 -36.3588737 100.91680185 -50.83056641 88.39111328 C-61.36003829 77.54199672 -64.92325134 65.10481625 -64.86572266 50.13720703 C-64.47898726 35.24289336 -60.6315391 22.65865143 -49.64306641 12.14111328 C-35.47003157 0.25938575 -17.58659565 -0.11053622 0 0 Z M-33.83056641 27.39111328 C-40.57867229 35.05797537 -41.24212386 44.09813557 -41.08447266 53.91455078 C-40.46129992 62.44722357 -37.78101735 69.32095171 -31.76806641 75.51611328 C-21.16662041 82.2829937 -10.00525322 82.19107593 2.16943359 82.39111328 C2.98524902 82.41157715 3.80106445 82.43204102 4.64160156 82.453125 C24.65361708 83.19632719 24.65361708 83.19632719 42.10693359 74.70361328 C48.78759829 67.80025976 50.3008897 60.68039597 50.48193359 51.26611328 C50.26033396 42.37322363 48.81333289 34.54293907 42.66943359 27.72705078 C32.74114372 18.39629687 18.85006563 19.20439365 6.07104492 19.20581055 C3.87252288 19.20362875 1.67450759 19.18543684 -0.52392578 19.16650391 C-12.69062706 19.11599543 -24.01586352 19.38344956 -33.83056641 27.39111328 Z " fill="#343433" transform="translate(373.83056640625,84.60888671875)"/>
<path d="M0 0 C2.89589652 -0.02706445 5.79153795 -0.04687029 8.6875 -0.0625 C9.91243164 -0.07506836 9.91243164 -0.07506836 11.16210938 -0.08789062 C11.95810547 -0.09111328 12.75410156 -0.09433594 13.57421875 -0.09765625 C14.66609497 -0.10551147 14.66609497 -0.10551147 15.7800293 -0.11352539 C18 0 18 0 23 1 C23 14.2 23 27.4 23 41 C41.45527338 42.70743539 41.45527338 42.70743539 59.29296875 37.390625 C62.16969254 34.28635572 64.05140612 30.73691381 66 27 C67.25107494 25.36397892 68.54129004 23.75688562 69.875 22.1875 C72.38960208 19.19084969 74.47266316 16.21512464 76.3984375 12.82421875 C79.31993255 8.08166713 82.0694168 3.80941029 87 1 C96.16547715 -0.96566343 105.75117367 0.00663231 115 1 C115 4.95782286 113.75270073 5.66724162 111.0625 8.5 C107.81512452 12.00028634 104.68772505 15.53543566 101.6875 19.25 C98.19567335 23.56450833 94.62426002 27.79711501 91 32 C85.89777507 37.91965456 80.91255161 43.92133766 76 50 C79.41087446 55.48705892 83.49849297 60.35056274 87.61376953 65.32080078 C94.55469901 73.72864033 101.41412819 82.20665054 108.1875 90.75 C108.64495605 91.32210205 109.10241211 91.8942041 109.57373047 92.48364258 C111.7326347 95.22195558 113.50425786 97.85754992 115 101 C110.50112115 101.26297403 106.00422868 101.42174285 101.5 101.5625 C99.59734375 101.67561523 99.59734375 101.67561523 97.65625 101.79101562 C88.39527705 102.00806968 88.39527705 102.00806968 84.4909668 99.18725586 C82.43577854 96.89486534 80.70607098 94.56015218 79 92 C78.09957231 90.86590531 77.19047372 89.73859353 76.26953125 88.62109375 C75.44773946 87.56204827 74.62875648 86.50081766 73.8125 85.4375 C70.72671549 81.45361818 67.60945381 77.50373961 64.40625 73.61328125 C63.8083667 72.88633057 63.2104834 72.15937988 62.59448242 71.41040039 C61.42151684 69.98834635 60.24468937 68.56946751 59.0637207 67.15405273 C58.53351318 66.51024658 58.00330566 65.86644043 57.45703125 65.203125 C56.98241455 64.63239258 56.50779785 64.06166016 56.01879883 63.47363281 C55 62 55 62 55 60 C44.44 60 33.88 60 23 60 C23 73.2 23 86.4 23 100 C15.08 100 7.16 100 -1 100 C-1.12421586 75.63989057 -0.93457986 51.29354793 -0.5 26.9375 C-0.48804218 26.26708553 -0.47608437 25.59667107 -0.46376419 24.90594101 C-0.31513679 16.60384675 -0.16047627 8.30187339 0 0 Z " fill="#343433" transform="translate(205,84)"/>
<path d="M0 0 C8.25 0 16.5 0 25 0 C26.79493621 4.06375675 28.58963373 8.12761722 30.38366699 12.19177246 C31.04449553 13.68878794 31.7053842 15.18577688 32.36633301 16.68273926 C36.55678236 26.17470742 40.73573981 35.67160748 44.8984375 45.17578125 C45.30367645 46.10059799 45.70891541 47.02541473 46.12643433 47.97825623 C48.11785466 52.52303825 50.10777959 57.06846412 52.09521484 61.61499023 C52.82903063 63.29023289 53.56291407 64.96544593 54.296875 66.640625 C54.62754974 67.39865921 54.95822449 68.15669342 55.29891968 68.93769836 C57.0894788 73.01960144 58.9675759 77.03059281 61 81 C61.49628906 79.87464844 61.99257813 78.74929687 62.50390625 77.58984375 C63.19002497 76.03902746 63.87622754 74.48824826 64.5625 72.9375 C65.04686523 71.83825195 65.04686523 71.83825195 65.54101562 70.71679688 C71.79997217 56.58943782 78.50674511 42.65850281 85.09594727 28.68310547 C89.43756582 19.47348696 93.74629068 10.25065646 98 1 C106.25 1 114.5 1 123 1 C122.06825852 5.6587074 120.59631758 9.40615212 118.59765625 13.6484375 C118.24830521 14.40141617 117.89895416 15.15439484 117.53901672 15.93019104 C116.38521134 18.41417093 115.22389648 20.89456145 114.0625 23.375 C113.25352918 25.11246034 112.44510643 26.85017596 111.63720703 28.58813477 C110.3780418 31.29634304 109.11833216 34.00428813 107.85650635 36.71125793 C104.91192163 43.0289772 101.98991499 49.35671819 99.08203125 55.69140625 C98.2844424 57.42725463 97.48683521 59.16309458 96.68920898 60.89892578 C95.54844909 63.3817929 94.40825349 65.86490802 93.27029419 68.34906006 C88.38428289 79.0102275 83.2949402 89.53505639 78 100 C66.45 100 54.9 100 43 100 C34.08453959 80.92768595 25.58138694 61.70860468 17.21380615 42.39149475 C14.76639938 36.74782861 12.29134134 31.11692809 9.80078125 25.4921875 C9.14167622 24.00020168 8.48265721 22.50817785 7.82373047 21.01611328 C6.88914507 18.89995904 5.95293724 16.78461914 5.01080322 14.67181396 C4.15728522 12.75727848 3.31039327 10.83993997 2.46484375 8.921875 C1.986521 7.84518555 1.50819824 6.76849609 1.01538086 5.65917969 C0 3 0 3 0 0 Z " fill="#343433" transform="translate(559,87)"/>
<path d="M0 0 C17.7019046 -0.11251944 35.3207984 -0.03886179 53 1 C52.67 1.66 52.34 2.32 52 3 C41.44 3 30.88 3 20 3 C20 2.67 20 2.34 20 2 C13.4 1.67 6.8 1.34 0 1 C0 0.67 0 0.34 0 0 Z " fill="#2A2925" transform="translate(476,86)"/>
<path d="M0 0 C0.99 0 1.98 0 3 0 C2.1875 1.9375 2.1875 1.9375 1 4 C0.01 4.33 -0.98 4.66 -2 5 C-3.21869929 7.50447516 -3.21869929 7.50447516 -4 10 C-4.66 10 -5.32 10 -6 10 C-6 10.99 -6 11.98 -6 13 C-7.711173 14.6762511 -9.56450049 16.04914323 -11.46875 17.5 C-11.9740625 17.995 -12.479375 18.49 -13 19 C-13 19.99 -13 20.98 -13 22 C-14.96185416 23.71140469 -16.96302383 25.37873325 -19 27 C-19.33 27.66 -19.66 28.32 -20 29 C-20.99 28.67 -21.98 28.34 -23 28 C-22.26136719 27.15179688 -21.52273438 26.30359375 -20.76171875 25.4296875 C-19.73625131 24.24542153 -18.71157237 23.06047254 -17.6875 21.875 C-17.1500415 21.25351074 -16.61258301 20.63202148 -16.05883789 19.99169922 C-11.69282134 14.90174051 -7.5504883 9.66391628 -3.56713867 4.26904297 C-2.44575567 2.79212021 -1.22976919 1.38797277 0 0 Z " fill="#312F29" transform="translate(291,86)"/>
<path d="M0 0 C0.99 0.99 1.98 1.98 3 3 C2.16597656 3.27972656 1.33195312 3.55945313 0.47265625 3.84765625 C-9.18585569 7.28843198 -15.86307794 11.73591675 -23 19 C-22.33333333 17.33333333 -21.66666667 15.66666667 -21 14 C-20.773125 13.13375 -20.54625 12.2675 -20.3125 11.375 C-18.68532726 8.43059219 -16.95966654 7.8741846 -13.8671875 6.7578125 C-11.68605125 5.9535119 -11.68605125 5.9535119 -8.875 3.8125 C-5.85318196 1.9074408 -4.4840017 1.59011745 -1 2 C-0.67 1.34 -0.34 0.68 0 0 Z " fill="#2E2C29" transform="translate(124,162)"/>
<path d="M0 0 C6.36857379 3.82114427 11.86839244 8.80258866 16 15 C16.36611439 17.92891513 16.40254958 19.39617563 14.75 21.875 C13 23 13 23 10.8125 22.6875 C10.214375 22.460625 9.61625 22.23375 9 22 C9.66 21.67 10.32 21.34 11 21 C11 19.68 11 18.36 11 17 C11.66 16.67 12.32 16.34 13 16 C11.58474822 14.41540185 10.1677358 12.83237609 8.75 11.25 C7.96109375 10.36828125 7.1721875 9.4865625 6.359375 8.578125 C4.85748592 6.93698792 3.30860323 5.3368235 1.703125 3.796875 C0 2 0 2 0 0 Z " fill="#302F2B" transform="translate(176,76)"/>
<path d="M0 0 C1.875 1.5625 1.875 1.5625 3 3 C1.35 4.65 -0.3 6.3 -2 8 C-3.32 6.68 -4.64 5.36 -6 4 C-5.67 3.67 -5.34 3.34 -5 3 C-5.66 2.67 -6.32 2.34 -7 2 C-7.33 2.66 -7.66 3.32 -8 4 C-8.66 3.01 -9.32 2.02 -10 1 C-6.42704846 -1.33616062 -4.05773972 -1.12235354 0 0 Z " fill="#313230" transform="translate(172,72)"/>
<path d="M0 0 C1.485 0.99 1.485 0.99 3 2 C-0.72540662 4.48360441 -2.63062973 4.2315867 -7.07421875 4.1953125 C-7.7580513 4.1924826 -8.44188385 4.18965271 -9.1464386 4.18673706 C-11.32697165 4.17555684 -13.50709145 4.15045691 -15.6875 4.125 C-17.16731177 4.11496738 -18.64712999 4.10584202 -20.12695312 4.09765625 C-23.751436 4.07562481 -27.37567766 4.04111002 -31 4 C-31 3.67 -31 3.34 -31 3 C-30.09644775 2.94465088 -29.19289551 2.88930176 -28.26196289 2.83227539 C-24.92023893 2.62536883 -21.57883036 2.41432706 -18.23754883 2.20043945 C-16.78941159 2.10860002 -15.34116775 2.01842625 -13.89282227 1.92993164 C-11.81496601 1.80268694 -9.73756267 1.66952119 -7.66015625 1.53515625 C-6.40855713 1.456604 -5.15695801 1.37805176 -3.86743164 1.29711914 C-1.10529235 1.3154463 -1.10529235 1.3154463 0 0 Z " fill="#312E29" transform="translate(850,185)"/>
<path d="M0 0 C0.99 1.32 1.98 2.64 3 4 C2 6 1 8 0 10 C-0.309375 10.680625 -0.61875 11.36125 -0.9375 12.0625 C-3.19191365 16.17348959 -5.57054523 19.25985705 -10 21 C-10 20.01 -10 19.02 -10 18 C-9.2575 17.29875 -8.515 16.5975 -7.75 15.875 C-3.46734603 11.39767994 -1.36170245 6.0051078 0 0 Z " fill="#2F2E29" transform="translate(876,145)"/>
<path d="M0 0 C0.66 0 1.32 0 2 0 C3.13549779 10.48307782 3.37250969 20.53461361 2 31 C1.67 31 1.34 31 1 31 C0.67 20.77 0.34 10.54 0 0 Z " fill="#1C1A17" transform="translate(449,129)"/>
<path d="M0 0 C0.66 0.33 1.32 0.66 2 1 C0.25224498 3.08525254 -1.49810427 5.16823077 -3.25 7.25 C-3.74113281 7.83652344 -4.23226563 8.42304687 -4.73828125 9.02734375 C-7.37497032 12.15621479 -10.0470322 15.15952621 -13 18 C-13 14.06830895 -11.60580385 12.83572772 -9 10 C-8.34 10 -7.68 10 -7 10 C-7 9.34 -7 8.68 -7 8 C-7.66 7.67 -8.32 7.34 -9 7 C-8.05125 6.7525 -7.1025 6.505 -6.125 6.25 C-2.92285485 5.32193266 -2.92285485 5.32193266 -1.6875 2.9375 C-1.460625 2.298125 -1.23375 1.65875 -1 1 C-0.67 0.67 -0.34 0.34 0 0 Z " fill="#302F2B" transform="translate(294,115)"/>
<path d="M0 0 C0.66 0 1.32 0 2 0 C2.02706445 2.89589652 2.04687029 5.79153795 2.0625 8.6875 C2.07087891 9.50412109 2.07925781 10.32074219 2.08789062 11.16210938 C2.10442051 15.24499084 2.03035098 19.01651707 1 23 C0.34 22.67 -0.32 22.34 -1 22 C-0.814375 21.13375 -0.62875 20.2675 -0.4375 19.375 C0.34117251 14.21229459 -0.36504703 9.08187862 -0.84375 3.9140625 C-0.8953125 2.95242187 -0.946875 1.99078125 -1 1 C-0.67 0.67 -0.34 0.34 0 0 Z " fill="#2C2B26" transform="translate(898,132)"/>
<path d="M0 0 C1.485 0.99 1.485 0.99 3 2 C3 3.32 3 4.64 3 6 C3.66 6.33 4.32 6.66 5 7 C5.33 7.99 5.66 8.98 6 10 C6.66 10 7.32 10 8 10 C8 10.99 8 11.98 8 13 C8.66 13.66 9.32 14.32 10 15 C8.68 15.33 7.36 15.66 6 16 C4.99303432 13.89915791 3.9946411 11.79420511 3 9.6875 C2.443125 8.51574219 1.88625 7.34398437 1.3125 6.13671875 C0 3 0 3 0 0 Z " fill="#302F2B" transform="translate(596,171)"/>
<path d="M0 0 C3.73829578 4.29904015 7 10.24928075 7 16 C3.64468966 14.32234483 2.28312176 12.67055154 0.8125 9.1875 C-0.00457652 5.98204594 -0.15675376 3.29182897 0 0 Z " fill="#2F2F28" transform="translate(608,144)"/>
<path d="M0 0 C0.66 0.33 1.32 0.66 2 1 C-1.31207682 5.10697526 -3.88475093 5.4209152 -9 6 C-9.33 6.66 -9.66 7.32 -10 8 C-11.32 8 -12.64 8 -14 8 C-14 7.34 -14 6.68 -14 6 C-12.23002526 5.18563132 -10.45898848 4.3735706 -8.6875 3.5625 C-7.70136719 3.11003906 -6.71523438 2.65757813 -5.69921875 2.19140625 C-3 1 -3 1 0 0 Z " fill="#2E2B29" transform="translate(343,87)"/>
<path d="M0 0 C0.66 0 1.32 0 2 0 C0.47987323 5.40489519 -3.27385218 8.98492628 -7 13 C-7.99 12.67 -8.98 12.34 -10 12 C-9.34 11.67 -8.68 11.34 -8 11 C-7.67 10.01 -7.34 9.02 -7 8 C-5.3545622 6.31237149 -3.68711423 4.6459651 -2 3 C-1.34 2.01 -0.68 1.02 0 0 Z " fill="#2E2C28" transform="translate(82,211)"/>
<path d="M0 0 C0.66 0 1.32 0 2 0 C0.69041436 5.40204077 -3.43303964 9.08799755 -8 12 C-8.99 11.67 -9.98 11.34 -11 11 C-9.6696875 9.948125 -9.6696875 9.948125 -8.3125 8.875 C-6.01008729 6.97537344 -4.10778164 5.02220469 -2.25 2.6875 C-1.5075 1.800625 -0.765 0.91375 0 0 Z " fill="#2F2D29" transform="translate(225,213)"/>
<path d="M0 0 C-5.71501104 4.03882065 -11.22589011 6.29259116 -18 8 C-17.34 6.68 -16.68 5.36 -16 4 C-13.69 4 -11.38 4 -9 4 C-8.67 3.01 -8.34 2.02 -8 1 C-2.59770115 -1.29885057 -2.59770115 -1.29885057 0 0 Z " fill="#302F2A" transform="translate(430,176)"/>
<path d="M0 0 C3.2428329 3.72925783 5.5119901 8.30238735 7 13 C6.67 13.99 6.34 14.98 6 16 C3.3573028 13.70424908 2.37466878 11.77156016 1.375 8.4375 C0.37113631 5.14589919 0.37113631 5.14589919 -1 2 C-0.67 1.34 -0.34 0.68 0 0 Z " fill="#303029" transform="translate(761,141)"/>
<path d="M0 0 C4.43234199 2.21617099 6.64627884 4.64125711 9 9 C9.25 11.875 9.25 11.875 9 14 C8.34 14 7.68 14 7 14 C7 12.68 7 11.36 7 10 C5.0399719 8.36323743 5.0399719 8.36323743 3 7 C3 6.34 3 5.68 3 5 C2.505 4.505 2.01 4.01 1.5 3.5 C1.005 3.005 0.51 2.51 0 2 C0 1.34 0 0.68 0 0 Z " fill="#2F2E29" transform="translate(218,198)"/>
<path d="M0 0 C0.66 0.99 1.32 1.98 2 3 C-6.55555556 11.55555556 -6.55555556 11.55555556 -11 12 C-11.66 11.34 -12.32 10.68 -13 10 C-12.22076172 9.67128906 -12.22076172 9.67128906 -11.42578125 9.3359375 C-6.24059768 6.97816456 -3.34922495 4.60518431 0 0 Z " fill="#2E2D27" transform="translate(419,154)"/>
<path d="M0 0 C5.28 0 10.56 0 16 0 C16.33 0.66 16.66 1.32 17 2 C9.08 2.495 9.08 2.495 1 3 C0.67 2.01 0.34 1.02 0 0 Z " fill="#2D2C25" transform="translate(162,98)"/>
<path d="M0 0 C0.66 0 1.32 0 2 0 C0.52926948 5.22926405 -3.00733149 9.41637993 -7 13 C-7.99 13 -8.98 13 -10 13 C-9.34 12.01 -8.68 11.02 -8 10 C-7.34 10 -6.68 10 -6 10 C-5.7525 9.46375 -5.505 8.9275 -5.25 8.375 C-3.69347463 5.4176018 -1.96564327 2.70275949 0 0 Z " fill="#2F2E28" transform="translate(893,163)"/>
<path d="M0 0 C-4.66666667 2.33333333 -9.33333333 4.66666667 -14 7 C-13.875 5.25 -13.875 5.25 -13 3 C-4.92307692 -3.28205128 -4.92307692 -3.28205128 0 0 Z " fill="#302F2A" transform="translate(353,106)"/>
<path d="M0 0 C4.88080542 0.59401283 9.35920128 1.51749688 13 5 C12.34 5.66 11.68 6.32 11 7 C7 5 3 3 -1 1 C-0.67 0.67 -0.34 0.34 0 0 Z " fill="#2E2D28" transform="translate(137,165)"/>
<path d="M0 0 C1.16306443 3.54950034 0.92365049 6.55823948 0.5625 10.25 C0.40974609 11.86648437 0.40974609 11.86648437 0.25390625 13.515625 C0.17011719 14.33546875 0.08632813 15.1553125 0 16 C-2 14 -2 14 -2.265625 11.50390625 C-2.26046875 10.53324219 -2.2553125 9.56257812 -2.25 8.5625 C-2.25515625 7.59441406 -2.2603125 6.62632812 -2.265625 5.62890625 C-2 3 -2 3 0 0 Z " fill="#2F2E29" transform="translate(333,124)"/>
<path d="M0 0 C-1.4859916 4.59306496 -3.85014682 7.43569245 -7 11 C-7.33 10.34 -7.66 9.68 -8 9 C-6.68 7.02 -5.36 5.04 -4 3 C-4.33 2.34 -4.66 1.68 -5 1 C-3 0 -3 0 0 0 Z " fill="#2D2D29" transform="translate(442,161)"/>
<path d="M0 0 C1.1127563 3.3155596 0.9007397 5.32161249 -0.1875 8.625 C-0.42855469 9.40101562 -0.66960938 10.17703125 -0.91796875 10.9765625 C-2.23750029 13.44413411 -3.43218752 14.01115296 -6 15 C-4.40109514 9.80355921 -2.25861997 4.93387858 0 0 Z " fill="#2D2D28" transform="translate(703,88)"/>
<path d="M0 0 C0.33 0 0.66 0 1 0 C1.21192221 5.19209404 0.5912689 9.126739 -1 14 C-1.99 13.34 -2.98 12.68 -4 12 C-2.66666667 8 -1.33333333 4 0 0 Z " fill="#2E2E2A" transform="translate(565,121)"/>
<path d="M0 0 C2 1 2 1 3 3 C2.01 3 1.02 3 0 3 C0.33 4.32 0.66 5.64 1 7 C0.34 7 -0.32 7 -1 7 C-1.66 8.65 -2.32 10.3 -3 12 C-3.66 12 -4.32 12 -5 12 C-3.68938409 7.76570244 -2.05643741 3.92592596 0 0 Z " fill="#2D2E28" transform="translate(645,114)"/>
<path d="M0 0 C1.65 0 3.3 0 5 0 C2.69 3.96 0.38 7.92 -2 12 C-3 10 -3 10 -2.1875 6.4375 C-1 3 -1 3 1 2 C0.67 1.34 0.34 0.68 0 0 Z " fill="#2F2D2A" transform="translate(94,185)"/>
<path d="M0 0 C0.66 0.33 1.32 0.66 2 1 C0.77472971 5.05281712 -0.69880494 8.44360764 -3 12 C-4.32 11.67 -5.64 11.34 -7 11 C-6.21625 10.29875 -5.4325 9.5975 -4.625 8.875 C-1.91639182 5.90842914 -0.98277285 3.8417484 0 0 Z " fill="#302F29" transform="translate(640,175)"/>
<path d="M0 0 C1.66666667 1.66666667 3.33333333 3.33333333 5 5 C5.61875 5.515625 6.2375 6.03125 6.875 6.5625 C7.431875 7.2740625 7.431875 7.2740625 8 8 C7.5703125 10.08984375 7.5703125 10.08984375 7 12 C5.82455195 10.56967163 4.65989738 9.13046758 3.5 7.6875 C2.8503125 6.88699219 2.200625 6.08648437 1.53125 5.26171875 C0 3 0 3 0 0 Z " fill="#2F2E29" transform="translate(308,170)"/>
<path d="M0 0 C-0.33 0.66 -0.66 1.32 -1 2 C-7.52307692 2.36923077 -7.52307692 2.36923077 -9.9375 0.5 C-10.4634375 -0.2425 -10.4634375 -0.2425 -11 -1 C-6.58937864 -2.0257259 -4.07369424 -2.03684712 0 0 Z " fill="#262322" transform="translate(783,187)"/>
<path d="M0 0 C0.5775 0.61875 1.155 1.2375 1.75 1.875 C4.08052993 4.28110212 4.08052993 4.28110212 8 6 C5.03 6 2.06 6 -1 6 C-1.33 5.34 -1.66 4.68 -2 4 C-1.0625 1.875 -1.0625 1.875 0 0 Z " fill="#2A2922" transform="translate(660,182)"/>
<path d="M0 0 C3 1 3 1 4.75 4.3125 C6.33072237 8.97563098 6.33072237 8.97563098 5 12 C4.67 11.01 4.34 10.02 4 9 C3.34 8.67 2.68 8.34 2 8 C1.3671875 6.15234375 1.3671875 6.15234375 0.875 3.9375 C0.70742188 3.20402344 0.53984375 2.47054687 0.3671875 1.71484375 C0.24601563 1.14894531 0.12484375 0.58304687 0 0 Z " fill="#2F2E2A" transform="translate(593,113)"/>
<path d="M0 0 C0.66 0.33 1.32 0.66 2 1 C1.24203125 1.83144531 1.24203125 1.83144531 0.46875 2.6796875 C-0.1809375 3.40414062 -0.830625 4.12859375 -1.5 4.875 C-2.1496875 5.59429687 -2.799375 6.31359375 -3.46875 7.0546875 C-5.20617272 8.84931098 -5.20617272 8.84931098 -5 11 C-5.99 10.67 -6.98 10.34 -8 10 C-7.04367001 8.70684939 -6.08486149 7.41553147 -5.125 6.125 C-4.59132812 5.40570313 -4.05765625 4.68640625 -3.5078125 3.9453125 C-2 2 -2 2 0 0 Z " fill="#2F2D28" transform="translate(66,170)"/>
<path d="M0 0 C3.26008643 3.16952847 6.22237877 6.39937989 9 10 C8.01 10 7.02 10 6 10 C6 9.34 6 8.68 6 8 C5.34 8 4.68 8 4 8 C0 3.64705882 0 3.64705882 0 0 Z " fill="#2E2C28" transform="translate(121,139)"/>
<path d="M0 0 C-1.66751148 3.94139078 -4.22710649 6.7892812 -7 10 C-7.66 9.34 -8.32 8.68 -9 8 C-8.01 7.67 -7.02 7.34 -6 7 C-5.64587656 5.67203709 -5.31478446 4.33783393 -5 3 C-2.53571429 0 -2.53571429 0 0 0 Z " fill="#2F2C28" transform="translate(305,104)"/>
<path d="M0 0 C2.97 0 5.94 0 9 0 C8.67 1.65 8.34 3.3 8 5 C7.236875 4.690625 6.47375 4.38125 5.6875 4.0625 C3.81210323 3.32106407 1.91315348 2.63771783 0 2 C0 1.34 0 0.68 0 0 Z " fill="#2E2E29" transform="translate(406,105)"/>
<path d="M0 0 C0.66 0.33 1.32 0.66 2 1 C-0.475 5.455 -0.475 5.455 -3 10 C-3.33 9.01 -3.66 8.02 -4 7 C-4.66 6.67 -5.32 6.34 -6 6 C-5.38125 5.566875 -4.7625 5.13375 -4.125 4.6875 C-1.7802755 3.00259517 -1.7802755 3.00259517 0 0 Z " fill="#2E2D2B" transform="translate(664,125)"/>
<path d="M0 0 C1.14926266 0.95421808 2.29430541 1.91352045 3.4375 2.875 C4.07558594 3.40867188 4.71367188 3.94234375 5.37109375 4.4921875 C7 6 7 6 8 8 C7.01 8.33 6.02 8.66 5 9 C1.9083091 6.47043472 1.09068668 3.77545388 0 0 Z " fill="#2F2F2C" transform="translate(79,54)"/>
<path d="M0 0 C4.455 2.97 4.455 2.97 9 6 C8.67 6.66 8.34 7.32 8 8 C6.02 7.34 4.04 6.68 2 6 C2 5.01 2 4.02 2 3 C1.01 2.67 0.02 2.34 -1 2 C-0.67 1.34 -0.34 0.68 0 0 Z " fill="#2F2D28" transform="translate(338,156)"/>
<path d="M0 0 C2.96404505 2.80804268 5.44499019 5.18315774 7 9 C1.33846154 6.66153846 1.33846154 6.66153846 -0.375 3.3125 C-0.58125 2.549375 -0.7875 1.78625 -1 1 C-0.67 0.67 -0.34 0.34 0 0 Z " fill="#2C2C28" transform="translate(292,150)"/>
<path d="M0 0 C1 3 1 3 -0.4375 6.1875 C-1.2109375 7.5796875 -1.2109375 7.5796875 -2 9 C-2.66 8.67 -3.32 8.34 -4 8 C-4.25 5.6875 -4.25 5.6875 -4 3 C-2 1.1875 -2 1.1875 0 0 Z " fill="#2F2D2A" transform="translate(656,142)"/>
<path d="M0 0 C1.32176485 0.90325616 2.63215066 1.82317903 3.9375 2.75 C4.66839844 3.26046875 5.39929688 3.7709375 6.15234375 4.296875 C8.20805399 6.19177915 8.62669176 7.27425729 9 10 C1.33257403 5.18223235 1.33257403 5.18223235 0 0 Z " fill="#312B25" transform="translate(88,63)"/>
<path d="M0 0 C0.66 0.33 1.32 0.66 2 1 C1.04956626 2.33897583 0.08940853 3.67105427 -0.875 5 C-1.40867187 5.7425 -1.94234375 6.485 -2.4921875 7.25 C-3.23855469 8.11625 -3.23855469 8.11625 -4 9 C-4.66 9 -5.32 9 -6 9 C-4.47291037 5.56404834 -2.40072955 2.88087546 0 0 Z " fill="#2F2E29" transform="translate(76,157)"/>
<path d="M0 0 C2.32472205 2.85306797 3.7508258 5.54074837 5 9 C4.01 9.495 4.01 9.495 3 10 C-0.22265625 4.82421875 -0.22265625 4.82421875 -1 3 C-0.67 2.01 -0.34 1.02 0 0 Z " fill="#2D2A28" transform="translate(314,156)"/>
<path d="M0 0 C0.66 0.33 1.32 0.66 2 1 C-1.44615385 5.8 -1.44615385 5.8 -4.25 6.8125 C-5.11625 6.9053125 -5.11625 6.9053125 -6 7 C-4.77065985 3.31197956 -3.06140622 2.27643027 0 0 Z " fill="#2D2D27" transform="translate(559,138)"/>
<path d="M0 0 C0.66 0.33 1.32 0.66 2 1 C1 4 1 4 -1 5.0625 C-1.66 5.371875 -2.32 5.68125 -3 6 C-3.33 6.66 -3.66 7.32 -4 8 C-4.99 7.67 -5.98 7.34 -7 7 C-4.69 4.69 -2.38 2.38 0 0 Z " fill="#2E2B28" transform="translate(325,96)"/>
<path d="M0 0 C1.32 0 2.64 0 4 0 C3.67 2.31 3.34 4.62 3 7 C1.68 6.34 0.36 5.68 -1 5 C-0.67 3.35 -0.34 1.7 0 0 Z " fill="#2E2E2E" transform="translate(347,178)"/>
<path d="M0 0 C0.66 0.33 1.32 0.66 2 1 C1.67 2.65 1.34 4.3 1 6 C0.34 6 -0.32 6 -1 6 C-0.67 6.99 -0.34 7.98 0 9 C-0.99 9.33 -1.98 9.66 -3 10 C-2.01 6.7 -1.02 3.4 0 0 Z " fill="#2D2D26" transform="translate(86,137)"/>
<path d="M0 0 C1 3 1 3 -0.4375 6.1875 C-1.2109375 7.5796875 -1.2109375 7.5796875 -2 9 C-2.99 8.67 -3.98 8.34 -5 8 C-1.125 1.125 -1.125 1.125 0 0 Z " fill="#302E2A" transform="translate(715,115)"/>
<path d="M0 0 C0.99 0 1.98 0 3 0 C4.06775224 1.96466413 5.06553465 3.96855359 6 6 C5.67 6.66 5.34 7.32 5 8 C2.20127563 5.47211993 0.54226981 3.79588866 0 0 Z " fill="#2C2A29" transform="translate(891,111)"/>
<path d="M0 0 C2.15377564 2.62198774 3.40072174 4.64404172 4 8 C2.68 7.67 1.36 7.34 0 7 C-0.38133299 5.0085944 -0.71325582 3.00720923 -1 1 C-0.67 0.67 -0.34 0.34 0 0 Z " fill="#2D2D28" transform="translate(589,101)"/>
<path d="M0 0 C2.97 0 5.94 0 9 0 C9 0.99 9 1.98 9 3 C2.25 2.25 2.25 2.25 0 0 Z " fill="#312D28" transform="translate(673,88)"/>
<path d="M0 0 C0.66 0.33 1.32 0.66 2 1 C0.68 3.64 -0.64 6.28 -2 9 C-2.66 9 -3.32 9 -4 9 C-3.35455571 5.51460083 -1.89865603 2.97180943 0 0 Z " fill="#2D2C27" transform="translate(670,112)"/>
<path d="M0 0 C0.99 0.33 1.98 0.66 3 1 C0.14693203 3.32472205 -2.54074837 4.7508258 -6 6 C-6.33 5.34 -6.66 4.68 -7 4 C-5.35 3.67 -3.7 3.34 -2 3 C-2 2.34 -2 1.68 -2 1 C-1.34 0.67 -0.68 0.34 0 0 Z " fill="#302E25" transform="translate(129,103)"/>
<path d="M0 0 C3 1 3 1 4.1875 2.875 C5 5 5 5 5 8 C4.34 8 3.68 8 3 8 C0 2.25 0 2.25 0 0 Z " fill="#302F29" transform="translate(82,101)"/>
<path d="M0 0 C3.3 0 6.6 0 10 0 C6 2 6 2 2 2 C1.34 1.34 0.68 0.68 0 0 Z M-2 1 C0 2 0 2 0 2 Z " fill="#312F2A" transform="translate(850,90)"/>
<path d="M0 0 C2.79872437 2.52788007 4.45773019 4.20411134 5 8 C2 7 2 7 0 4 C0 2.68 0 1.36 0 0 Z " fill="#2E2D28" transform="translate(76,90)"/>
<path d="M0 0 C0.66 0.66 1.32 1.32 2 2 C1.8125 4.0625 1.8125 4.0625 1 6 C0.01 6.33 -0.98 6.66 -2 7 C-1.125 1.125 -1.125 1.125 0 0 Z " fill="#2E2D29" transform="translate(668,165)"/>
<path d="M0 0 C0 3.69418201 -1.28179295 5.77836178 -3 9 C-3.66 8.67 -4.32 8.34 -5 8 C-3.8141763 4.62496331 -2.72426311 2.35277269 0 0 Z " fill="#2F2F2A" transform="translate(693,165)"/>
<path d="M0 0 C2.31 0.66 4.62 1.32 7 2 C7 2.99 7 3.98 7 5 C4.0625 4.1875 4.0625 4.1875 1 3 C0.67 2.01 0.34 1.02 0 0 Z " fill="#2B2B27" transform="translate(856,108)"/>
<path d="M0 0 C0 0.66 0 1.32 0 2 C-0.639375 2.12375 -1.27875 2.2475 -1.9375 2.375 C-2.618125 2.58125 -3.29875 2.7875 -4 3 C-4.33 3.66 -4.66 4.32 -5 5 C-5.66 4.01 -6.32 3.02 -7 2 C-4.35261084 0.5393715 -3.10551666 0 0 0 Z " fill="#272623" transform="translate(169,71)"/>
<path d="" fill="#000000" transform="translate(0,0)"/>
<path d="" fill="#000000" transform="translate(0,0)"/>
<path d="" fill="#000000" transform="translate(0,0)"/>
</svg>
